<?xml version="1.0" encoding="UTF-8"?>
<svg width="120px" height="120px" viewBox="0 0 120 120" version="1.1" xmlns="http://www.w3.org/2000/svg" xmlns:xlink="http://www.w3.org/1999/xlink">
    <!-- Generator: Sketch 48.2 (47327) - http://www.bohemiancoding.com/sketch -->
    <title>Icon/Thumbs up</title>
    <desc>Created with Sketch.</desc>
    <defs>
        <path d="M94.3125,48.34376 C93.47916,47.35417 92.48959,46.48178 91.34375,45.72657 C90.19791,44.97136 88.97396,44.51563 87.67188,44.35938 C87.30729,44.35938 87.02083,44.35938 86.8125,44.35938 C86.60417,44.35938 86.31771,44.35938 85.95312,44.35938 L70.64062,44.35938 L70.64062,34.35938 C70.64062,30.66144 69.33855,27.51043 66.73438,24.90626 C64.1302,22.30208 60.97919,21 57.28125,21 C56.65625,21 56.04427,21.16927 55.44531,21.50782 C54.84635,21.84636 54.46875,22.35417 54.3125,23.03126 L41.96875,51 L34,51 C31.135402,51 28.752614,51.96354 26.851562,53.89063 C24.9505113,55.81772 24,58.18749 24,61 L24,84.35938 C24,87.171894 24.9505113,89.541662 26.851562,91.468755 C28.752614,93.395848 31.135402,94.35938 34,94.35938 L81.65625,94.35938 C81.65625,94.35938 81.65625,94.35938 81.65625,94.35938 C81.65625,94.35938 81.65625,94.35938 81.65625,94.35938 C84.15626,94.35938 86.3177,93.5520964 88.14062,91.937505 C89.96355,90.322914 91.13541,88.343767 91.65625,86.000005 L96.34375,56 C96.5,54.64583 96.40886,53.31772 96.07031,52.01563 C95.73177,50.71354 95.14584,49.48959 94.3125,48.34376 Z M40.64062,87.64063 L34,87.64063 C32.958328,87.64063 32.138024,87.341154 31.539062,86.742192 C30.940101,86.143231 30.640625,85.348968 30.640625,84.35938 L30.640625,61 C30.640625,60.01042 30.940101,59.20313 31.539062,58.57813 C32.138024,57.95313 32.958328,57.64063 34,57.64063 L40.64062,57.64063 L40.64062,87.64063 Z M84.9375,84.98438 C84.78125,85.817717 84.40365,86.468753 83.80469,86.937505 C83.20573,87.406257 82.48959,87.64063 81.65625,87.64063 C81.65625,87.64063 81.65625,87.64063 81.65625,87.64063 C81.65625,87.64063 81.65625,87.64063 81.65625,87.64063 L47.28125,87.64063 L47.28125,54.98438 L59.3125,28.03126 C60.66667,28.50001 61.78645,29.29427 62.67188,30.41407 C63.5573,31.53386 64,32.84896 64,34.35938 L64,47.64063 C64,48.6823 64.29948,49.50261 64.89844,50.10157 C65.4974,50.70053 66.29166,51 67.28125,51 L86.34375,51 C86.5,51 86.60417,51 86.65625,51 C86.70833,51 86.8125,51 86.96875,51 C87.48959,51 87.93229,51.14323 88.29688,51.42969 C88.66146,51.71615 89,52.01563 89.3125,52.32813 C89.625,52.64063 89.80729,53.03125 89.85938,53.5 C89.91146,53.96876 89.9375,54.35938 89.9375,54.67188 L84.9375,84.98438 Z" id="path-1"></path>
    </defs>
    <g id="Icons" stroke="none" stroke-width="1" fill="none" fill-rule="evenodd">
        <g id="Icon/Thumbs-up">
            <mask id="mask-2" fill="white">
                <use xlink:href="#path-1"></use>
            </mask>
            <use fill="#FFFFFF" xlink:href="#path-1"></use>
            <g id="Color-alias/Icons/Icon-Light" mask="url(#mask-2)" fill="#FFFFFF">
                <g id="Color/White">
                    <rect id="Sample" x="0" y="0" width="120" height="120"></rect>
                </g>
            </g>
        </g>
    </g>
</svg>