<?xml version="1.0" encoding="UTF-8"?>
<svg width="120px" height="120px" viewBox="0 0 120 120" version="1.1" xmlns="http://www.w3.org/2000/svg" xmlns:xlink="http://www.w3.org/1999/xlink">
    <!-- Generator: Sketch 48.2 (47327) - http://www.bohemiancoding.com/sketch -->
    <title>Icon/Sliders</title>
    <desc>Created with Sketch.</desc>
    <defs>
        <path d="M39.71429,80.42857 L39.71429,86.142854 L28.857142,86.142854 C27.279186,86.142854 26,84.863668 26,83.285712 L26,83.285712 C26,81.707756 27.279186,80.42857 28.857142,80.42857 L39.71429,80.42857 Z M57.42857,74.71428 C58.20238,74.71428 58.87202,74.99702 59.4375,75.5625 C60.00298,76.12798 60.28571,76.79761 60.28571,77.57143 L60.28571,88.999997 C60.28571,89.773811 60.00298,90.443447 59.4375,91.0089257 C58.87202,91.5744047 58.20238,91.85714 57.42857,91.85714 L46,91.85714 C45.22619,91.85714 44.55655,91.5744047 43.99107,91.0089257 C43.42559,90.443447 43.14286,89.773811 43.14286,88.999997 L43.14286,77.57143 C43.14286,76.79761 43.42559,76.12798 43.99107,75.5625 C44.55655,74.99702 45.22619,74.71428 46,74.71428 L57.42857,74.71428 Z M62.57143,57.57143 L62.57143,63.28571 L28.85714,63.28571 C27.2791851,63.28571 26,62.0065249 26,60.42857 L26,60.42857 C26,58.8506151 27.2791851,57.57143 28.85714,57.57143 L62.57143,57.57143 Z M34,34.71428 L34,40.42857 L28.857145,40.42857 C27.2791874,40.42857 26,39.1493826 26,37.571425 L26,37.571425 C26,35.9934674 27.2791874,34.71428 28.857145,34.71428 L34,34.71428 Z M94.57143,83.285712 L94.57143,83.285712 C94.57143,84.863668 93.292244,86.142854 91.714288,86.142854 L63.71429,86.142854 L63.71429,80.42857 L91.714288,80.42857 C93.292244,80.42857 94.57143,81.707756 94.57143,83.285712 Z M51.71429,29 C52.4881,29 53.15774,29.28273 53.72321,29.84821 C54.28869,30.41369 54.57143,31.08333 54.57143,31.85714 L54.57143,43.28571 C54.57143,44.05952 54.28869,44.72916 53.72321,45.29464 C53.15774,45.86012 52.4881,46.14285 51.71429,46.14285 L40.28571,46.14285 C39.5119,46.14285 38.84226,45.86012 38.27679,45.29464 C37.71131,44.72916 37.42857,44.05952 37.42857,43.28571 L37.42857,31.85714 C37.42857,31.08333 37.71131,30.41369 38.27679,29.84821 C38.84226,29.28273 39.5119,29 40.28571,29 L51.71429,29 Z M80.28571,51.85714 C81.05953,51.85714 81.72916,52.13988 82.29464,52.70535 C82.86012,53.27083 83.14286,53.94047 83.14286,54.71428 L83.14286,66.14285 C83.14286,66.91667 82.86012,67.5863 82.29464,68.15178 C81.72916,68.71726 81.05953,69 80.28571,69 L68.85714,69 C68.08333,69 67.41369,68.71726 66.84821,68.15178 C66.28274,67.5863 66,66.91667 66,66.14285 L66,54.71428 C66,53.94047 66.28274,53.27083 66.84821,52.70535 C67.41369,52.13988 68.08333,51.85714 68.85714,51.85714 L80.28571,51.85714 Z M94.57143,60.42857 L94.57143,60.42857 C94.57143,62.0065249 93.2922449,63.28571 91.71429,63.28571 L86.57143,63.28571 L86.57143,57.57143 L91.71429,57.57143 C93.2922449,57.57143 94.57143,58.8506151 94.57143,60.42857 Z M94.57143,37.571425 L94.57143,37.571425 C94.57143,39.1493826 93.2922426,40.42857 91.714285,40.42857 L58,40.42857 L58,34.71428 L91.714285,34.71428 C93.2922426,34.71428 94.57143,35.9934674 94.57143,37.571425 Z" id="path-1"></path>
    </defs>
    <g id="Icons" stroke="none" stroke-width="1" fill="none" fill-rule="evenodd">
        <g id="Icon/Sliders">
            <mask id="mask-2" fill="white">
                <use xlink:href="#path-1"></use>
            </mask>
            <use fill="#FFFFFF" xlink:href="#path-1"></use>
            <g id="Color-alias/Icons/Icon-Light" mask="url(#mask-2)" fill="#FFFFFF">
                <g id="Color/White">
                    <rect id="Sample" x="0" y="0" width="120" height="120"></rect>
                </g>
            </g>
        </g>
    </g>
</svg>