<?xml version="1.0" encoding="UTF-8"?>
<svg width="120px" height="120px" viewBox="0 0 120 120" version="1.1" xmlns="http://www.w3.org/2000/svg" xmlns:xlink="http://www.w3.org/1999/xlink">
    <!-- Generator: Sketch 48.2 (47327) - http://www.bohemiancoding.com/sketch -->
    <title>icon-refresh</title>
    <desc>Created with Sketch.</desc>
    <defs></defs>
    <g id="Icons-for-Github" stroke="none" stroke-width="1" fill="none" fill-rule="evenodd">
        <g id="icon-refresh" fill="#000000" fill-rule="nonzero">
            <path d="M26.2962963,51.8592598 L26.2962963,52.0278064 C26.2962963,52.0822021 26.3044888,52.1014466 26.3590811,52.1555967 C26.4156997,52.2117566 26.4406869,52.2222222 26.5028861,52.2222222 L35.8493737,52.2222222 C35.9692325,52.2222222 35.9611588,52.2283648 36.0645967,51.9415015 C37.4220911,48.7355255 38.2550063,46.9116985 38.6453357,46.3141389 C40.9534854,42.5854984 44.0278781,39.6507144 47.8538789,37.52404 C51.6798892,35.3979626 55.8104709,34.3325328 60.2252993,34.3325328 C66.8437143,34.3325328 72.6205293,36.5818904 77.494229,41.0565061 L78.494898,41.9752352 L77.5303414,42.9318083 L71.0487858,49.3597161 C70.6968385,49.7094904 70.539489,50.079261 70.539489,50.5370942 C70.539489,50.9947134 70.6966861,51.3639748 71.0474479,51.7125727 C71.4021006,52.0640121 71.7800681,52.2222222 72.2495414,52.2222222 L93.2911005,52.2222222 C93.7602953,52.2222222 94.1375125,52.0642293 94.4911493,51.7134573 C94.8430468,51.3640717 95,50.9952048 95,50.5370942 L95,29.6659805 C95,29.2063942 94.843781,28.8387181 94.4924867,28.4909433 C94.1378408,28.1391711 93.7599519,27.9808525 93.2911005,27.9808525 C92.8225483,27.9808525 92.4452185,28.1390015 92.0871102,28.493514 L85.0947149,35.3768783 L84.1862427,34.5263093 C80.9537919,31.4998849 77.2554939,29.1565026 73.0847491,27.4928872 C68.9171521,25.8303055 64.6325704,25 60.2258758,25 C51.9071308,25 44.6803844,27.4863678 38.4946293,32.4698253 C32.3383193,37.4290125 28.278774,43.878362 26.2962963,51.8592598 Z M93.6430983,67.8497235 C93.5832758,67.7910025 93.5542857,67.7789214 93.4890092,67.7789214 L84.4288557,67.7789214 C84.3043528,67.7789214 84.3108001,67.7740408 84.2069701,68.0613412 C82.8492293,71.2550732 82.0076745,73.0891608 81.6144368,73.6894539 C79.2944251,77.4177566 76.2058278,80.3526302 72.3650231,82.4774058 C68.523365,84.6029181 64.3755642,85.6676959 59.9414221,85.6676959 C56.7266682,85.6676959 53.6236428,85.0780065 50.6418157,83.8999211 C47.6633828,82.7231766 44.9950894,81.0537867 42.6448926,78.8964742 L41.6417511,77.9756622 L42.6107762,77.0190128 L49.0756051,70.6367483 C49.4285661,70.2886016 49.5861305,69.9200366 49.5861305,69.4634204 C49.5861305,69.0064827 49.4287481,68.6384188 49.0747113,68.28921 C48.7180371,67.9367182 48.336981,67.7777778 47.8627618,67.7777778 L26.7239479,67.7777778 C26.2491871,67.7777778 25.8681229,67.9366891 25.5105254,68.2900925 C25.1573824,68.6384188 25,69.0064827 25,69.4634204 L25,90.3341339 C25,90.79075 25.1575645,91.159315 25.5100785,91.5070211 C25.868579,91.8602895 26.2506535,92.0197765 26.7239479,92.0197765 C27.1971786,92.0197765 27.5790182,91.860355 27.9363002,91.5079464 L34.912315,84.6197521 L35.8223187,85.4761665 C39.0697474,88.5323574 42.7608481,90.8820215 46.9028463,92.5296118 C51.0436553,94.1772805 55.3241944,95 59.7531997,95 C68.080569,95 75.3106768,92.5136202 81.4940883,87.530451 C87.6859981,82.5409849 91.7458647,76.0424677 93.6931437,67.993833 C93.7005927,67.9145347 93.6883554,67.8945051 93.6430983,67.8497235 Z" id="icon-Spinner"></path>
        </g>
    </g>
</svg>