<?xml version="1.0" encoding="UTF-8"?>
<svg width="42px" height="46px" viewBox="0 0 42 46" version="1.1" xmlns="http://www.w3.org/2000/svg" xmlns:xlink="http://www.w3.org/1999/xlink">
    <g id="Icons" stroke="none" stroke-width="1" fill="none" fill-rule="evenodd" transform="translate(-545.000000, -1454.000000)">
        <g id="Icon/User/White" transform="translate(524.000000, 1437.000000)" fill="#F2F2F2">
            <path d="M38.4405899,42.3396694 C36.1848632,42.891515 34.1570426,42.9339373 33.1406507,42.9339373 C30.0788984,42.9339373 28.4422595,35.246818 28.4422595,29.0133721 C28.4422595,28.6736058 28.4553541,28.3373461 28.4811293,28.00522 C27.4847618,21.9910019 32.5136962,17.3333333 38.7643321,17.3333333 C45.0235593,17.3333333 49.9503244,18.8254976 49.9503244,26.6512964 C49.9503244,38.8685744 51.9839469,38.7266467 48.9221946,38.7266467 C48.4422134,38.7266467 47.635396,38.6118675 46.6121045,38.3950792 C46.6650774,40.9761744 46.8196564,43.0058351 47.2460733,44.5510965 C47.8070728,44.4926392 48.3682328,44.5057588 48.9299444,44.6181852 C50.5505672,44.9425524 54.5318916,46.6127649 56.4008168,47.5901583 C58.7554408,48.8215581 61.7860313,53.0766401 62.1745683,55.0008956 C62.411459,56.1741125 62.4567367,58.0105701 62.3104014,60.5102684 C62.2485025,61.5676249 61.3729922,62.3933808 60.3138255,62.3933808 L23.6955347,62.3933865 C23.6460791,62.3933865 23.5966405,62.3915521 23.5473208,62.3878872 C22.4457826,62.3060309 21.619167,61.3467001 21.7010232,60.2451618 L21.701034,60.2451626 C21.7995802,58.9190286 22.0359594,57.8639504 22.4101717,57.079928 C23.8418081,54.0804671 27.0131307,49.3504471 28.4852719,48.3603463 C31.3162788,46.456329 33.915409,45.4801428 37.9232212,45.2837167 C38.1516945,44.3128384 38.3509081,43.3202768 38.4405899,42.3396694 Z"></path>
        </g>
    </g>
</svg>