<?xml version="1.0" encoding="UTF-8"?>
<svg width="50px" height="48px" viewBox="0 0 50 48" version="1.1" xmlns="http://www.w3.org/2000/svg" xmlns:xlink="http://www.w3.org/1999/xlink">
    <g id="Icons" stroke="none" stroke-width="1" fill="none" fill-rule="evenodd" transform="translate(-314.000000, -1247.000000)">
        <g id="Icon/Star-empty/White" transform="translate(299.000000, 1231.000000)" fill="#FFFFFF">
            <path d="M49.17262,45.5952333 L58.27976,36.7559467 L45.72024,34.9107133 L40.09524,23.5416667 L34.47024,34.9107133 L21.910714,36.7559467 L31.01786,45.5952333 L28.84524,58.1249973 L40.09524,52.20238 L51.3154733,58.1249973 L49.17262,45.5952333 Z M64.85714,34.9702333 C64.85714,35.4067467 64.5992067,35.8829333 64.0833333,36.3988067 L53.27976,46.93452 L55.8392867,61.8154733 C55.8591267,61.9543627 55.8690467,62.1527733 55.8690467,62.4107113 C55.8690467,63.4027799 55.4623067,63.8988067 54.6488067,63.8988067 C54.2718267,63.8988067 53.875,63.7797603 53.4583333,63.5416638 L40.09524,56.5178533 L26.73214,63.5416638 C26.2956333,63.7797603 25.8988133,63.8988067 25.5416667,63.8988067 C25.125,63.8988067 24.8125,63.7549589 24.6041667,63.4672591 C24.3958333,63.1795593 24.2916667,62.82738 24.2916667,62.4107113 C24.2916667,62.2916633 24.3115067,62.0932527 24.3511933,61.8154733 L26.9107133,46.93452 L16.0773807,36.3988067 C15.5813467,35.8630867 15.3333333,35.3869067 15.3333333,34.9702333 C15.3333333,34.2361067 15.8888833,33.77976 17,33.6011867 L31.9404733,31.4285667 L38.6369067,17.8869 C39.0138933,17.0734067 39.5,16.6666667 40.09524,16.6666667 C40.69048,16.6666667 41.1765867,17.0734067 41.5535733,17.8869 L48.25,31.4285667 L63.1904733,33.6011867 C64.3015933,33.77976 64.85714,34.2361067 64.85714,34.9702333 Z"></path>
        </g>
    </g>
</svg>