<?xml version="1.0" encoding="UTF-8"?>
<svg width="48px" height="48px" viewBox="0 0 48 48" version="1.1" xmlns="http://www.w3.org/2000/svg" xmlns:xlink="http://www.w3.org/1999/xlink">
    <g id="Icons" stroke="none" stroke-width="1" fill="none" fill-rule="evenodd" transform="translate(-761.000000, -1657.000000)">
        <g id="Icon/Emoji-Sad/Red-Multi-Color" transform="translate(745.000000, 1641.000000)">
            <circle id="Combined-Shape" fill="#FF6658" cx="40" cy="40" r="24"></circle>
            <ellipse id="Oval-2" fill="#782200" cx="32.3333333" cy="35.6666667" rx="3" ry="3.66666667"></ellipse>
            <ellipse id="Oval-2" fill="#782200" cx="48.3333333" cy="35.6666667" rx="3" ry="3.66666667"></ellipse>
            <path d="M30.7805684,52.906425 C30.0958688,53.5216159 29.0420993,53.465268 28.4269084,52.7805684 C27.8117174,52.0958688 27.8680653,51.0420993 28.5527649,50.4269084 C31.4700329,47.8057926 35.4228797,46.5139251 40.3333333,46.5139251 C45.2437869,46.5139251 49.1966338,47.8057926 52.1139018,50.4269084 C52.7986014,51.0420993 52.8549493,52.0958688 52.2397583,52.7805684 C51.6245673,53.465268 50.5707978,53.5216159 49.8860982,52.906425 C47.6300911,50.8794408 44.4718268,49.8472584 40.3333333,49.8472584 C36.1948399,49.8472584 33.0365756,50.8794408 30.7805684,52.906425 Z" id="Line" fill="#782200"></path>
        </g>
    </g>
</svg>