<?xml version="1.0" encoding="UTF-8"?>
<svg width="120px" height="120px" viewBox="0 0 120 120" version="1.1" xmlns="http://www.w3.org/2000/svg" xmlns:xlink="http://www.w3.org/1999/xlink">
    <!-- Generator: Sketch 48.2 (47327) - http://www.bohemiancoding.com/sketch -->
    <title>Icon/Team</title>
    <desc>Created with Sketch.</desc>
    <defs></defs>
    <g id="Icons-for-Github" stroke="none" stroke-width="1" fill="none" fill-rule="evenodd">
        <g id="Icon/Team" fill="#000000">
            <path d="M42.6608848,63.5095041 C39.2772948,64.3372725 36.2355639,64.4009059 34.7109761,64.4009059 C30.1183476,64.4009059 27.6633893,52.870227 27.6633893,43.5200581 C27.6633893,43.0104088 27.6830311,42.5060191 27.721694,42.0078301 C26.2271427,32.9865028 33.7705443,26 43.1464981,26 C52.5353389,26 59.9254866,28.2382464 59.9254866,39.9769445 C59.9254866,58.3028616 62.9759203,58.08997 58.3832919,58.08997 C57.6633201,58.08997 56.453094,57.9178012 54.9181568,57.5926188 C54.997616,61.4642617 55.2294846,64.5087526 55.8691099,66.8266448 C56.7106092,66.7389587 57.5523492,66.7586382 58.3949166,66.9272778 C60.8258508,67.4138286 68.1241368,69.3261265 70.0043352,71.0529961 C72.6716419,73.5027859 73.907128,80.360098 73.7107933,91.6249325 C73.6917814,92.7157495 72.8020792,93.5900803 71.7110964,93.5900803 L19.0003767,93.5900798 C18.8712043,93.5900798 18.7423356,93.5775657 18.6155766,93.5527129 C17.5316457,93.3401937 16.825227,92.2892132 17.0377436,91.2052818 C18.9231834,81.5888027 21.624475,75.5978211 25.1416183,73.2323371 C29.3911219,70.3742981 35.6650476,68.2752772 41.8841336,67.9285418 C42.2271358,66.4712798 42.5262707,64.9814141 42.6608848,63.5095041 Z M93.1744637,49.3974276 C93.1765155,49.5183737 93.1775442,49.639843 93.1775442,49.7618233 C93.1775442,57.8868182 90.7581311,68.5131207 87.1516156,69.349013 C85.3492344,69.766756 83.6389483,69.8120499 81.8787664,69.4919912 C82.0051442,70.2321147 82.1642423,70.9712373 82.3359985,71.7009519 C87.7401835,72.0022538 93.1920223,73.8262351 96.8847038,76.3097788 C99.9017553,78.3389219 102.227942,83.4381421 103.863265,91.6074395 C104.080065,92.6905185 103.377816,93.7442846 102.294739,93.961094 C102.165485,93.9869679 102.033989,94 101.902171,94 L76.360744,94.0000019 C76.7411793,93.3096049 76.963364,92.5192055 76.9780391,91.6772115 C77.1894881,79.5451791 75.8483014,72.101197 72.3013515,68.8434982 C71.9065942,68.4809331 71.3691548,68.1171649 70.7248676,67.7590802 C70.9790728,65.5004447 71.035226,62.7282037 71.0424891,59.3836188 C70.7592411,58.193041 70.5378384,56.8852953 70.3697251,55.4595415 C68.6690747,56.3298983 67.9182069,56.3138893 67.9182069,46.2145839 C67.9182069,37.0365179 74.5139106,35 81.8547076,35 C89.1955047,35 95.0995536,40.4775216 93.9099492,47.5450399 C93.7952617,48.2264056 93.5419045,48.8417348 93.1744637,49.3974276 Z"></path>
        </g>
    </g>
</svg>