<?xml version="1.0" encoding="UTF-8"?>
<svg width="49px" height="49px" viewBox="0 0 49 49" version="1.1" xmlns="http://www.w3.org/2000/svg" xmlns:xlink="http://www.w3.org/1999/xlink">
    <g id="Icons" stroke="none" stroke-width="1" fill="none" fill-rule="evenodd" transform="translate(-761.000000, -1451.000000)">
        <g id="Icon/Thumbs-up/White" transform="translate(745.000000, 1437.000000)" fill="#FFFFFF">
            <path d="M62.875,32.2291733 C62.31944,31.5694467 61.6597267,30.9878533 60.8958333,30.48438 C60.13194,29.9809067 59.3159733,29.6770867 58.44792,29.57292 C58.20486,29.57292 58.0138867,29.57292 57.875,29.57292 C57.7361133,29.57292 57.54514,29.57292 57.30208,29.57292 L47.0937467,29.57292 L47.0937467,22.9062533 C47.0937467,20.44096 46.2257,18.3402867 44.4895867,16.6041733 C42.7534667,14.8680533 40.6527933,14 38.1875,14 C37.7708333,14 37.3628467,14.1128467 36.96354,14.3385467 C36.5642333,14.56424 36.3125,14.90278 36.2083333,15.3541733 L27.9791667,34 L22.6666667,34 C20.7569347,34 19.1684093,34.64236 17.9010413,35.9270867 C16.6336742,37.2118133 16,38.79166 16,40.6666667 L16,56.2395867 C16,58.114596 16.6336742,59.6944413 17.9010413,60.97917 C19.1684093,62.2638987 20.7569347,62.9062533 22.6666667,62.9062533 L54.4375,62.9062533 C54.4375,62.9062533 54.4375,62.9062533 54.4375,62.9062533 C54.4375,62.9062533 54.4375,62.9062533 54.4375,62.9062533 C56.1041733,62.9062533 57.5451333,62.3680643 58.7604133,61.29167 C59.9757,60.215276 60.75694,58.8958447 61.1041667,57.3333367 L64.2291667,37.3333333 C64.3333333,36.4305533 64.2725733,35.5451467 64.0468733,34.6770867 C63.82118,33.8090267 63.43056,32.99306 62.875,32.2291733 Z M27.0937467,58.4270867 L22.6666667,58.4270867 C21.9722187,58.4270867 21.4253493,58.227436 21.0260413,57.828128 C20.626734,57.4288207 20.4270833,56.899312 20.4270833,56.2395867 L20.4270833,40.6666667 C20.4270833,40.0069467 20.626734,39.4687533 21.0260413,39.0520867 C21.4253493,38.63542 21.9722187,38.4270867 22.6666667,38.4270867 L27.0937467,38.4270867 L27.0937467,58.4270867 Z M56.625,56.6562533 C56.5208333,57.2118113 56.2691,57.6458353 55.8697933,57.9583367 C55.4704867,58.270838 54.99306,58.4270867 54.4375,58.4270867 C54.4375,58.4270867 54.4375,58.4270867 54.4375,58.4270867 C54.4375,58.4270867 54.4375,58.4270867 54.4375,58.4270867 L31.5208333,58.4270867 L31.5208333,36.6562533 L39.5416667,18.6875067 C40.4444467,19.0000067 41.1909667,19.5295133 41.7812533,20.2760467 C42.3715333,21.0225733 42.6666667,21.8993067 42.6666667,22.9062533 L42.6666667,31.76042 C42.6666667,32.4548667 42.86632,33.00174 43.2656267,33.4010467 C43.6649333,33.8003533 44.19444,34 44.8541667,34 L57.5625,34 C57.6666667,34 57.7361133,34 57.7708333,34 C57.8055533,34 57.875,34 57.9791667,34 C58.3263933,34 58.6215267,34.0954867 58.8645867,34.28646 C59.10764,34.4774333 59.3333333,34.6770867 59.5416667,34.88542 C59.75,35.0937533 59.8715267,35.3541667 59.9062533,35.6666667 C59.9409733,35.9791733 59.9583333,36.2395867 59.9583333,36.44792 L56.625,56.6562533 Z"></path>
        </g>
    </g>
</svg>