<?xml version="1.0" encoding="UTF-8"?>
<svg width="120px" height="120px" viewBox="0 0 120 120" version="1.1" xmlns="http://www.w3.org/2000/svg" xmlns:xlink="http://www.w3.org/1999/xlink">
    <!-- Generator: Sketch 48.2 (47327) - http://www.bohemiancoding.com/sketch -->
    <title>Icon/Sound off</title>
    <desc>Created with Sketch.</desc>
    <defs>
        <path d="M57.28571,54.8147951 L39.2422175,72.8582876 L37.55357,71.16964 L25.857143,71.16964 C25.083329,71.16964 24.413693,70.8869 23.8482143,70.32143 C23.2827353,69.75595 23,69.08631 23,68.3125 L23,51.16964 C23,50.39583 23.2827353,49.72619 23.8482143,49.16071 C24.413693,48.59523 25.083329,48.3125 25.857143,48.3125 L37.55357,48.3125 L52.41964,33.44643 C52.98512,32.88095 53.65476,32.59821 54.42857,32.59821 C55.20238,32.59821 55.87202,32.88095 56.4375,33.44643 C57.00298,34.0119 57.28571,34.68154 57.28571,35.45535 L57.28571,54.8147951 Z M57.28571,74.6137849 L57.28571,84.026783 C57.28571,84.800596 57.00298,85.470232 56.4375,86.035711 C55.87202,86.60119 55.20238,86.883926 54.42857,86.883926 C53.65476,86.883926 52.98512,86.60119 52.41964,86.035711 L49.1417121,82.7577829 L57.28571,74.6137849 Z M63.6120819,68.287413 L74.2420645,57.6574304 C74.3664018,58.3373466 74.42857,59.0318923 74.42857,59.74107 C74.42857,62.00298 73.79614,64.10862 72.53125,66.05803 C71.26636,68.00745 69.59227,69.3988 67.50893,70.23214 C67.21131,70.38095 66.83929,70.45535 66.39286,70.45535 C65.61904,70.45535 64.94941,70.18006 64.38393,69.62946 C63.9881297,69.2440747 63.730847,68.7967303 63.6120819,68.287413 Z M78.8035825,53.0959125 L83.0790089,48.820486 C84.9311026,52.2046622 85.85714,55.8448255 85.85714,59.74107 C85.85714,64.29466 84.59227,68.49849 82.0625,72.35268 C79.53273,76.20686 76.18454,79.01189 72.01786,80.76785 C71.63095,80.91666 71.25893,80.99107 70.90179,80.99107 C70.09821,80.99107 69.41369,80.70833 68.84821,80.14285 C68.28274,79.57738 68,78.90774 68,78.13393 C68,76.97321 68.58035,76.09524 69.74107,75.5 C71.40775,74.6369 72.53869,73.98214 73.13393,73.53571 C75.33632,71.92856 77.05505,69.91221 78.29018,67.4866 C79.5253,65.061 80.14286,62.47918 80.14286,59.74107 C80.14286,57.4130539 79.6964342,55.1980178 78.8035825,53.0959125 Z M68.7907878,43.3097173 C68.2635939,42.784302 68,42.1304682 68,41.34821 C68,40.5744 68.28274,39.90476 68.84821,39.33928 C69.41369,38.7738 70.08333,38.49107 70.85714,38.49107 C71.24405,38.49107 71.63095,38.56547 72.01786,38.71428 C72.3377931,38.8491091 72.6529006,38.9901233 72.9631825,39.1373226 L68.7907878,43.3097173 Z M87.2569997,44.6424952 L91.3773739,40.5221211 C91.4574854,40.640574 91.5370508,40.7596869 91.61607,40.87946 C95.39585,46.60866 97.28571,52.8958 97.28571,59.74107 C97.28571,66.58634 95.39585,72.87348 91.61607,78.60268 C87.83629,84.331871 82.80658,88.550579 76.52679,91.2589257 C76.13988,91.407736 75.75298,91.48214 75.36607,91.48214 C74.59226,91.48214 73.92262,91.1994047 73.35714,90.6339257 C72.79166,90.068447 72.50893,89.398811 72.50893,88.624997 C72.50893,87.553563 73.08928,86.675596 74.25,85.991069 C74.45833,85.87202 74.79315,85.715772 75.25446,85.522319 C75.71578,85.328865 76.05059,85.172617 76.25893,85.053569 C77.62798,84.309517 78.84821,83.550596 79.91964,82.776783 C83.58038,80.06844 86.43749,76.69049 88.49107,72.64285 C90.54465,68.59521 91.57143,64.29466 91.57143,59.74107 C91.57143,55.18747 90.54465,50.88692 88.49107,46.83928 C88.1077149,46.0836809 87.6963584,45.3514195 87.2569997,44.6424952 Z M77.1648804,34.9356247 C76.8705071,34.7658459 76.5685238,34.5968277 76.25893,34.42857 C76.05059,34.30952 75.71578,34.15327 75.25446,33.95982 C74.79315,33.76637 74.45833,33.61012 74.25,33.49107 C73.08928,32.80654 72.50893,31.92857 72.50893,30.85714 C72.50893,30.08333 72.79166,29.41369 73.35714,28.84821 C73.92262,28.28273 74.59226,28 75.36607,28 C75.75298,28 76.13988,28.0744 76.52679,28.22321 C78.2253562,28.9557682 79.8324664,29.7988246 81.3481234,30.7523816 L77.1648804,34.9356247 Z M93.3786797,24.3786797 C94.5502525,23.2071068 96.4497475,23.2071068 97.6213203,24.3786797 C98.7928932,25.5502525 98.7928932,27.4497475 97.6213203,28.6213203 L27.6141779,98.6284628 C26.442605,99.8000357 24.54311,99.8000357 23.3715372,98.6284628 C22.1999643,97.45689 22.1999643,95.557395 23.3715372,94.3858221 L93.3786797,24.3786797 Z" id="path-1"></path>
    </defs>
    <g id="Icons" stroke="none" stroke-width="1" fill="none" fill-rule="evenodd">
        <g id="Icon/Sound-off">
            <mask id="mask-2" fill="white">
                <use xlink:href="#path-1"></use>
            </mask>
            <use id="Icon/Speaker-off" fill="#FFFFFF" xlink:href="#path-1"></use>
            <g id="Color-alias/Icons/Icon-Light" mask="url(#mask-2)" fill="#FFFFFF">
                <g id="Color/White">
                    <rect id="Sample" x="0" y="0" width="120" height="120"></rect>
                </g>
            </g>
        </g>
    </g>
</svg>