<?xml version="1.0" encoding="UTF-8"?>
<svg width="120px" height="120px" viewBox="0 0 120 120" version="1.1" xmlns="http://www.w3.org/2000/svg" xmlns:xlink="http://www.w3.org/1999/xlink">
    <!-- Generator: Sketch 48.2 (47327) - http://www.bohemiancoding.com/sketch -->
    <title>icon-three-dots</title>
    <desc>Created with Sketch.</desc>
    <defs></defs>
    <g id="Icons-for-Github" stroke="none" stroke-width="1" fill="none" fill-rule="evenodd">
        <g id="icon-three-dots" fill="#000000">
            <path d="M78.75,66.5 C77.08333,66.5 75.62501,65.87501 74.375,64.625 C73.12499,63.374994 72.5,61.916675 72.5,60.25 C72.5,58.583325 73.12499,57.125006 74.375,55.875 C75.62501,54.6249938 77.08333,54 78.75,54 C80.41667,54 81.87499,54.6249938 83.125,55.875 C84.37501,57.125006 85,58.583325 85,60.25 C85,61.916675 84.37501,63.374994 83.125,64.625 C81.87499,65.87501 80.41667,66.5 78.75,66.5 Z M41.25,66.5 C39.583325,66.5 38.125006,65.87501 36.875,64.625 C35.6249937,63.374994 35,61.916675 35,60.25 C35,58.583325 35.6249937,57.125006 36.875,55.875 C38.125006,54.6249938 39.583325,54 41.25,54 C42.916675,54 44.374994,54.6249938 45.625,55.875 C46.87501,57.125006 47.5,58.583325 47.5,60.25 C47.5,61.916675 46.87501,63.374994 45.625,64.625 C44.374994,65.87501 42.916675,66.5 41.25,66.5 Z M60,66.5 C58.33332,66.5 56.87501,65.87501 55.625,64.625 C54.37499,63.374994 53.75,61.916675 53.75,60.25 C53.75,58.583325 54.37499,57.125006 55.625,55.875 C56.87501,54.6249938 58.33332,54 60,54 C61.66668,54 63.12499,54.6249938 64.375,55.875 C65.62501,57.125006 66.25,58.583325 66.25,60.25 C66.25,61.916675 65.62501,63.374994 64.375,64.625 C63.12499,65.87501 61.66668,66.5 60,66.5 Z" id="icon-Three-dots"></path>
        </g>
    </g>
</svg>