<?xml version="1.0" encoding="UTF-8"?>
<svg width="51px" height="52px" viewBox="0 0 51 52" version="1.1" xmlns="http://www.w3.org/2000/svg" xmlns:xlink="http://www.w3.org/1999/xlink">
    <g id="Icons" stroke="none" stroke-width="1" fill="none" fill-rule="evenodd" transform="translate(-988.000000, -1040.000000)">
        <g id="Icon/Speaker-off/White" transform="translate(973.000000, 1025.000000)" fill="#FFFFFF">
            <path d="M38.1904733,36.5431967 L26.1614783,48.5721917 L25.0357133,47.4464267 L17.2380953,47.4464267 C16.7222193,47.4464267 16.2757953,47.2579333 15.8988095,46.8809533 C15.5218235,46.5039667 15.3333333,46.05754 15.3333333,45.5416667 L15.3333333,34.1130933 C15.3333333,33.59722 15.5218235,33.1507933 15.8988095,32.7738067 C16.2757953,32.39682 16.7222193,32.2083333 17.2380953,32.2083333 L25.0357133,32.2083333 L34.9464267,22.29762 C35.3234133,21.9206333 35.76984,21.73214 36.2857133,21.73214 C36.8015867,21.73214 37.2480133,21.9206333 37.625,22.29762 C38.0019867,22.6746 38.1904733,23.1210267 38.1904733,23.6369 L38.1904733,36.5431967 Z M38.1904733,49.7425233 L38.1904733,56.0178553 C38.1904733,56.5337307 38.0019867,56.9801547 37.625,57.3571407 C37.2480133,57.7341267 36.8015867,57.9226173 36.2857133,57.9226173 C35.76984,57.9226173 35.3234133,57.7341267 34.9464267,57.3571407 L32.7611414,55.1718552 L38.1904733,49.7425233 Z M42.4080546,45.524942 L49.4947097,38.4382869 C49.5776012,38.8915644 49.6190467,39.3545948 49.6190467,39.82738 C49.6190467,41.33532 49.1974267,42.73908 48.3541667,44.0386867 C47.5109067,45.3383 46.3948467,46.2658667 45.0059533,46.8214267 C44.80754,46.9206333 44.5595267,46.9702333 44.2619067,46.9702333 C43.7460267,46.9702333 43.2996067,46.7867067 42.92262,46.41964 C42.6587531,46.1627165 42.4872313,45.8644869 42.4080546,45.524942 Z M52.5357217,35.397275 L55.386006,32.5469907 C56.620735,34.8031081 57.2380933,37.2298837 57.2380933,39.82738 C57.2380933,42.8631067 56.3948467,45.66566 54.7083333,48.23512 C53.02182,50.8045733 50.7896933,52.6745933 48.0119067,53.8452333 C47.7539667,53.94444 47.5059533,53.9940467 47.26786,53.9940467 C46.73214,53.9940467 46.2757933,53.8055533 45.8988067,53.4285667 C45.5218267,53.0515867 45.3333333,52.60516 45.3333333,52.0892867 C45.3333333,51.3154733 45.7202333,50.73016 46.4940467,50.3333333 C47.6051667,49.7579333 48.3591267,49.3214267 48.7559533,49.0238067 C50.2242133,47.9523733 51.3700333,46.60814 52.1934533,44.9910667 C53.0168667,43.374 53.4285733,41.6527867 53.4285733,39.82738 C53.4285733,38.2753693 53.1309561,36.7986785 52.5357217,35.397275 Z M45.8605252,28.8731448 C45.5090626,28.522868 45.3333333,28.0869788 45.3333333,27.5654733 C45.3333333,27.0496 45.5218267,26.6031733 45.8988067,26.2261867 C46.2757933,25.8492 46.72222,25.6607133 47.2380933,25.6607133 C47.4960333,25.6607133 47.7539667,25.7103133 48.0119067,25.80952 C48.2251954,25.8994061 48.435267,25.9934155 48.6421216,26.0915484 L45.8605252,28.8731448 Z M58.1713331,29.7616635 L60.9182492,27.0147474 C60.9716569,27.093716 61.0247006,27.1731246 61.07738,27.2529733 C63.5972333,31.07244 64.85714,35.2638667 64.85714,39.82738 C64.85714,44.3908933 63.5972333,48.58232 61.07738,52.4017867 C58.5575267,56.2212473 55.2043867,59.0337193 51.01786,60.8392838 C50.75992,60.9384907 50.5019867,60.9880933 50.2440467,60.9880933 C49.7281733,60.9880933 49.2817467,60.7996031 48.90476,60.4226171 C48.5277733,60.0456313 48.3392867,59.5992073 48.3392867,59.0833313 C48.3392867,58.369042 48.7261867,57.7837307 49.5,57.3273793 C49.6388867,57.2480133 49.8621,57.143848 50.16964,57.0148793 C50.4771867,56.88591 50.7003933,56.7817447 50.8392867,56.7023793 C51.7519867,56.2063447 52.5654733,55.7003973 53.27976,55.184522 C55.7202533,53.37896 57.6249933,51.1269933 58.9940467,48.4285667 C60.3631,45.73014 61.04762,42.8631067 61.04762,39.82738 C61.04762,36.7916467 60.3631,33.9246133 58.9940467,31.2261867 C58.7384766,30.7224539 58.4642389,30.2342797 58.1713331,29.7616635 Z M51.4432536,23.2904165 C51.2470048,23.1772306 51.0456825,23.0645518 50.8392867,22.95238 C50.7003933,22.8730133 50.4771867,22.7688467 50.16964,22.63988 C49.8621,22.5109133 49.6388867,22.4067467 49.5,22.32738 C48.7261867,21.8710267 48.3392867,21.2857133 48.3392867,20.5714267 C48.3392867,20.0555533 48.5277733,19.6091267 48.90476,19.23214 C49.2817467,18.8551533 49.7281733,18.6666667 50.2440467,18.6666667 C50.5019867,18.6666667 50.75992,18.7162667 51.01786,18.8154733 C52.1502375,19.3038455 53.2216442,19.8658831 54.2320823,20.5015878 L51.4432536,23.2904165 Z M62.2524531,16.2524531 C63.0335017,15.4714045 64.2998316,15.4714045 65.0808802,16.2524531 C65.8619288,17.0335017 65.8619288,18.2998316 65.0808802,19.0808802 L18.4094519,65.7523086 C17.6284033,66.5333571 16.3620734,66.5333571 15.5810248,65.7523086 C14.7999762,64.97126 14.7999762,63.70493 15.5810248,62.9238814 L62.2524531,16.2524531 Z"></path>
        </g>
    </g>
</svg>