<?xml version="1.0" encoding="UTF-8"?>
<svg width="47px" height="43px" viewBox="0 0 47 43" version="1.1" xmlns="http://www.w3.org/2000/svg" xmlns:xlink="http://www.w3.org/1999/xlink">
    <g id="Icons" stroke="none" stroke-width="1" fill="none" fill-rule="evenodd" transform="translate(-762.000000, -1044.000000)">
        <g id="Icon/Sliders/White" transform="translate(745.000000, 1025.000000)" fill="#FFFFFF">
            <path d="M26.4761933,53.6190467 L26.4761933,57.4285693 L19.2380947,57.4285693 C18.186124,57.4285693 17.3333333,56.5757786 17.3333333,55.523808 L17.3333333,55.523808 C17.3333333,54.4718374 18.186124,53.6190467 19.2380947,53.6190467 L26.4761933,53.6190467 Z M38.2857133,49.80952 C38.8015867,49.80952 39.2480133,49.9980133 39.625,50.375 C40.0019867,50.7519867 40.1904733,51.1984067 40.1904733,51.7142867 L40.1904733,59.3333313 C40.1904733,59.8492073 40.0019867,60.2956313 39.625,60.6726171 C39.2480133,61.0496031 38.8015867,61.2380933 38.2857133,61.2380933 L30.6666667,61.2380933 C30.1507933,61.2380933 29.7043667,61.0496031 29.32738,60.6726171 C28.9503933,60.2956313 28.7619067,59.8492073 28.7619067,59.3333313 L28.7619067,51.7142867 C28.7619067,51.1984067 28.9503933,50.7519867 29.32738,50.375 C29.7043667,49.9980133 30.1507933,49.80952 30.6666667,49.80952 L38.2857133,49.80952 Z M41.7142867,38.3809533 L41.7142867,42.1904733 L19.2380933,42.1904733 C18.1861234,42.1904733 17.3333333,41.3376832 17.3333333,40.2857133 L17.3333333,40.2857133 C17.3333333,39.2337434 18.1861234,38.3809533 19.2380933,38.3809533 L41.7142867,38.3809533 Z M22.6666667,23.1428533 L22.6666667,26.95238 L19.2380967,26.95238 C18.1861249,26.95238 17.3333333,26.0995884 17.3333333,25.0476167 L17.3333333,25.0476167 C17.3333333,23.9956449 18.1861249,23.1428533 19.2380967,23.1428533 L22.6666667,23.1428533 Z M63.04762,55.523808 L63.04762,55.523808 C63.04762,56.5757786 62.1948293,57.4285693 61.1428587,57.4285693 L42.4761933,57.4285693 L42.4761933,53.6190467 L61.1428587,53.6190467 C62.1948293,53.6190467 63.04762,54.4718374 63.04762,55.523808 Z M34.4761933,19.3333333 C34.9920667,19.3333333 35.4384933,19.52182 35.8154733,19.8988067 C36.19246,20.2757933 36.3809533,20.72222 36.3809533,21.2380933 L36.3809533,28.85714 C36.3809533,29.3730133 36.19246,29.81944 35.8154733,30.1964267 C35.4384933,30.5734133 34.9920667,30.7619 34.4761933,30.7619 L26.85714,30.7619 C26.3412667,30.7619 25.89484,30.5734133 25.51786,30.1964267 C25.1408733,29.81944 24.95238,29.3730133 24.95238,28.85714 L24.95238,21.2380933 C24.95238,20.72222 25.1408733,20.2757933 25.51786,19.8988067 C25.89484,19.52182 26.3412667,19.3333333 26.85714,19.3333333 L34.4761933,19.3333333 Z M53.5238067,34.5714267 C54.0396867,34.5714267 54.4861067,34.75992 54.8630933,35.1369 C55.24008,35.5138867 55.4285733,35.9603133 55.4285733,36.4761867 L55.4285733,44.0952333 C55.4285733,44.6111133 55.24008,45.0575333 54.8630933,45.43452 C54.4861067,45.8115067 54.0396867,46 53.5238067,46 L45.90476,46 C45.3888867,46 44.94246,45.8115067 44.5654733,45.43452 C44.1884933,45.0575333 44,44.6111133 44,44.0952333 L44,36.4761867 C44,35.9603133 44.1884933,35.5138867 44.5654733,35.1369 C44.94246,34.75992 45.3888867,34.5714267 45.90476,34.5714267 L53.5238067,34.5714267 Z M63.04762,40.2857133 L63.04762,40.2857133 C63.04762,41.3376832 62.1948299,42.1904733 61.14286,42.1904733 L57.7142867,42.1904733 L57.7142867,38.3809533 L61.14286,38.3809533 C62.1948299,38.3809533 63.04762,39.2337434 63.04762,40.2857133 Z M63.04762,25.0476167 L63.04762,25.0476167 C63.04762,26.0995884 62.1948284,26.95238 61.1428567,26.95238 L38.6666667,26.95238 L38.6666667,23.1428533 L61.1428567,23.1428533 C62.1948284,23.1428533 63.04762,23.9956449 63.04762,25.0476167 Z"></path>
        </g>
    </g>
</svg>