<?xml version="1.0" encoding="UTF-8"?>
<svg width="120px" height="120px" viewBox="0 0 120 120" version="1.1" xmlns="http://www.w3.org/2000/svg" xmlns:xlink="http://www.w3.org/1999/xlink">
    <!-- Generator: Sketch 48.2 (47327) - http://www.bohemiancoding.com/sketch -->
    <title>Icon/Dongle group offline</title>
    <desc>Created with Sketch.</desc>
    <defs></defs>
    <g id="Icons-for-Github" stroke="none" stroke-width="1" fill="none" fill-rule="evenodd">
        <g id="Icon/Dongle-group-offline" fill="#000000">
            <path d="M77.1645638,34.9359413 L50.2904156,61.8100895 C47.5754865,62.6305644 45.4481524,64.7738797 44.6135265,67.4869786 L39,73.1005051 L39,68.703715 C39,65.7159313 39.5769507,62.7567449 40.6986324,59.9914107 L41.4444444,58.1527256 C43.0586187,54.1732268 43.8888889,49.9147617 43.8888889,45.6151432 L43.8888889,36.2574257 C43.8888889,32.6265636 46.807329,29.6831683 50.4074074,29.6831683 L52.8518519,29.6831683 L52.8518519,19 L69.1481481,19 L69.1481481,29.6831683 L70.7777778,29.6831683 C73.9290582,29.6831683 76.5580577,31.9384395 77.1645638,34.9359413 Z M78.4053391,53.4941559 C78.8537346,55.0891453 79.4359677,56.6477786 80.1481481,58.1527256 L80.7751229,59.47762 C82.239839,62.5727908 83,65.959041 83,69.3886651 L83,88.029703 C83,95.745285 76.7983147,102 69.1481481,102 L52.8518519,102 C46.6618771,102 41.4202091,97.9050981 39.6447592,92.2547358 L44.2067779,87.6927171 C44.2180904,87.9304976 44.2298669,88.1682782 44.2421077,88.4060588 C44.4590199,92.6196569 47.6713071,96.0503558 51.8220376,96.5013685 C54.8813584,96.8337895 57.9406792,97 61,97 C64.0593203,97 67.1186407,96.8337896 70.177961,96.5013687 C74.3286909,96.050357 77.5409776,92.6196587 77.7578922,88.4060614 C77.9192974,85.2707076 78,82.1353538 78,79 C78,75.8646471 77.9192974,72.7292942 77.7578923,69.5939412 C77.544458,65.447901 74.4309301,62.0598563 70.37688,61.522614 L78.4053391,53.4941559 Z M67.4074865,64.4920084 C68.1595954,64.561025 68.9117043,64.6421933 69.6638133,64.7355134 C72.4315993,65.0789341 74.5473568,67.3904379 74.6659084,70.2003937 C74.7898707,73.1385963 74.8518519,76.0767989 74.8518519,79.0150015 C74.8518519,81.9532033 74.7898707,84.8914051 74.6659085,87.8296069 C74.5473591,90.6395639 72.4316009,92.9510685 69.6638138,93.2944896 C66.7758759,93.6528187 63.8879379,93.8319832 61,93.8319832 C58.1120622,93.8319832 55.2241245,93.6528187 52.3361867,93.2944896 C49.5684007,92.9510689 47.4526432,90.6395651 47.3340916,87.8296093 C47.2897231,86.7779688 47.2532947,85.7263283 47.2248065,84.6746879 L54.7526278,77.1468671 L55.3554693,77.9801941 C55.4675057,78.1344151 55.6839788,78.169067 55.8389754,78.0575912 L56.3985426,77.6551424 C57.6447633,76.7588424 59.3132539,76.7112328 60.6088426,77.5350035 L61.0912021,77.8417008 C63.1030652,79.1208983 65.6939912,79.0469674 67.6291929,77.6551424 L68.1898812,77.2518872 C68.3446589,77.1405688 68.379641,76.9255839 68.2680721,76.7713586 L67.4593455,75.6534301 C67.3473091,75.4992091 67.1308361,75.4645572 66.9758394,75.5760331 L66.4162722,75.9784819 C65.1700515,76.8747819 63.5015609,76.9223915 62.2059722,76.0986208 L61.7236127,75.7919235 C60.2038402,74.8256106 58.3536325,74.6314435 56.7052607,75.1942342 L67.4074865,64.4920084 Z M80.8082062,51.0912887 L94.7043352,37.1951597 C95.6723665,38.1541492 96.2702703,39.4738692 96.2702703,40.9306931 L96.2702703,48.3501782 C96.2702703,51.8988365 97.0782601,55.4026154 98.6351351,58.6052122 L99.1550467,59.6747053 C100.369645,62.1732167 101,64.9066957 101,67.6751875 L101,82.7227723 C101,88.9510132 95.8573248,94 89.5135135,94 L84.9938823,94 C85.3940314,92.9397936 85.690154,91.8300128 85.8700807,90.6826051 C87.5073874,90.6155619 89.1446942,90.4956315 90.7820009,90.3228138 C94.4114149,89.9397291 97.2202507,87.0257293 97.4099216,83.4467432 C97.551055,80.7836059 97.6216216,78.1204687 97.6216216,75.4573314 C97.6216216,72.794195 97.551055,70.1310585 97.4099218,67.467922 C97.2202529,63.8889351 94.4114167,60.9749348 90.7820021,60.5918493 C88.615592,60.3631846 86.4491819,60.2271118 84.2827719,60.1836308 C84.041025,59.5707999 83.7753232,58.9661017 83.4859833,58.37091 L82.8479101,57.0583504 C81.921195,55.1520349 81.2377996,53.1478626 80.8082062,51.0912887 Z M79.3778274,32.7226776 C78.6330678,31.1181861 77.4591077,29.746187 76,28.748109 L76,27 L85.1005051,27 L79.3778274,32.7226776 Z M22.4345492,89.6659559 C20.9091808,87.7518137 20,85.341534 20,82.7227723 L20,67.122276 C20,64.7104506 20.4784296,62.3217097 21.4085711,60.089452 L22.027027,58.6052122 C23.3655622,55.3928457 24.0540541,51.9552896 24.0540541,48.4845132 L24.0540541,40.9306931 C24.0540541,37.9997562 26.4741365,35.6237624 29.4594595,35.6237624 L31.4864865,35.6237624 L31.4864865,27 L45,27 L45,28.748109 C42.4195655,30.5132117 40.7309582,33.4477891 40.7309582,36.769577 L40.7309582,46.0401744 C40.7309582,49.8769111 39.9698714,53.6769248 38.4902005,57.2280047 L37.7311864,59.0495718 C37.5762218,59.4214732 37.4301963,59.7964714 37.2931728,60.1742527 C34.9347816,60.2037221 32.5763903,60.3429209 30.2179991,60.5918491 C26.5885851,60.9749338 23.7797493,63.8889336 23.5900784,67.4679197 C23.448945,70.131057 23.3783784,72.7941942 23.3783784,75.4573314 C23.3783784,78.1204679 23.448945,80.7836044 23.5900782,83.4467409 C23.6637826,84.837517 24.1329969,86.1278761 24.8921798,87.2083253 L22.4345492,89.6659559 Z M35.8466656,76.2538395 L35.7680057,76.3324994 C34.952745,76.4261379 34.1576091,76.7174419 33.4623716,77.2041953 L32.9873658,77.5367588 C32.8562407,77.6285629 32.8266045,77.8058603 32.9211237,77.9330496 L33.4524629,78.6480421 L27.3672284,84.7332767 C27.0392774,84.1257029 26.8421189,83.4407134 26.8106863,82.7154607 C26.7056675,80.2923321 26.6531581,77.8692036 26.6531581,75.446075 C26.6531581,73.0229471 26.7056675,70.5998192 26.8106862,68.1766913 C26.9111193,65.8593266 28.7035543,63.9530343 31.0483772,63.6698158 C32.8439066,63.4529435 34.6394361,63.3156507 36.4349655,63.2579375 C36.0447475,65.0668314 35.8466656,66.9149706 35.8466656,68.7726673 L35.8466656,72.0617535 C35.0039548,72.1452859 34.179952,72.4394684 33.4623716,72.9418647 L32.9873658,73.2744282 C32.8562407,73.3662322 32.8266045,73.5435297 32.9211237,73.6707189 L33.6062634,74.5926719 C33.7011788,74.7198576 33.8845711,74.7484349 34.0158817,74.6565011 L34.4899376,74.3246025 C34.9011746,74.0366851 35.3666874,73.8549577 35.8466656,73.7805261 L35.8466656,76.2538395 Z M56.3985426,82.8234983 C57.6447633,81.9271983 59.3132539,81.8795887 60.6088426,82.7033594 L61.0912021,83.0100567 C63.1030652,84.2892542 65.6939912,84.2153234 67.6291929,82.8234983 L68.1898812,82.4202431 C68.3446589,82.3089247 68.379641,82.0939399 68.2680721,81.9397146 L67.4593455,80.8217861 C67.3473091,80.6675651 67.1308361,80.6329132 66.9758394,80.744389 L66.4162722,81.1468378 C65.1700515,82.0431378 63.5015609,82.0907474 62.2059722,81.2669767 L61.7236127,80.9602794 C59.7117497,79.6810819 57.1208236,79.7550128 55.185622,81.1468378 L54.6249336,81.550093 C54.4701559,81.6614114 54.4351738,81.8763962 54.5467427,82.0306216 L55.3554693,83.14855 C55.4675057,83.3027711 55.6839788,83.3374229 55.8389754,83.2259471 L56.3985426,82.8234983 Z M85.2467611,63.2707976 C86.8126529,63.339017 88.3785448,63.4676945 89.9444367,63.6568301 C92.2918802,63.940365 94.0863185,65.8487878 94.1868657,68.1687423 C94.2920019,70.5945799 94.34457,73.0204175 94.34457,75.4462551 C94.34457,77.872092 94.292002,80.297929 94.1868658,82.7237659 C94.0863205,85.0437214 92.2918816,86.9521449 89.9444371,87.2356801 C88.6259297,87.3949354 87.3074222,87.5113265 85.9889148,87.5848532 L85.9889148,79.4536846 C86.7776331,79.350681 87.545078,79.0623237 88.2188132,78.5906246 L88.69435,78.2576893 C88.8256218,78.1657826 88.8552911,77.9882869 88.7606662,77.8609555 L88.0747605,76.9379718 C87.979739,76.8106439 87.7961416,76.7820347 87.6646843,76.8740713 L87.1900983,77.2063409 C86.8234206,77.4630612 86.4136401,77.6354514 85.9889148,77.7227292 L85.9889148,75.1865887 C86.7776331,75.0835851 87.545078,74.7952278 88.2188132,74.3235288 L88.69435,73.9905934 C88.8256218,73.8986868 88.8552911,73.7211911 88.7606662,73.5938596 L88.0747605,72.670876 C87.979739,72.5435481 87.7961416,72.5149388 87.6646843,72.6069754 L87.1900983,72.9392451 C86.8234206,73.1959654 86.4136401,73.3683555 85.9889148,73.4556333 L85.9889148,69.4594194 C85.9889148,67.3686767 85.7383134,65.2918536 85.2467611,63.2707976 Z M93.3786797,24.3786797 C94.5502525,23.2071068 96.4497475,23.2071068 97.6213203,24.3786797 C98.7928932,25.5502525 98.7928932,27.4497475 97.6213203,28.6213203 L27.6141779,98.6284628 C26.442605,99.8000357 24.54311,99.8000357 23.3715372,98.6284628 C22.1999643,97.45689 22.1999643,95.557395 23.3715372,94.3858221 L93.3786797,24.3786797 Z"></path>
        </g>
    </g>
</svg>