<?xml version="1.0" encoding="UTF-8"?>
<svg width="120px" height="120px" viewBox="0 0 120 120" version="1.1" xmlns="http://www.w3.org/2000/svg" xmlns:xlink="http://www.w3.org/1999/xlink">
    <!-- Generator: Sketch 48.2 (47327) - http://www.bohemiancoding.com/sketch -->
    <title>Icon/Checkmark-circle</title>
    <desc>Created with Sketch.</desc>
    <defs></defs>
    <g id="Icons-for-Github" stroke="none" stroke-width="1" fill="none" fill-rule="evenodd">
        <g id="Icon/Checkmark-circle" fill="#000000">
            <path d="M60,105 C35.1471863,105 15,84.8528137 15,60 C15,35.1471863 35.1471863,15 60,15 C84.8528137,15 105,35.1471863 105,60 C105,84.8528137 84.8528137,105 60,105 Z M55.6372036,67.3674123 L44.3826125,56.0954512 C43.9246996,55.6365358 43.1822761,55.6365358 42.7243633,56.0954512 L38.3434347,60.4932419 C37.8855218,60.9521574 37.8855218,61.6962063 38.3434347,62.1551217 L54.808079,78.6558134 C55.2659918,79.1147289 56.0084153,79.1147289 56.4663282,78.6558134 L84.6565653,50.4038571 C85.1144782,49.9449416 85.1144782,49.2008927 84.6565653,48.7419773 L80.2756367,44.3441866 C79.8177239,43.8852711 79.0753004,43.8852711 78.6173875,44.3441866 L55.6372036,67.3674123 Z"></path>
        </g>
    </g>
</svg>