<?xml version="1.0" encoding="UTF-8"?>
<svg width="120px" height="120px" viewBox="0 0 120 120" version="1.1" xmlns="http://www.w3.org/2000/svg" xmlns:xlink="http://www.w3.org/1999/xlink">
    <!-- Generator: Sketch 48.2 (47327) - http://www.bohemiancoding.com/sketch -->
    <title>Icon/Update avaiable multi color</title>
    <desc>Created with Sketch.</desc>
    <defs></defs>
    <g id="Icons-for-Github" stroke="none" stroke-width="1" fill="none" fill-rule="evenodd">
        <g id="Icon/Update-avaiable-multi-color">
            <circle id="Base-Circle" fill="#3EB85D" cx="60" cy="60" r="45"></circle>
            <path d="M83.8550107,41.682682 L64.1663113,31.7547584 C64.1663113,31.7547584 64.1663113,31.7547584 64.1663113,31.7547584 C64.1663113,31.7547584 64.1663113,31.7547584 64.1663113,31.7547584 C63.2068181,31.2515837 62.1417953,31 60.9712135,31 C59.8006317,31 58.6588548,31.2515837 57.5458385,31.7547584 L37.9147122,41.682682 C36.686561,42.3019729 35.7270826,43.1825157 35.0362473,44.3243253 C34.3454123,45.4661424 34,46.733729 34,48.1271297 L34,71.640638 C34,72.9953359 34.3550071,74.2919497 35.0650316,75.5305314 C35.7750569,76.7691057 36.8016989,77.6980271 38.1449893,78.317318 L57.8336887,88.2452453 C58.2942431,88.4774787 58.8123631,88.6613273 59.388056,88.7967968 C59.9637563,88.9322663 60.5010649,89 60.9999963,89 C61.6140737,89 62.180165,88.9322663 62.6982924,88.7967968 C63.2164198,88.6613273 63.7057569,88.4774787 64.1663113,88.2452453 L83.8550107,78.317318 C85.0831581,77.6980271 86.081021,76.7981403 86.8486141,75.6176203 C87.6162071,74.4371004 88,73.111452 88,71.640638 L88,48.1271297 C88,46.733729 87.64499,45.4661424 86.9349699,44.3243253 C86.2249424,43.1825157 85.1983041,42.3019729 83.8550107,41.682682 Z M60.021322,35.9349383 C60.1364606,35.8188222 60.2995705,35.7510847 60.5106591,35.7317333 C60.7217478,35.7123818 60.8848577,35.7027061 60.9999963,35.7027061 C61.2302809,35.7027061 61.4221736,35.7123818 61.5756966,35.7317333 C61.7292123,35.7510847 61.8635394,35.8188222 61.978678,35.9349383 L80.1705757,45.1081109 L73.2622601,48.5915942 L54.1492537,38.9539572 L60.021322,35.9349383 Z M60.9999963,54.8038097 L41.8294243,45.1081109 L48.7377399,41.682682 L67.8507463,51.3203264 L60.9999963,54.8038097 Z M40.1023454,74.1371381 C39.7569282,73.8661955 39.4690846,73.5178547 39.238806,73.0920931 C39.0085273,72.6663316 38.8933902,72.2599289 38.8933902,71.8728703 L38.8933902,49.114113 L58.5245203,58.9839896 L58.5245203,83.2522526 L40.1023454,74.1371381 Z M81.6098118,74.1371381 L63.4754797,83.2522526 L63.4754797,58.9839896 L83.1066061,49.114113 L83.1066061,71.8728703 C83.1066061,72.376045 82.9818806,72.8114748 82.7324075,73.1791821 C82.4829418,73.5468818 82.1087432,73.8661955 81.6098118,74.1371381 Z" fill="#174E25"></path>
        </g>
    </g>
</svg>