<?xml version="1.0" encoding="UTF-8"?>
<svg width="120px" height="120px" viewBox="0 0 120 120" version="1.1" xmlns="http://www.w3.org/2000/svg" xmlns:xlink="http://www.w3.org/1999/xlink">
    <!-- Generator: Sketch 48.2 (47327) - http://www.bohemiancoding.com/sketch -->
    <title>Icon/Settings</title>
    <desc>Created with Sketch.</desc>
    <defs></defs>
    <g id="Icons-for-Github" stroke="none" stroke-width="1" fill="none" fill-rule="evenodd">
        <g id="Icon/Settings" fill="#000000">
            <path d="M85.2812518,63.78125 L92.6250018,69.09375 C93.2500018,69.71875 93.3541718,70.44791 92.9375018,71.28125 L86.2187518,82.375 C85.8020818,83.208338 85.1770918,83.468752 84.3437518,83.15625 L75.9062518,79.875 C73.3020718,81.64584 71.4270918,82.73958 70.2812518,83.15625 L69.0312518,91.75 C68.8229218,92.5833375 68.2500018,93 67.3125018,93 L54.0312518,93 C53.0937518,93 52.5208318,92.5833375 52.3125018,91.75 L51.0625018,83.15625 C49.4999918,82.53125 47.6250118,81.43751 45.4375018,79.875 L37.0000018,83.15625 C36.1666648,83.572919 35.5416708,83.312505 35.1250018,82.375 L28.4062518,71.28125 C27.8854159,70.34375 27.9895815,69.61459 28.7187518,69.09375 L35.7500018,63.78125 C35.7500018,63.46875 35.7239608,62.94792 35.6718768,62.21875 C35.6197928,61.48958 35.5937518,60.91667 35.5937518,60.5 C35.5937518,60.08333 35.6197928,59.51042 35.6718768,58.78125 C35.7239608,58.05208 35.7500018,57.53125 35.7500018,57.21875 L28.5625018,51.90625 C27.9374987,51.28125 27.8333331,50.55209 28.2500018,49.71875 L34.9687518,38.625 C35.3854208,37.79166 36.0104148,37.53125 36.8437518,37.84375 L45.2812518,41.125 C47.8854318,39.35416 49.7604118,38.26042 50.9062518,37.84375 L52.1562518,29.25 C52.3645818,28.41666 52.9375018,28 53.8750018,28 L67.1562518,28 C68.0937518,28 68.6666718,28.41666 68.8750018,29.25 L69.9687518,37.84375 C71.5312618,38.46875 73.4062418,39.56249 75.5937518,41.125 L83.8750018,37.84375 C84.7083418,37.42708 85.3854118,37.6875 85.9062518,38.625 L92.6250018,49.71875 C93.1458418,50.65625 93.0416718,51.38541 92.3125018,51.90625 L85.2812518,57.21875 C85.2812518,57.53125 85.3072918,58.05208 85.3593818,58.78125 C85.4114618,59.51042 85.4375018,60.08333 85.4375018,60.5 C85.4375018,62.06251 85.3854218,63.15625 85.2812518,63.78125 Z M60.4375018,71.90625 C63.6666818,71.90625 66.4270718,70.81251 68.7187518,68.625 C71.0104318,66.43749 72.1562518,63.72918 72.1562518,60.5 C72.1562518,57.27082 71.0104318,54.56251 68.7187518,52.375 C66.4270718,50.18749 63.6666818,49.09375 60.4375018,49.09375 C57.2083218,49.09375 54.4739718,50.18749 52.2343818,52.375 C49.9947818,54.56251 48.8750018,57.27082 48.8750018,60.5 C48.8750018,63.72918 49.9947818,66.43749 52.2343818,68.625 C54.4739718,70.81251 57.2083218,71.90625 60.4375018,71.90625 Z"></path>
        </g>
    </g>
</svg>