<?xml version="1.0" encoding="UTF-8"?>
<svg width="120px" height="120px" viewBox="0 0 120 120" version="1.1" xmlns="http://www.w3.org/2000/svg" xmlns:xlink="http://www.w3.org/1999/xlink">
    <!-- Generator: Sketch 48.2 (47327) - http://www.bohemiancoding.com/sketch -->
    <title>Icon/Medal</title>
    <desc>Created with Sketch.</desc>
    <defs>
        <path d="M92.9328526,33.8900641 L92.9328526,60.46875 C92.9328526,61.8010192 92.2667243,62.4671474 90.9344551,62.4671474 L82.3413462,62.4671474 C81.6752051,67.1300961 79.7434423,71.1601571 76.5459936,74.5574583 C73.3485449,77.9547467 69.4850064,80.1862628 64.9552885,81.2520833 L64.9552885,94.2416667 L75.1471154,94.2416667 C76.8790641,94.2416667 77.7450321,95.1076308 77.7450321,96.8395833 C77.7450321,98.5715364 76.8790641,99.4375 75.1471154,99.4375 L44.5716346,99.4375 C42.8396859,99.4375 41.9737179,98.5715364 41.9737179,96.8395833 C41.9737179,95.1076308 42.8396859,94.2416667 44.5716346,94.2416667 L54.7634615,94.2416667 L54.7634615,81.2520833 C50.2337436,80.1862628 46.3369006,77.9547467 43.0728429,74.5574583 C39.8087725,71.1601571 37.8437,67.1300961 37.1775641,62.4671474 L28.7842949,62.4671474 C27.4520232,62.4671474 26.7858974,61.8010192 26.7858974,60.46875 L26.7858974,33.8900641 L26.7858974,33.6902244 C26.7858974,32.4911859 27.4520232,31.8916667 28.7842949,31.8916667 L36.9777244,31.8916667 L36.9777244,24.6974359 L36.9777244,24.4975962 C36.9777244,22.7656474 37.9103,21.7664487 39.7754808,21.5 L79.5435897,21.5 L79.7434295,21.5 C80.5427885,21.5 81.2422212,21.7997532 81.8417532,22.3992725 C82.4412724,22.9988045 82.7410256,23.6982372 82.7410256,24.4975962 L82.7410256,24.6974359 L82.7410256,31.8916667 L90.9344551,31.8916667 C92.2667243,31.8916667 92.9328526,32.5577949 92.9328526,33.8900641 Z M36.9777244,57.2713141 L36.9777244,36.8876603 L31.9817308,36.8876603 L31.9817308,57.2713141 L36.9777244,57.2713141 Z M87.7370192,57.2713141 L87.7370192,36.8876603 L82.7410256,36.8876603 L82.7410256,57.2713141 L87.7370192,57.2713141 Z" id="path-1"></path>
    </defs>
    <g id="Icons" stroke="none" stroke-width="1" fill="none" fill-rule="evenodd">
        <g id="Icon/Medal">
            <mask id="mask-2" fill="white">
                <use xlink:href="#path-1"></use>
            </mask>
            <use fill="#FFFFFF" xlink:href="#path-1"></use>
            <g id="Color-alias/Icons/Icon-Light" mask="url(#mask-2)" fill="#FFFFFF">
                <g id="Color/White">
                    <rect id="Sample" x="0" y="0" width="120" height="120"></rect>
                </g>
            </g>
        </g>
    </g>
</svg>