<?xml version="1.0" encoding="UTF-8"?>
<svg width="65px" height="67px" viewBox="0 0 65 67" version="1.1" xmlns="http://www.w3.org/2000/svg" xmlns:xlink="http://www.w3.org/1999/xlink">
    <g id="Icons" stroke="none" stroke-width="1" fill="none" fill-rule="evenodd" transform="translate(-981.000000, -207.000000)">
        <g id="Icon/Airtames/White" transform="translate(973.000000, 200.000000)" fill="#FFFFFF">
            <path d="M34.2274044,15.9141914 L34.2274044,7.33333333 L47.2376162,7.33333333 L47.2376162,15.9141914 L48.5386374,15.9141914 C51.412774,15.9141914 53.7427221,18.2783644 53.7427221,21.1947195 L53.7427221,28.5772917 C53.7427221,32.108295 54.520619,35.5946422 56.0195092,38.7813057 L56.520057,39.8454779 C57.6894188,42.3315589 58.2962963,45.0514385 58.2962963,47.8061567 L58.2962963,62.7788779 C58.2962963,68.9761325 53.3451566,74 47.2376162,74 L34.2274044,74 C28.119864,74 23.1687243,68.9761325 23.1687243,62.7788779 L23.1687243,47.255996 C23.1687243,44.8561697 23.6293351,42.4793132 24.5248341,40.2581612 L25.1202561,38.7813057 C26.4089384,35.5849211 27.0717878,32.1644672 27.0717878,28.7109584 L27.0717878,21.1947195 C27.0717878,18.2783644 29.4017359,15.9141914 32.2758726,15.9141914 L34.2274044,15.9141914 Z M33.4052492,41.4687802 C30.0914978,41.8310386 27.5269561,44.5866195 27.3537815,47.971035 C27.2249231,50.4893915 27.1604938,53.0077479 27.1604938,55.5261044 C27.1604938,58.0444602 27.224923,60.5628159 27.3537814,63.0811717 C27.5269541,66.4655879 30.0914962,69.2211693 33.4052481,69.5834285 C35.8476688,69.8504333 38.2900896,69.9839357 40.7325103,69.9839357 C43.1749306,69.9839357 45.617351,69.8504334 48.0597714,69.5834287 C51.3735228,69.2211703 53.9380645,66.4655893 54.111239,63.0811738 C54.2400975,60.5628174 54.3045267,58.0444609 54.3045267,55.5261044 C54.3045267,53.0077487 54.2400975,50.4893929 54.1112392,47.9710371 C53.9380665,44.5866209 51.3735244,41.8310395 48.0597725,41.4687803 C45.6173517,41.2017755 43.174931,41.0682731 40.7325103,41.0682731 C38.2900899,41.0682731 35.8476696,41.2017755 33.4052492,41.4687802 Z M33.8157207,44.0686855 C36.1213172,43.780871 38.4269137,43.6369637 40.7325103,43.6369637 C43.0381067,43.6369637 45.3437031,43.7808709 47.6492995,44.0686854 C49.8589723,44.3445254 51.5480956,46.2011549 51.6427417,48.4581476 C51.7417075,50.8181497 51.7911904,53.1781517 51.7911904,55.5381538 C51.7911904,57.8981553 51.7417075,60.2581567 51.6427418,62.6181581 C51.5480974,64.8751517 49.8589736,66.731782 47.6492999,67.0076221 C45.3437034,67.2954367 43.0381068,67.4393439 40.7325103,67.4393439 C38.4269139,67.4393439 36.1213175,67.2954367 33.8157211,67.0076222 C31.6060483,66.7317822 29.916925,64.8751527 29.8222789,62.61816 C29.7233131,60.258158 29.6738302,57.8981559 29.6738302,55.5381538 C29.6738302,53.1781524 29.7233131,50.8181509 29.8222788,48.4581495 C29.9169232,46.2011559 31.606047,44.3445257 33.8157207,44.0686855 Z M37.0589188,58.5971874 C38.053844,57.8772677 39.3858899,57.8390271 40.4202283,58.5006903 L40.8053218,58.7470335 C42.4115006,59.7745014 44.4799765,59.7151192 46.0249523,58.5971874 L46.47258,58.2732877 C46.5961475,58.1838753 46.6240755,58.0111967 46.5350041,57.887321 L45.889354,56.9893864 C45.7999093,56.8655141 45.6270872,56.8376813 45.5033451,56.9272201 L45.0566124,57.2504722 C44.0616872,57.9703918 42.7296412,58.0086325 41.6953029,57.3469693 L41.3102094,57.100626 C39.7040306,56.0731582 37.6355547,56.1325404 36.0905788,57.2504722 L35.6429511,57.5743719 C35.5193837,57.6637843 35.4914557,57.8364629 35.5805271,57.9603386 L36.2261771,58.8582731 C36.3156218,58.9821455 36.4884439,59.0099783 36.6121861,58.9204395 L37.0589188,58.5971874 Z M37.0589188,54.4458975 C38.053844,53.7259778 39.3858899,53.6877372 40.4202283,54.3494004 L40.8053218,54.5957436 C42.4115006,55.6232114 44.4799765,55.5638293 46.0249523,54.4458975 L46.47258,54.1219977 C46.5961475,54.0325854 46.6240755,53.8599068 46.5350041,53.736031 L45.889354,52.8380965 C45.7999093,52.7142242 45.6270872,52.6863914 45.5033451,52.7759302 L45.0566124,53.0991822 C44.0616872,53.8191019 42.7296412,53.8573425 41.6953029,53.1956793 L41.3102094,52.9493361 C39.7040306,51.9218683 37.6355547,51.9812505 36.0905788,53.0991822 L35.6429511,53.423082 C35.5193837,53.5124943 35.4914557,53.6851729 35.5805271,53.8090487 L36.2261771,54.7069832 C36.3156218,54.8308555 36.4884439,54.8586884 36.6121861,54.7691496 L37.0589188,54.4458975 Z M59.8881201,67.5742972 C60.2075807,66.7227258 60.4439913,65.8313356 60.5876364,64.909723 C61.8947867,64.8558731 63.2019369,64.7595434 64.5090871,64.6207339 C67.406644,64.3130354 69.6490891,61.9724733 69.8005136,59.0977857 C69.9131879,56.9587196 69.9695251,54.8196536 69.9695251,52.6805875 C69.9695251,50.5415221 69.9131879,48.4024566 69.8005137,46.2633912 C69.6490908,43.3887029 67.4066454,41.0481404 64.5090881,40.7404412 C62.7795261,40.5567748 61.0499642,40.4474794 59.3204022,40.4125549 C59.1274027,39.9203212 58.9152786,39.4346198 58.684283,38.9565542 L58.1748747,37.9022894 C56.8194605,35.0971416 56.1160251,32.028189 56.1160251,28.9199267 L56.1160251,21.6060859 C56.1160251,18.9379832 54.7679189,16.5808929 52.7078189,15.1631398 L52.7078189,13.7590361 L63.4963853,13.7590361 L63.4963853,20.6857529 L64.5752419,20.6857529 C66.9585862,20.6857529 68.8906684,22.5941817 68.8906684,24.9483478 L68.8906684,30.9077737 C68.8906684,33.7581016 69.5357303,36.5723819 70.7786676,39.1447488 L71.193741,40.0037794 C72.1634206,42.0106158 72.6666667,44.2061813 72.6666667,46.4298695 L72.6666667,58.516283 C72.6666667,63.5188861 68.5609918,67.5742972 63.4963853,67.5742972 L59.8881201,67.5742972 Z M60.0900068,42.8922069 C61.3401427,42.9470016 62.5902786,43.050357 63.8404145,43.2022732 C65.7145052,43.430012 67.147102,44.9628817 67.2273743,46.8262991 C67.3113102,48.774763 67.3532781,50.7232269 67.3532781,52.6716908 C67.3532781,54.6201542 67.3113102,56.5686177 67.2273744,58.5170811 C67.1471036,60.3804991 65.7145063,61.9133694 63.8404148,62.1411085 C62.7877792,62.2690245 61.7351437,62.3625112 60.6825081,62.4215688 L60.6825081,55.8905097 C61.3121845,55.8077759 61.9248771,55.5761636 62.4627562,55.1972889 L62.8424029,54.9298709 C62.9472042,54.8560503 62.9708908,54.7134835 62.8953466,54.6112092 L62.3477512,53.8698569 C62.2718904,53.7675855 62.1253147,53.7446062 62.0203652,53.8185312 L61.6414777,54.0854144 C61.3487391,54.2916155 61.0215892,54.4300814 60.6825081,54.5001841 L60.6825081,52.4631235 C61.3121845,52.3803897 61.9248771,52.1487774 62.4627562,51.7699026 L62.8424029,51.5024847 C62.9472042,51.4286641 62.9708908,51.2860972 62.8953466,51.183823 L62.3477512,50.4424707 C62.2718904,50.3401992 62.1253147,50.3172199 62.0203652,50.3911449 L61.6414777,50.6580282 C61.3487391,50.8642292 61.0215892,51.0026952 60.6825081,51.0727979 L60.6825081,47.8629875 C60.6825081,46.1836761 60.4824395,44.515545 60.0900068,42.8922069 Z M21.4405723,67.5742972 L17.1702814,67.5742972 C12.1056748,67.5742972 8,63.5188861 8,58.516283 L8,45.9857638 C8,44.0485547 8.38195616,42.1298873 9.12453824,40.3369093 L9.61828495,39.1447488 C10.6869097,36.5645347 11.2365699,33.8034454 11.2365699,31.0156732 L11.2365699,24.9483478 C11.2365699,22.5941817 13.1686522,20.6857529 15.5519964,20.6857529 L17.1702814,20.6857529 L17.1702814,13.7590361 L27.9588477,13.7590361 L27.9588477,15.1631398 C25.8987478,16.5808929 24.5506416,18.9379832 24.5506416,21.6060859 L24.5506416,29.0523489 C24.5506416,32.1340651 23.9430249,35.1862849 22.7617239,38.038558 L22.155762,39.5016641 C22.0320454,39.8003801 21.9154654,40.1015834 21.8060721,40.4050222 C19.9232412,40.4286924 18.0404104,40.5404987 16.1575795,40.7404411 C13.2600226,41.0481396 11.0175776,43.3887017 10.8661531,46.2633893 C10.7534788,48.4024554 10.6971416,50.5415215 10.6971416,52.6805875 C10.6971416,54.819653 10.7534787,56.9587184 10.866153,59.0977838 C11.0175759,61.9724721 13.2600212,64.3130346 16.1575786,64.6207338 C17.6866456,64.7831092 19.2157127,64.8873567 20.7447798,64.9334764 C20.8887705,65.8466533 21.123857,66.7300439 21.4405723,67.5742972 Z M21.1209189,42.8818775 C20.8093869,44.3348043 20.6512474,45.8192535 20.6512474,47.3113794 L20.6512474,49.9532156 C19.978466,50.0203099 19.3206201,50.2566011 18.747737,50.6601322 L18.3685142,50.9272516 C18.26383,51.0009897 18.2401698,51.1433974 18.3156296,51.2455574 L18.8626136,51.9860818 C18.9383896,52.088239 19.0848016,52.1111927 19.1896339,52.0373502 L19.5680984,51.770765 C19.896411,51.5395061 20.2680549,51.3935403 20.6512474,51.3337559 L20.6512474,53.3767744 C19.978466,53.4438687 19.3206201,53.6801599 18.747737,54.083691 L18.3685142,54.3508103 C18.26383,54.4245485 18.2401698,54.5669561 18.3156296,54.6691161 L18.8626136,55.4096406 C18.9383896,55.5117978 19.0848016,55.5347514 19.1896339,55.460909 L19.5680984,55.1943238 C19.896411,54.9630648 20.2680549,54.8170991 20.6512474,54.7573147 L20.6512474,62.4437392 C19.3743368,62.3900089 18.0974261,62.2855588 16.8205155,62.130389 C14.9485176,61.9029045 13.5175206,60.3717466 13.437338,58.5104102 C13.3534959,56.5641222 13.3115748,54.6178342 13.3115748,52.6715462 C13.3115748,50.7252587 13.3534959,48.7789712 13.437338,46.8326838 C13.5175191,44.9713466 14.9485166,43.4401882 16.8205151,43.2127034 C18.2539831,43.0385088 19.687451,42.9282335 21.1209189,42.8818775 Z" id="Icon/Airtames-small/White"></path>
        </g>
    </g>
</svg>