<?xml version="1.0" encoding="UTF-8"?>
<svg width="120px" height="120px" viewBox="0 0 120 120" version="1.1" xmlns="http://www.w3.org/2000/svg" xmlns:xlink="http://www.w3.org/1999/xlink">
    <!-- Generator: Sketch 48.2 (47327) - http://www.bohemiancoding.com/sketch -->
    <title>Icon/Screen</title>
    <desc>Created with Sketch.</desc>
    <defs>
        <path d="M96,77 L105.514496,82.7086975 C105.815701,82.8894207 106,83.2149275 106,83.5661904 L106,86 C106,87.6568542 104.656854,89 103,89 L17,89 C15.3431458,89 14,87.6568542 14,86 L14,83.5661904 C14,83.2149275 14.1842988,82.8894207 14.4855042,82.7086975 L24,77 L24,34 C24,32.3431458 25.3431458,31 27,31 L93,31 C94.6568542,31 96,32.3431458 96,34 L96,77 Z M28,35 L28,74 L92,74 L92,35 L28,35 Z M56,85 L56,87 L64,87 L64,85 L56,85 Z" id="path-1"></path>
    </defs>
    <g id="Icons" stroke="none" stroke-width="1" fill="none" fill-rule="evenodd">
        <g id="Icon/Screen">
            <mask id="mask-2" fill="white">
                <use xlink:href="#path-1"></use>
            </mask>
            <use fill="#FFFFFF" fill-rule="nonzero" xlink:href="#path-1"></use>
            <g id="Color-alias/Icons/Icon-Light" mask="url(#mask-2)" fill="#FFFFFF">
                <g id="Color/White">
                    <rect id="Sample" x="0" y="0" width="120" height="120"></rect>
                </g>
            </g>
        </g>
    </g>
</svg>