<?xml version="1.0" encoding="UTF-8"?>
<svg width="120px" height="120px" viewBox="0 0 120 120" version="1.1" xmlns="http://www.w3.org/2000/svg" xmlns:xlink="http://www.w3.org/1999/xlink">
    <!-- Generator: Sketch 48.2 (47327) - http://www.bohemiancoding.com/sketch -->
    <title>Icon/Device status/Busy multi color</title>
    <desc>Created with Sketch.</desc>
    <defs></defs>
    <g id="Icons" stroke="none" stroke-width="1" fill="none" fill-rule="evenodd">
        <g id="Icon/Device-status/Busy-multi-color">
            <circle id="Combined-Shape" fill="#337AFF" cx="60" cy="60" r="45"></circle>
            <path d="M75.5550351,49.6574116 L73.389933,49.6574116 L73.389933,43.1049411 C73.389933,41.2961775 73.0542599,39.6068916 72.3829072,38.0370179 C71.7115481,36.433019 70.7884551,35.033811 69.6135831,33.8393415 C68.4387112,32.644872 67.0624598,31.7063813 65.4847775,31.0238235 C63.9406606,30.3412723 62.2790907,30 60.5000032,30 C58.7209093,30 57.0593394,30.3412723 55.5152225,31.0238235 C53.9375402,31.7063813 52.5612888,32.644872 51.3864169,33.8393415 C50.2115449,35.033811 49.2884519,36.433019 48.6170992,38.0370179 C47.9457401,39.6068916 47.6100735,41.2961775 47.6100735,43.1049411 L47.6100735,49.6574116 L45.4449649,49.6574116 C43.6323095,49.6574116 42.1050023,50.2887684 40.8629977,51.5514884 C39.620993,52.8142085 39,54.3669933 39,56.2098822 L39,75.4475295 C39,77.290421 39.620993,78.8432045 40.8629977,80.1059265 C42.1050023,81.3686485 43.6323095,82 45.4449649,82 L75.5550351,82 C77.3676879,82 78.8949964,81.3686485 80.1369991,80.1059265 C81.3790083,78.8432045 82,77.290421 82,75.4475295 L82,56.2098822 C82,54.3669933 81.3790083,52.8142085 80.1369991,51.5514884 C78.8949964,50.2887684 77.3676879,49.6574116 75.5550351,49.6574116 Z M53,43.0066877 C53,40.8216159 53.7382961,38.9409205 55.2149109,37.3645475 C56.6915256,35.7881745 58.4532042,35 60.5000028,35 C62.5467958,35 64.3084744,35.7881745 65.7850891,37.3645475 C67.2617039,38.9409205 68,40.8216159 68,43.0066877 L68,49 L53,49 L53,43.0066877 Z M61.7,72 L58.3,72 C57.5820298,72 57,71.4179702 57,70.7 L57,60.3 C57,59.5820298 57.5820298,59 58.3,59 L61.7,59 C62.4179702,59 63,59.5820298 63,60.3 L63,70.7 C63,71.4179702 62.4179702,72 61.7,72 Z" id="Page-1" fill="#001561"></path>
        </g>
    </g>
</svg>