<?xml version="1.0" encoding="UTF-8"?>
<svg width="120px" height="120px" viewBox="0 0 120 120" version="1.1" xmlns="http://www.w3.org/2000/svg" xmlns:xlink="http://www.w3.org/1999/xlink">
    <!-- Generator: Sketch 48.2 (47327) - http://www.bohemiancoding.com/sketch -->
    <title>icon-user</title>
    <desc>Created with Sketch.</desc>
    <defs></defs>
    <g id="Icons-for-Github" stroke="none" stroke-width="1" fill="none" fill-rule="evenodd">
        <g id="icon-user" fill="#000000">
            <path d="M49.182338,62.4772073 C46.1377382,61.5574535 43.1322355,51.078778 43.7751102,42.7716879 C43.6562835,42.0544325 42.5086993,41.4120297 42.4920105,40.7208283 C42.2987942,32.7183986 49.5159949,26 58.1464981,26 C67.5353389,26 72.629502,32.2149732 73.9233446,39.5153231 C75.909235,50.7204696 76.2681201,57.3432348 75,59.3836188 L69.9181568,59.3836188 C70.1257087,62.8003747 70.4426931,65.2813833 70.8691099,66.8266448 C75,68.2427499 82.9182069,68.8434982 85.3697251,71.7009519 C87.7770434,74.5068869 88.907128,80.360098 88.7107933,91.6249325 C88.6917814,92.7157495 87.8020792,93.5900803 86.7110964,93.5900803 L34.0003767,93.5900798 C33.8712043,93.5900798 33.7423356,93.5775657 33.6155766,93.5527129 C32.5316457,93.3401937 31.825227,92.2892132 32.0377436,91.2052818 C33.9231834,81.5888027 35.9669377,76.7918206 39.484081,74.4263366 C43.7335846,71.5682976 49.2014995,69.4919912 56.1668051,67.7590802 C56.5098074,66.3018182 57.5262707,64.9814141 57.6608848,63.5095041 C54.7785793,63.5095041 51.824961,63.2755265 49.182338,62.4772073 Z" id="icon-User"></path>
        </g>
    </g>
</svg>