<?xml version="1.0" encoding="UTF-8"?>
<svg width="120px" height="120px" viewBox="0 0 120 120" version="1.1" xmlns="http://www.w3.org/2000/svg" xmlns:xlink="http://www.w3.org/1999/xlink">
    <!-- Generator: Sketch 48.2 (47327) - http://www.bohemiancoding.com/sketch -->
    <title>Icon/Emoji Happy multi color</title>
    <desc>Created with Sketch.</desc>
    <defs></defs>
    <g id="Icons" stroke="none" stroke-width="1" fill="none" fill-rule="evenodd">
        <g id="Icon/Emoji-Happy-multi-color">
            <circle id="Base-Circle" fill="#3EB85D" cx="60" cy="60" r="36"></circle>
            <path d="M40.2650783,73.0832761 C39.6621086,72.0085283 40.0445605,70.6484695 41.1193084,70.0454999 C41.7003279,69.7195285 42.39661,69.6702282 43.0177634,69.9110798 C46.7786327,71.3693967 52.4827016,72.0985362 60.1299554,72.0985362 C67.7772092,72.0985362 73.4812781,71.3693967 77.2421622,69.9111179 L77.2421475,69.9110798 C78.3911335,69.4655617 79.6837345,70.0358351 80.1292527,71.1848211 C80.3701043,71.8059745 80.320804,72.5022567 79.9948326,73.0832761 C75.3660139,81.3337964 68.0588725,85.0985362 60.1299554,85.0985362 C52.2010383,85.0985362 44.8938969,81.3337964 40.2650783,73.0832761 Z M48.5,59 C46.0147186,59 44,56.3137085 44,53 C44,49.6862915 46.0147186,47 48.5,47 C50.9852814,47 53,49.6862915 53,53 C53,56.3137085 50.9852814,59 48.5,59 Z M72.5,59 C70.0147186,59 68,56.3137085 68,53 C68,49.6862915 70.0147186,47 72.5,47 C74.9852814,47 77,49.6862915 77,53 C77,56.3137085 74.9852814,59 72.5,59 Z" id="Face-happy" fill="#174E25"></path>
        </g>
    </g>
</svg>