<?xml version="1.0" encoding="UTF-8"?>
<svg width="120px" height="120px" viewBox="0 0 120 120" version="1.1" xmlns="http://www.w3.org/2000/svg" xmlns:xlink="http://www.w3.org/1999/xlink">
    <!-- Generator: Sketch 48.2 (47327) - http://www.bohemiancoding.com/sketch -->
    <title>Icon/User</title>
    <desc>Created with Sketch.</desc>
    <defs>
        <path d="M57.6608848,63.5095041 C54.2772948,64.3372725 51.2355639,64.4009059 49.7109761,64.4009059 C45.1183476,64.4009059 42.6633893,52.870227 42.6633893,43.5200581 C42.6633893,43.0104088 42.6830311,42.5060191 42.721694,42.0078301 C41.2271427,32.9865028 48.7705443,26 58.1464981,26 C67.5353389,26 74.9254866,28.2382464 74.9254866,39.9769445 C74.9254866,58.3028616 77.9759203,58.08997 73.3832919,58.08997 C72.6633201,58.08997 71.453094,57.9178012 69.9181568,57.5926188 C69.997616,61.4642617 70.2294846,64.5087526 70.8691099,66.8266448 C71.7106092,66.7389587 72.5523492,66.7586382 73.3949166,66.9272778 C75.8258508,67.4138286 81.7978374,69.9191473 84.6012253,71.3852375 C88.1331612,73.2323371 92.679047,79.6149601 93.2618525,82.5013435 C93.6468874,84.4082548 93.6944502,87.4832777 93.4045407,91.7264122 C93.3328533,92.7756337 92.4608387,93.5901014 91.4091711,93.5901014 L34.489299,93.5900798 C34.4673113,93.5900798 34.4453252,93.5897172 34.4233496,93.5889922 C33.3193829,93.5525693 32.4539677,92.628101 32.4903866,91.5241342 C32.5742083,88.9835209 32.9491653,87.0154402 33.6152575,85.619892 C35.7627122,81.1207006 40.5196961,74.0256706 42.7279078,72.5405194 C46.9744181,69.6844935 50.8731135,68.2202142 56.8848318,67.925575 C57.2275417,66.4692576 57.5263621,64.9804152 57.6608848,63.5095041 Z" id="path-1"></path>
    </defs>
    <g id="Icons-for-Github" stroke="none" stroke-width="1" fill="none" fill-rule="evenodd">
        <g id="Icon/User">
            <mask id="mask-2" fill="white">
                <use xlink:href="#path-1"></use>
            </mask>
            <use fill="#000000" xlink:href="#path-1"></use>
        </g>
    </g>
</svg>