<?xml version="1.0" encoding="UTF-8"?>
<svg width="120px" height="120px" viewBox="0 0 120 120" version="1.1" xmlns="http://www.w3.org/2000/svg" xmlns:xlink="http://www.w3.org/1999/xlink">
    <!-- Generator: Sketch 48.2 (47327) - http://www.bohemiancoding.com/sketch -->
    <title>Icon/Full-screen/White</title>
    <desc>Created with Sketch.</desc>
    <defs></defs>
    <g id="Icons" stroke="none" stroke-width="1" fill="none" fill-rule="evenodd">
        <g id="Icon/Full-screen/White" fill="#FFFFFF">
            <path d="M93.32812,28.95312 C93.17187,28.64062 92.9375,28.32812 92.625,28.01562 C92.3125,27.70312 92,27.46875 91.6875,27.3125 C91.53125,27.15624 91.3099,27.0651 91.02344,27.03906 C90.73698,27.01302 90.51563,27 90.35938,27 L70.35938,27 C69.36979,27 68.5625,27.29947 67.9375,27.89843 C67.3125,28.49739 67,29.29166 67,30.28124 C67,31.32292 67.3125,32.14322 67.9375,32.74218 C68.5625,33.34114 69.36979,33.64062 70.35938,33.64062 L82.39062,33.64062 L64.65625,51.29687 C64.03125,51.97396 63.71875,52.7552 63.71875,53.64062 C63.71875,54.52604 64.03125,55.30728 64.65625,55.98437 C65.02084,56.29687 65.42448,56.54426 65.86719,56.72656 C66.3099,56.90885 66.6875,57 67,57 C67.36459,57 67.76823,56.90885 68.21094,56.72656 C68.65365,56.54426 69.03125,56.29687 69.34375,55.98437 L87,38.32812 L87,50.28124 C87,51.32292 87.3125,52.14322 87.9375,52.74218 C88.5625,53.34114 89.36979,53.64062 90.35938,53.64062 C91.34896,53.64062 92.15625,53.34114 92.78125,52.74218 C93.40625,52.14322 93.71875,51.32292 93.71875,50.28124 L93.71875,30.28124 C93.71875,30.12499 93.70573,29.90364 93.67969,29.61718 C93.65365,29.33072 93.53646,29.10937 93.32812,28.95312 Z M51.375,64.65624 L33.71875,82.3125 L33.71875,70.28124 C33.71875,69.29166 33.406253,68.49739 32.78125,67.89843 C32.156247,67.29947 31.348963,67 30.359375,67 C29.369787,67 28.562503,67.29947 27.9375,67.89843 C27.3124969,68.49739 27,69.29166 27,70.28124 L27,90.281245 C27,90.489579 27.0130207,90.723952 27.0390625,90.98437 C27.0651043,91.244788 27.1822906,91.453119 27.390625,91.60937 C27.5468758,91.973955 27.7812484,92.312493 28.09375,92.624995 C28.406252,92.9374966 28.718748,93.1718692 29.03125,93.32812 C29.187501,93.4843708 29.408853,93.5755157 29.695312,93.6015575 C29.981772,93.6275993 30.203124,93.64062 30.359375,93.64062 L50.35938,93.64062 C51.34896,93.64062 52.15625,93.3411438 52.78125,92.7421825 C53.40625,92.143221 53.71875,91.322917 53.71875,90.281245 C53.71875,89.291657 53.40625,88.497394 52.78125,87.898432 C52.15625,87.299471 51.34896,86.999995 50.35938,86.999995 L38.32812,86.999995 L56.0625,69.34374 C56.6875,68.66666 57,67.88542 57,67 C57,66.11457 56.6875,65.33333 56.0625,64.65624 C55.38541,63.97916 54.60417,63.64062 53.71875,63.64062 C52.83333,63.64062 52.05209,63.97916 51.375,64.65624 Z" id="Page-1"></path>
        </g>
    </g>
</svg>