<?xml version="1.0" encoding="UTF-8"?>
<svg width="120px" height="120px" viewBox="0 0 120 120" version="1.1" xmlns="http://www.w3.org/2000/svg" xmlns:xlink="http://www.w3.org/1999/xlink">
    <!-- Generator: Sketch 48.2 (47327) - http://www.bohemiancoding.com/sketch -->
    <title>Icon/Device status/Update device multi color</title>
    <desc>Created with Sketch.</desc>
    <defs></defs>
    <g id="Icons-for-Github" stroke="none" stroke-width="1" fill="none" fill-rule="evenodd">
        <g id="Icon/Device-status/Update-device-multi-color">
            <circle id="Combined-Shape" fill="#FFC233" cx="60" cy="60" r="45"></circle>
            <path d="M38.8148148,53.8829633 L38.8148148,53.9889069 C38.8148148,54.0230985 38.8199644,54.035195 38.8542796,54.0692322 C38.8898684,54.1045327 38.9055746,54.1111111 38.9446713,54.1111111 L44.8196063,54.1111111 C44.8949461,54.1111111 44.8898712,54.1149722 44.9548894,53.9346581 C45.8081716,51.9194732 46.3317183,50.7730676 46.5770682,50.3974588 C48.0279051,48.0537418 49.9603805,46.2090205 52.3652953,44.8722537 C54.7702161,43.5358622 57.3665817,42.8661635 60.1416167,42.8661635 C64.3017633,42.8661635 67.9329042,44.2800454 70.9963725,47.092661 L71.6253645,47.6701478 L71.0190717,48.2714224 L66.9449511,52.3118215 C66.7237271,52.5316797 66.6248216,52.7641069 66.6248216,53.0518878 C66.6248216,53.3395341 66.7236313,53.5716413 66.9441101,53.79076 C67.1670347,54.0116648 67.4046143,54.1111111 67.6997118,54.1111111 L80.9258346,54.1111111 C81.2207571,54.1111111 81.457865,54.0118013 81.680151,53.791316 C81.9013437,53.5717022 82,53.339843 82,53.0518878 L82,39.932902 C82,39.6440192 81.9018052,39.4129085 81.6809916,39.1943072 C81.4580714,38.9731932 81.2205412,38.8736787 80.9258346,38.8736787 C80.6313161,38.8736787 80.3941374,38.9730867 80.1690407,39.1959231 L75.7738208,43.5226092 L75.2027811,42.9879658 C73.1709549,41.0856419 70.8463105,39.6126588 68.2246995,38.5669576 C65.605067,37.5219063 62.9119014,37 60.1419791,37 C54.9130536,37 50.3705273,38.5628597 46.4823384,41.6953187 C42.6126578,44.8125221 40.0609436,48.866399 38.8148148,53.8829633 Z M81.1470903,63.9341119 C81.1094876,63.8972016 81.0912653,63.8896077 81.0502343,63.8896077 L75.3552807,63.8896077 C75.2770218,63.8896077 75.2810743,63.8865399 75.2158098,64.0671287 C74.3623727,66.0746174 73.8333954,67.2274725 73.5862174,67.6047996 C72.1279244,69.9483042 70.1865204,71.7930818 67.7723002,73.128655 C65.3575437,74.4646914 62.7503546,75.1339803 59.9631796,75.1339803 C57.9424772,75.1339803 55.992004,74.7633184 54.1177127,74.0228075 C52.2455549,73.2831396 50.5683419,72.2338088 49.0910753,70.8777838 L48.4605293,70.2989876 L49.0696307,69.6976652 L53.1332375,65.6859561 C53.3550987,65.467121 53.4541392,65.2354516 53.4541392,64.9484357 C53.4541392,64.6612177 53.3552131,64.4298632 53.1326757,64.2103606 C52.9084805,63.9887943 52.6689595,63.8888889 52.3708788,63.8888889 L39.0836244,63.8888889 C38.7852033,63.8888889 38.5456772,63.988776 38.3209017,64.2109153 C38.0989261,64.4298632 38,64.6612177 38,64.9484357 L38,78.0671699 C38,78.3541857 38.0990405,78.5858552 38.3206207,78.8044133 C38.5459639,79.0264677 38.786125,79.1267166 39.0836244,79.1267166 C39.3810837,79.1267166 39.6210972,79.0265088 39.8456744,78.8049949 L44.230598,74.4752727 L44.8026003,75.0135904 C46.8438412,76.9346246 49.1639617,78.4115564 51.7675034,79.4471846 C54.3702976,80.482862 57.0609222,81 59.8448684,81 C65.0792148,81 69.623854,79.4371327 73.5105698,76.3048549 C77.4026274,73.1686191 79.9545435,69.0838368 81.1785475,64.024695 C81.1832297,63.9748504 81.1755377,63.9622603 81.1470903,63.9341119 Z" id="Combined-Shape" fill="#623F08" fill-rule="nonzero"></path>
        </g>
    </g>
</svg>