<?xml version="1.0" encoding="UTF-8"?>
<svg width="120px" height="120px" viewBox="0 0 120 120" version="1.1" xmlns="http://www.w3.org/2000/svg" xmlns:xlink="http://www.w3.org/1999/xlink">
    <!-- Generator: Sketch 48.2 (47327) - http://www.bohemiancoding.com/sketch -->
    <title>Icon/Update</title>
    <desc>Created with Sketch.</desc>
    <defs></defs>
    <g id="Icons-for-Github" stroke="none" stroke-width="1" fill="none" fill-rule="evenodd">
        <g id="Icon/Update" fill="#000000">
            <path d="M90.65625,35.375 L63.9375,22.01563 C63.9375,22.01563 63.9375,22.01563 63.9375,22.01563 C63.9375,22.01563 63.9375,22.01563 63.9375,22.01563 C62.63541,21.33854 61.19011,21 59.60156,21 C58.01301,21 56.46355,21.33854 54.95312,22.01563 L28.3125,35.375 C26.645825,36.20834 25.343755,37.39323 24.40625,38.92969 C23.4687453,40.46616 23,42.17187 23,44.04688 L23,75.6875 C23,77.51043 23.481766,79.2552 24.445312,80.92188 C25.408859,82.58855 26.802074,83.83854 28.625,84.67188 L55.34375,98.031255 C55.96875,98.3437566 56.67187,98.5911499 57.45312,98.7734425 C58.23438,98.9557351 58.96354,99.04688 59.64062,99.04688 C60.47396,99.04688 61.24218,98.9557351 61.94531,98.7734425 C62.64844,98.5911499 63.3125,98.3437566 63.9375,98.031255 L90.65625,84.67188 C92.32292,83.83854 93.67708,82.62762 94.71875,81.03907 C95.76042,79.45052 96.28125,77.66668 96.28125,75.6875 L96.28125,44.04688 C96.28125,42.17187 95.79948,40.46616 94.83594,38.92969 C93.87239,37.39323 92.47918,36.20834 90.65625,35.375 Z M58.3125,27.64063 C58.46875,27.48438 58.6901,27.39323 58.97656,27.36719 C59.26302,27.34115 59.48437,27.32813 59.64062,27.32813 C59.95313,27.32813 60.21354,27.34115 60.42188,27.36719 C60.63021,27.39323 60.8125,27.48438 60.96875,27.64063 L85.65625,39.98438 L76.28125,44.67188 L50.34375,31.70313 L58.3125,27.64063 Z M59.64062,53.03126 L33.625,39.98438 L43,35.375 L68.9375,48.34376 L59.64062,53.03126 Z M31.28125,79.04688 C30.812498,78.68229 30.421877,78.21355 30.109375,77.64063 C29.796873,77.06771 29.640625,76.52084 29.640625,76 L29.640625,45.375 L56.28125,58.65626 L56.28125,91.312505 L31.28125,79.04688 Z M87.60938,79.04688 L63,91.312505 L63,58.65626 L89.64062,45.375 L89.64062,76 C89.64062,76.67709 89.47136,77.26302 89.13281,77.75782 C88.79427,78.25261 88.28646,78.68229 87.60938,79.04688 Z"></path>
        </g>
    </g>
</svg>