<?xml version="1.0" encoding="UTF-8"?>
<svg width="120px" height="120px" viewBox="0 0 120 120" version="1.1" xmlns="http://www.w3.org/2000/svg" xmlns:xlink="http://www.w3.org/1999/xlink">
    <!-- Generator: Sketch 48.2 (47327) - http://www.bohemiancoding.com/sketch -->
    <title>icon-star-filled</title>
    <desc>Created with Sketch.</desc>
    <defs></defs>
    <g id="Icons-for-Github" stroke="none" stroke-width="1" fill="none" fill-rule="evenodd">
        <g id="icon-star-filled" fill="#000000">
            <path d="M97.28571,52.45535 C97.28571,53.11012 96.89881,53.8244 96.125,54.59821 L79.91964,70.40178 L83.75893,92.72321 C83.78869,92.931544 83.80357,93.22916 83.80357,93.616067 C83.80357,94.24107 83.64732,94.769339 83.33482,95.2008886 C83.02232,95.6324383 82.56846,95.84821 81.97321,95.84821 C81.40774,95.84821 80.8125,95.6696404 80.1875,95.3124957 L60.14286,84.77678 L40.09821,95.3124957 C39.44345,95.6696404 38.84822,95.84821 38.3125,95.84821 C37.6875,95.84821 37.21875,95.6324383 36.90625,95.2008886 C36.59375,94.769339 36.4375,94.24107 36.4375,93.616067 C36.4375,93.437495 36.46726,93.139879 36.52679,92.72321 L40.36607,70.40178 L24.116071,54.59821 C23.3720201,53.79463 23,53.08036 23,52.45535 C23,51.35416 23.833325,50.66964 25.5,50.40178 L47.91071,47.14285 L57.95536,26.83035 C58.52084,25.61011 59.25,25 60.14286,25 C61.03572,25 61.76488,25.61011 62.33036,26.83035 L72.375,47.14285 L94.78571,50.40178 C96.45239,50.66964 97.28571,51.35416 97.28571,52.45535 Z" id="icon-Star-fill"></path>
        </g>
    </g>
</svg>