<?xml version="1.0" encoding="UTF-8"?>
<svg width="34px" height="34px" viewBox="0 0 34 34" version="1.1" xmlns="http://www.w3.org/2000/svg" xmlns:xlink="http://www.w3.org/1999/xlink">
    <g id="Icons" stroke="none" stroke-width="1" fill="none" fill-rule="evenodd" transform="translate(-996.000000, -1254.000000)">
        <g id="Icon/Paused/White" transform="translate(973.000000, 1231.000000)" fill="#FFFFFF">
            <path d="M56.6666667,24.7222208 L56.6666667,55.2777777 C56.6666667,55.6539373 56.5292236,55.9794548 56.2543375,56.2543403 C55.9794563,56.5292259 55.6539368,56.6666667 55.2777792,56.6666667 L47.4999982,56.6666667 C47.1238405,56.6666667 46.7983211,56.5292259 46.523435,56.2543403 C46.2485538,55.9794548 46.1111107,55.6539373 46.1111107,55.2777777 L46.1111107,24.7222208 C46.1111107,24.3460632 46.2485538,24.0205437 46.523435,23.7456625 C46.7983211,23.4707764 47.1238405,23.3333333 47.4999982,23.3333333 L55.2777792,23.3333333 C55.6539368,23.3333333 55.9794563,23.4707764 56.2543375,23.7456625 C56.5292236,24.0205437 56.6666667,24.3460632 56.6666667,24.7222208 Z M33.8888893,24.7222208 L33.8888893,55.2777777 C33.8888893,55.6539373 33.7514462,55.9794548 33.4765601,56.2543403 C33.2016789,56.5292259 32.8761595,56.6666667 32.5000018,56.6666667 L24.7222223,56.6666667 C24.3460627,56.6666667 24.0205452,56.5292259 23.7456597,56.2543403 C23.4707741,55.9794548 23.3333333,55.6539373 23.3333333,55.2777777 L23.3333333,24.7222208 C23.3333333,24.3460632 23.4707741,24.0205437 23.7456597,23.7456625 C24.0205452,23.4707764 24.3460627,23.3333333 24.7222223,23.3333333 L32.5000018,23.3333333 C32.8761595,23.3333333 33.2016789,23.4707764 33.4765601,23.7456625 C33.7514462,24.0205437 33.8888893,24.3460632 33.8888893,24.7222208 Z"></path>
        </g>
    </g>
</svg>