<?xml version="1.0" encoding="UTF-8"?>
<svg width="120px" height="120px" viewBox="0 0 120 120" version="1.1" xmlns="http://www.w3.org/2000/svg" xmlns:xlink="http://www.w3.org/1999/xlink">
  <path d="M96 34.9V77l9.514 5.709a1 1 0 0 1 .486.857V86a3 3 0 0 1-3 3H41.9l15-15H92V38.9l4-4zM80.1 31l-4 4H28v39h9.1l-15 15H17a3 3 0 0 1-3-3v-2.434a1 1 0 0 1 .486-.857L24 77V34a3 3 0 0 1 3-3h53.1zM56 85v2h8v-2h-8zm43.379-67.621a3 3 0 1 1 4.242 4.242L19.473 105.77a3 3 0 0 1-4.243-4.243L99.379 17.38z" fill="#000" fill-rule="nonzero"/>
</svg>
