<?xml version="1.0" encoding="UTF-8"?>
<svg width="59px" height="46px" viewBox="0 0 59 46" version="1.1" xmlns="http://www.w3.org/2000/svg" xmlns:xlink="http://www.w3.org/1999/xlink">
    <g id="Icons" stroke="none" stroke-width="1" fill="none" fill-rule="evenodd" transform="translate(-310.000000, -1454.000000)">
        <g id="Icon/Team/White" transform="translate(299.000000, 1437.000000)" fill="#F2F2F2">
            <path d="M28.4405899,42.3396694 C26.1848632,42.891515 24.1570426,42.9339373 23.1406507,42.9339373 C20.0788984,42.9339373 18.4422595,35.246818 18.4422595,29.0133721 C18.4422595,28.6736058 18.4553541,28.3373461 18.4811293,28.00522 C17.4847618,21.9910019 22.5136962,17.3333333 28.7643321,17.3333333 C35.0235593,17.3333333 39.9503244,18.8254976 39.9503244,26.6512964 C39.9503244,38.8685744 41.9839469,38.7266467 38.9221946,38.7266467 C38.4422134,38.7266467 37.635396,38.6118675 36.6121045,38.3950792 C36.6650774,40.9761744 36.8196564,43.0058351 37.2460733,44.5510965 C37.8070728,44.4926392 38.3682328,44.5057588 38.9299444,44.6181852 C40.5505672,44.9425524 45.4160912,46.2174177 46.6695568,47.3686641 C48.3942605,48.9527194 49.2209918,53.3009708 49.1497508,60.4134182 C49.1387659,61.5101113 48.246611,62.3933749 47.1498628,62.3933749 L13.4825584,62.3933865 C13.344233,62.3933865 13.2062809,62.3790362 13.070917,62.3505661 C11.9899926,62.1232229 11.2980283,61.0626623 11.5253787,59.9817394 C12.7729378,54.0501047 14.5181712,50.3300442 16.7610788,48.8215581 C19.5940813,46.9161987 23.7766984,45.5168515 27.9227557,45.2856946 C28.1514239,44.3141865 28.3508472,43.3209427 28.4405899,42.3396694 Z M62.1163091,32.9316184 C62.117677,33.0122492 62.1183628,33.0932287 62.1183628,33.1745489 C62.1183628,38.5912122 60.5054207,45.6754138 58.101077,46.2326754 C56.8994896,46.5111707 55.7592989,46.5413666 54.5858443,46.3279942 C54.6700961,46.8214098 54.7761615,47.3141582 54.8906657,47.8006346 C58.4934556,48.0015025 62.1280149,49.2174901 64.5898025,50.8731859 C66.4969838,52.1558765 67.9900674,55.2787417 69.0690535,60.2417815 C69.303712,61.3211384 68.6189471,62.3863572 67.5395899,62.6210141 C67.3999988,62.6513618 67.257558,62.6666667 67.1147061,62.6666667 L50.9071673,62.6666594 C51.1607881,62.2063968 51.3089094,61.6794669 51.3186927,61.118141 C51.4596588,53.0301194 50.5655343,48.0674647 48.200901,45.8956655 C47.9377295,45.6539554 47.5794365,45.4114433 47.1499117,45.1727202 C47.3193818,43.6669631 47.3568173,41.8188025 47.3616594,39.5890792 C47.1728274,38.7953607 47.0252256,37.9235302 46.9131501,36.9730277 C45.7793831,37.5532655 45.2788046,37.5425929 45.2788046,30.8097226 C45.2788046,24.6910119 49.6759404,23.3333333 54.5698051,23.3333333 C59.4636698,23.3333333 63.3997024,26.9850144 62.6066328,31.6966933 C62.5301745,32.150937 62.3612697,32.5611566 62.1163091,32.9316184 Z"></path>
        </g>
    </g>
</svg>