<?xml version="1.0" encoding="UTF-8"?>
<svg width="120px" height="120px" viewBox="0 0 120 120" version="1.1" xmlns="http://www.w3.org/2000/svg" xmlns:xlink="http://www.w3.org/1999/xlink">
    <!-- Generator: Sketch 48.2 (47327) - http://www.bohemiancoding.com/sketch -->
    <title>Icon/Search</title>
    <desc>Created with Sketch.</desc>
    <defs>
        <path d="M92.1587777,86.4691399 L73.4494019,67.7448762 C75.191304,65.5524569 76.5848027,64.1892746 77.6299362,61.249444 C78.6750794,58.3096134 79.1976414,55.2452605 79.1976414,52.05628 C79.1976414,48.3192139 78.4760095,44.8064142 77.032717,41.5177853 C75.6391992,38.2291563 73.7107068,35.3641099 71.2471633,32.9225504 C68.7836198,30.4810004 65.9095335,28.5377501 62.6248089,27.0927517 C59.3400842,25.6975679 55.831455,25 52.0988255,25 C48.3661864,25 44.8575571,25.6975679 41.5728325,27.0927517 C38.2881078,28.5377501 35.4140215,30.4810004 32.95048,32.9225504 C30.4869394,35.3641099 28.5584383,38.2291563 27.1649196,41.5177853 C25.7216327,44.8064142 25,48.3192139 25,52.05628 C25,55.8431895 25.7216327,59.3809013 27.1649196,62.6695302 C28.5584383,65.9581496 30.4869394,68.823196 32.95048,71.2647556 C35.4140215,73.7063151 38.2881078,75.6495654 41.5728325,77.0945638 C44.8575571,78.489738 48.3661864,79.1873155 52.0988255,79.1873155 C55.2840008,79.1873155 58.2949602,78.6641324 61.1317609,77.6177565 C63.9685616,76.5713711 65.3784821,75.1762161 67.7673684,73.4322532 L86.4767442,92.1565169 C88.044547,93.7255672 90.5874688,93.7265785 92.1565192,92.1587758 C92.1573409,92.1579547 92.1581622,92.1571333 92.1589832,92.1563115 L92.1589832,92.1563115 C93.7284321,90.5853868 93.7283401,88.0399512 92.1587777,86.4691399 Z M33.0554164,52.0592359 C33.0554164,49.4436693 33.5366532,46.9657989 34.4991402,44.6255454 C35.5074602,42.3311935 36.8709655,40.3121812 38.5896887,38.5684642 C40.3084207,36.8247561 42.3364847,35.4711064 44.6739599,34.507471 C46.9655879,33.4979516 49.4405253,32.9932008 52.0988251,32.9932008 C54.757116,32.9932008 57.2320535,33.4979516 59.5236903,34.507471 C61.8611567,35.4711064 63.8892207,36.8247561 65.6079527,38.5684642 C67.3266759,40.3121812 68.6901847,42.3311935 69.6985056,44.6255454 C70.6609881,46.9657989 71.142225,49.4436693 71.142225,52.0592359 C71.142225,54.7206953 70.6609881,57.1985746 69.6985056,59.4929264 C68.7360143,61.7872871 67.3610569,63.8292415 65.5735805,65.6188425 C63.8319337,67.3625594 61.8153183,68.7276801 59.5236903,69.7142575 C57.2320535,70.7008261 54.757116,71.1941148 52.0988251,71.1941148 C49.4405253,71.1941148 46.9655879,70.6893551 44.6739599,69.6798357 C42.3364847,68.6703251 40.3084207,67.3051955 38.5896887,65.5844294 C36.8709655,63.8636545 35.5074602,61.83318 34.4991402,59.4929264 C33.5366532,57.1985746 33.0554164,54.7206953 33.0554164,52.0592359 Z" id="path-1"></path>
    </defs>
    <g id="Icons" stroke="none" stroke-width="1" fill="none" fill-rule="evenodd">
        <g id="Icon/Search">
            <mask id="mask-2" fill="white">
                <use xlink:href="#path-1"></use>
            </mask>
            <use fill="#FFFFFF" xlink:href="#path-1"></use>
            <g id="Color-alias/Icons/Icon-Light" mask="url(#mask-2)" fill="#FFFFFF">
                <g id="Color/White">
                    <rect id="Sample" x="0" y="0" width="120" height="120"></rect>
                </g>
            </g>
        </g>
    </g>
</svg>