<?xml version="1.0" encoding="UTF-8"?>
<svg width="120px" height="120px" viewBox="0 0 120 120" version="1.1" xmlns="http://www.w3.org/2000/svg" xmlns:xlink="http://www.w3.org/1999/xlink">
    <!-- Generator: Sketch 48.2 (47327) - http://www.bohemiancoding.com/sketch -->
    <title>icon-ethernet</title>
    <desc>Created with Sketch.</desc>
    <defs></defs>
    <g id="Icons-for-Github" stroke="none" stroke-width="1" fill="none" fill-rule="evenodd">
        <g id="icon-ethernet" fill="#000000">
            <path d="M77.1259801,33.1265237 L77.1834739,33.0701849 L78.1657267,34.0442494 L73.0148239,39.1475324 L73.0046067,39.1377593 L72.9476084,39.1942307 L71.9186992,38.2100348 L77.1162584,33.1168831 L77.1259801,33.1265237 Z M35.0395658,73.6115832 L36.6829239,71.1251779 L40.7684203,75.1582668 L42.3134065,73.5742995 L38.0717172,69.2805469 L39.6271964,66.8412029 L44.3635873,71.4782451 L45.983664,70.0002195 L40.9131364,64.9643382 L42.5381317,62.5003891 L48.091447,67.9286628 L49.5898704,66.3669368 L43.8258206,60.6119202 L45.4411973,58.1894452 L51.7163441,64.2392933 L53.2580512,62.7235542 L46.7514024,56.2762637 L52.5686824,47.6675917 L54.8739744,45.9039749 L62.5899719,53.4639323 L56.6916063,59.382625 L61.8296018,64.503901 L67.8376451,58.6681728 L75.5693257,66.2755353 L73.9138913,68.5261891 L65.1115042,74.2726108 L58.5074097,67.870498 L56.9584929,69.4217135 L63.1712766,75.5825693 L60.7908901,77.2043239 L54.8582913,71.4938837 L53.3075312,73.0029051 L58.7856196,78.4275644 L56.422218,80.020068 L51.2148346,75.093066 L49.6815861,76.5653293 L54.4111542,81.28382 L52.0212878,82.9081633 L47.6086393,78.6670095 L46.0900057,80.1370725 L50.0802702,84.1847288 L47.6582773,85.7341323 L43.9462227,82.2510485 C43.9462227,82.2510485 37.7926168,88.988138 30.7460017,89.7676537 C28.075396,90.0630834 25.5228601,86.4756694 28.1875948,83.1679035 C35.33726,81.6179465 36.6322947,78.9041342 38.6607509,77.2043239 C37.1416419,75.5825693 35.0395658,73.6115832 35.0395658,73.6115832 Z M57.2440017,46.694653 L74.082063,30.0383015 L76.1495669,32.0318841 L70.226765,37.8639915 L72.25866,39.9681666 L63.4923145,48.6205103 L64.9840138,51.2411222 L63.4641887,52.7583452 L57.2440017,46.694653 Z M59.5728467,58.6883112 L66.8062468,51.4817098 L65.2777004,48.8989006 L73.3130753,41.0075967 L80.5947214,48.0831039 L72.6449147,56.0379415 L69.9655967,54.5568307 L62.7086804,61.6724566 L59.5728467,58.6883112 Z M68.6208703,57.8999444 L70.1868834,56.3031169 L72.8160514,57.8806499 L81.6139022,49.1819055 L83.7357566,51.2520994 L89.7197208,45.4046805 L91.7618597,47.416399 L74.8662582,63.973334 L68.6208703,57.8999444 Z M74.0325203,40.2879568 L79.2300796,35.1948052 L80.2123324,36.1688698 L75.0614296,41.2721528 L74.0325203,40.2879568 Z M76.1463415,42.3658789 L81.3439007,37.2727273 L82.3261535,38.2467918 L77.1752507,43.3500748 L76.1463415,42.3658789 Z M78.2601626,44.1840607 L83.4577218,39.0909091 L84.4399747,40.0649737 L79.2890718,45.1682566 L78.2601626,44.1840607 Z M80.3739837,46.2619828 L85.571543,41.1688312 L86.5537958,42.1428957 L81.402893,47.2461787 L80.3739837,46.2619828 Z M82.4878049,48.3399049 L87.6853641,43.2467532 L88.667617,44.2208178 L83.5167141,49.3241008 L82.4878049,48.3399049 Z" id="icon-Ethernet"></path>
        </g>
    </g>
</svg>