<?xml version="1.0" encoding="UTF-8"?>
<svg width="34px" height="9px" viewBox="0 0 34 9" version="1.1" xmlns="http://www.w3.org/2000/svg" xmlns:xlink="http://www.w3.org/1999/xlink">
    <g id="Icons" stroke="none" stroke-width="1" fill="none" fill-rule="evenodd" transform="translate(-547.000000, -646.000000)">
        <g id="Icon/More/White" transform="translate(524.000000, 610.000000)" fill="#FFFFFF">
            <path d="M52.5,44.3333333 C51.3888867,44.3333333 50.4166733,43.9166733 49.5833333,43.0833333 C48.7499933,42.249996 48.3333333,41.2777833 48.3333333,40.1666667 C48.3333333,39.05555 48.7499933,38.0833373 49.5833333,37.25 C50.4166733,36.4166625 51.3888867,36 52.5,36 C53.6111133,36 54.5833267,36.4166625 55.4166667,37.25 C56.2500067,38.0833373 56.6666667,39.05555 56.6666667,40.1666667 C56.6666667,41.2777833 56.2500067,42.249996 55.4166667,43.0833333 C54.5833267,43.9166733 53.6111133,44.3333333 52.5,44.3333333 Z M27.5,44.3333333 C26.3888833,44.3333333 25.4166707,43.9166733 24.5833333,43.0833333 C23.7499958,42.249996 23.3333333,41.2777833 23.3333333,40.1666667 C23.3333333,39.05555 23.7499958,38.0833373 24.5833333,37.25 C25.4166707,36.4166625 26.3888833,36 27.5,36 C28.6111167,36 29.5833293,36.4166625 30.4166667,37.25 C31.2500067,38.0833373 31.6666667,39.05555 31.6666667,40.1666667 C31.6666667,41.2777833 31.2500067,42.249996 30.4166667,43.0833333 C29.5833293,43.9166733 28.6111167,44.3333333 27.5,44.3333333 Z M40,44.3333333 C38.88888,44.3333333 37.9166733,43.9166733 37.0833333,43.0833333 C36.2499933,42.249996 35.8333333,41.2777833 35.8333333,40.1666667 C35.8333333,39.05555 36.2499933,38.0833373 37.0833333,37.25 C37.9166733,36.4166625 38.88888,36 40,36 C41.11112,36 42.0833267,36.4166625 42.9166667,37.25 C43.7500067,38.0833373 44.1666667,39.05555 44.1666667,40.1666667 C44.1666667,41.2777833 43.7500067,42.249996 42.9166667,43.0833333 C42.0833267,43.9166733 41.11112,44.3333333 40,44.3333333 Z"></path>
        </g>
    </g>
</svg>