<?xml version="1.0" encoding="UTF-8"?>
<svg width="120px" height="120px" viewBox="0 0 120 120" version="1.1" xmlns="http://www.w3.org/2000/svg" xmlns:xlink="http://www.w3.org/1999/xlink">
    <!-- Generator: Sketch 48.2 (47327) - http://www.bohemiancoding.com/sketch -->
    <title>Icon/Device status/Disabled live preview multi color</title>
    <desc>Created with Sketch.</desc>
    <defs></defs>
    <g id="Icons-for-Github" stroke="none" stroke-width="1" fill="none" fill-rule="evenodd">
        <g id="Icon/Device-status/Disabled-live-preview-multi-color">
            <circle id="Base-Circle" fill="#8F99B3" cx="60" cy="60" r="45"></circle>
            <path d="M50.4902555,77.4519817 L59.079836,68.9603181 C59.3828526,68.9865801 59.6897766,69 60,69 C65.5228475,69 70,64.7467051 70,59.5 C70,59.0761159 69.9707771,58.6587158 69.9141409,58.2495189 L79.9787081,48.2996828 C83.8086403,51.2844546 87.4824043,55.1845603 91,60 C81.7472182,72.6666667 71.4138848,79 60,79 C56.7420476,79 53.5721328,78.4839939 50.4902555,77.4519817 Z M39.0976502,70.9602601 C35.5997737,68.0804789 32.2338903,64.4270589 29,60 C38.2527818,47.3333333 48.5861152,41 60,41 C62.8113512,41 65.557147,41.3842338 68.2373874,42.1527015 L60.2954872,50.0040679 C60.1973395,50.0013622 60.0988372,50 60,50 C54.4771525,50 50,54.2532949 50,59.5 C50,59.7214488 50.0079758,59.9411278 50.0236694,60.1587921 L39.0976502,70.9602601 Z M82.547622,37.3303644 C83.5521249,38.3305698 83.5556086,39.955707 82.5554032,40.9602098 C82.5508013,40.9648315 82.5461817,40.9694357 82.5415446,40.9740223 L40.5957476,82.4626318 C39.5779418,83.4693441 37.9386489,83.4666098 36.924207,82.4565079 C35.9197041,81.4563025 35.9162204,79.8311653 36.9164258,78.8266625 C36.9210277,78.8220407 36.9256473,78.8174366 36.9302844,78.81285 L78.8760814,37.3242405 C79.8938872,36.3175282 81.5331802,36.3202625 82.547622,37.3303644 Z" id="Eye-off" fill="#252C3F"></path>
        </g>
    </g>
</svg>