<?xml version="1.0" encoding="UTF-8"?>
<svg width="120px" height="120px" viewBox="0 0 120 120" version="1.1" xmlns="http://www.w3.org/2000/svg" xmlns:xlink="http://www.w3.org/1999/xlink">
    <!-- Generator: Sketch 48.2 (47327) - http://www.bohemiancoding.com/sketch -->
    <title>Icon/Plus</title>
    <desc>Created with Sketch.</desc>
    <defs>
        <path d="M64,56 L83,56 C83.5522847,56 84,56.4477153 84,57 L84,63 C84,63.5522847 83.5522847,64 83,64 L64,64 L64,83 C64,83.5522847 63.5522847,84 63,84 L57,84 C56.4477153,84 56,83.5522847 56,83 L56,64 L37,64 C36.4477153,64 36,63.5522847 36,63 L36,57 C36,56.4477153 36.4477153,56 37,56 L56,56 L56,37 C56,36.4477153 56.4477153,36 57,36 L63,36 C63.5522847,36 64,36.4477153 64,37 L64,56 Z" id="path-1"></path>
    </defs>
    <g id="Icons" stroke="none" stroke-width="1" fill="none" fill-rule="evenodd">
        <g id="Icon/Plus">
            <mask id="mask-2" fill="white">
                <use xlink:href="#path-1"></use>
            </mask>
            <use fill="#FFFFFF" xlink:href="#path-1"></use>
            <g id="Color-alias/Icons/Icon-Light" mask="url(#mask-2)" fill="#FFFFFF">
                <g id="Color/White">
                    <rect id="Sample" x="0" y="0" width="120" height="120"></rect>
                </g>
            </g>
        </g>
    </g>
</svg>