<?xml version="1.0" encoding="UTF-8"?>
<svg width="120px" height="120px" viewBox="0 0 120 120" version="1.1" xmlns="http://www.w3.org/2000/svg" xmlns:xlink="http://www.w3.org/1999/xlink">
    <!-- Generator: Sketch 48.2 (47327) - http://www.bohemiancoding.com/sketch -->
    <title>icon-stop</title>
    <desc>Created with Sketch.</desc>
    <defs></defs>
    <g id="Icons-for-Github" stroke="none" stroke-width="1" fill="none" fill-rule="evenodd">
        <g id="icon-stop" fill="#000000">
            <path d="M85,37.0833312 L85,82.9166666 C85,83.480906 84.7938354,83.9691822 84.3815063,84.3815104 C83.9691844,84.7938388 83.4809052,85 82.9166688,85 L37.0833334,85 C36.519094,85 36.0308178,84.7938388 35.6184896,84.3815104 C35.2061612,83.9691822 35,83.480906 35,82.9166666 L35,37.0833312 C35,36.5190948 35.2061612,36.0308156 35.6184896,35.6184937 C36.0308178,35.2061646 36.519094,35 37.0833334,35 L82.9166688,35 C83.4809052,35 83.9691844,35.2061646 84.3815063,35.6184937 C84.7938354,36.0308156 85,36.5190948 85,37.0833312 Z" id="icon-Stop"></path>
        </g>
    </g>
</svg>