<?xml version="1.0" encoding="UTF-8"?>
<svg width="120px" height="120px" viewBox="0 0 120 120" version="1.1" xmlns="http://www.w3.org/2000/svg" xmlns:xlink="http://www.w3.org/1999/xlink">
    <!-- Generator: Sketch 48.2 (47327) - http://www.bohemiancoding.com/sketch -->
    <title>icon-collapse</title>
    <desc>Created with Sketch.</desc>
    <defs></defs>
    <g id="Icons-for-Github" stroke="none" stroke-width="1" fill="none" fill-rule="evenodd">
        <g id="icon-collapse" fill="#000000">
            <path d="M64.10938,55.04688 C64.26563,55.35938 64.5,55.67188 64.8125,55.98438 C65.125,56.29688 65.4375,56.53125 65.75,56.6875 C65.90625,56.84376 66.1276,56.9349 66.41406,56.96094 C66.70052,56.98698 66.92187,57 67.07812,57 L87.07812,57 C88.06771,57 88.875,56.70053 89.5,56.10157 C90.125,55.50261 90.4375,54.70834 90.4375,53.71876 C90.4375,52.67708 90.125,51.85678 89.5,51.25782 C88.875,50.65886 88.06771,50.35938 87.07812,50.35938 L75.04688,50.35938 L92.78125,32.70313 C93.40625,32.02604 93.71875,31.2448 93.71875,30.35938 C93.71875,29.47396 93.40625,28.69272 92.78125,28.01563 C92.41666,27.70313 92.01302,27.45574 91.57031,27.27344 C91.1276,27.09115 90.75,27 90.4375,27 C90.07291,27 89.66927,27.09115 89.22656,27.27344 C88.78385,27.45574 88.40625,27.70313 88.09375,28.01563 L70.4375,45.67188 L70.4375,33.71876 C70.4375,32.67708 70.125,31.85678 69.5,31.25782 C68.875,30.65886 68.06771,30.35938 67.07812,30.35938 C66.08854,30.35938 65.28125,30.65886 64.65625,31.25782 C64.03125,31.85678 63.71875,32.67708 63.71875,33.71876 L63.71875,53.71876 C63.71875,53.87501 63.73177,54.09636 63.75781,54.38282 C63.78385,54.66928 63.90104,54.89063 64.10938,55.04688 Z M32.625,92.625 L50.28125,74.96874 L50.28125,87 C50.28125,87.98958 50.593747,88.78385 51.21875,89.38281 C51.843753,89.98177 52.651037,90.28124 53.640625,90.28124 C54.630213,90.28124 55.437497,89.98177 56.0625,89.38281 C56.6875031,88.78385 57,87.98958 57,87 L57,66.999995 C57,66.791661 56.9869793,66.557288 56.9609375,66.29687 C56.9348957,66.036452 56.8177094,65.828121 56.609375,65.67187 C56.4531242,65.307285 56.2187516,64.968747 55.90625,64.656245 C55.593748,64.3437434 55.281252,64.1093708 54.96875,63.95312 C54.812499,63.7968692 54.591147,63.7057243 54.304688,63.6796825 C54.018228,63.6536407 53.796876,63.64062 53.640625,63.64062 L33.64062,63.64062 C32.65104,63.64062 31.84375,63.9400962 31.21875,64.5390575 C30.59375,65.138019 30.28125,65.958323 30.28125,66.999995 C30.28125,67.989583 30.59375,68.783846 31.21875,69.382808 C31.84375,69.981769 32.65104,70.281245 33.64062,70.281245 L45.67188,70.281245 L27.9375,87.9375 C27.3125,88.61458 27,89.39582 27,90.28124 C27,91.16667 27.3125,91.94791 27.9375,92.625 C28.61459,93.30208 29.39583,93.64062 30.28125,93.64062 C31.16667,93.64062 31.94791,93.30208 32.625,92.625 Z" id="icon-Exit-full-screen"></path>
        </g>
    </g>
</svg>