<?xml version="1.0" encoding="UTF-8"?>
<svg width="49px" height="49px" viewBox="0 0 49 49" version="1.1" xmlns="http://www.w3.org/2000/svg" xmlns:xlink="http://www.w3.org/1999/xlink">
    <g id="Icons" stroke="none" stroke-width="1" fill="none" fill-rule="evenodd" transform="translate(-989.000000, -1454.000000)">
        <g id="Icon/Thumbs-down/White" transform="translate(973.000000, 1437.000000)" fill="#FFFFFF">
            <path d="M64.2798431,23.7916667 C64.0715097,21.8819333 63.2729031,20.3281333 61.8840097,19.1302067 C60.4951164,17.9322867 58.8631831,17.3333333 56.9881764,17.3333333 C56.9881764,17.3333333 56.9708164,17.3333333 56.9360964,17.3333333 C56.9013697,17.3333333 56.8319297,17.3333333 56.7277631,17.3333333 L25.8423431,17.3333333 C24.1756697,17.3333333 22.7347097,17.87152 21.5194264,18.9479133 C20.3041424,20.0243133 19.5229004,21.34374 19.1756764,22.9062467 L16.0506764,42.9062467 C15.842342,44.6770933 16.2763655,46.3177 17.3527597,47.8281267 C18.4291537,49.3385467 19.8527511,50.2152733 21.6235931,50.4583333 C21.8666497,50.4583333 22.0576204,50.4583333 22.1965097,50.4583333 C22.3353991,50.4583333 22.5090097,50.4583333 22.7173431,50.4583333 L33.1860964,50.4583333 L33.1860964,57.125 C33.1860964,59.555568 34.0541431,61.63888 35.7902564,63.375 C37.5263764,65.11112 39.6270497,65.9791667 42.0923431,65.9791667 C42.5090097,65.9791667 42.9169964,65.8750011 43.3163031,65.6666667 C43.7156097,65.4583323 43.9673431,65.1284747 44.0715097,64.6770833 L52.3006764,45.9791667 L56.7277631,45.9791667 C58.6374897,45.9791667 60.2867831,45.3802133 61.6756764,44.1822933 C63.0645697,42.9843667 63.8631764,41.4479267 64.0715097,39.5729133 C64.0715097,39.5729133 64.0715097,39.5295133 64.0715097,39.4427067 C64.0715097,39.3559 64.0715097,39.3125 64.0715097,39.3125 L64.0715097,24 C64.1756764,24 64.2364431,23.96528 64.2538031,23.8958333 C64.2711631,23.8263867 64.2798431,23.7916667 64.2798431,23.7916667 Z M48.7590097,43.5312467 L40.7381764,61.5520833 C39.8353964,61.2048593 39.0888764,60.66667 38.4985897,59.9375 C37.9083097,59.2083267 37.6131764,58.34028 37.6131764,57.3333333 L37.6131764,48.4270867 C37.6131764,47.76736 37.4135231,47.2378467 37.0142164,46.83854 C36.6149097,46.4392333 36.0854031,46.23958 35.4256764,46.23958 L22.7173431,46.23958 C22.7173431,46.23958 22.6739431,46.23958 22.5871364,46.23958 C22.5003297,46.23958 22.4048431,46.23958 22.3006764,46.23958 C21.7451184,46.1006933 21.2850531,45.79688 20.9204684,45.3281267 C20.5558831,44.8593733 20.4256757,44.3472267 20.5298431,43.7916667 L23.6548431,23.7916667 C23.7590097,23.2361067 24.0107431,22.75868 24.4100497,22.3593733 C24.8093564,21.9600667 25.2867831,21.76042 25.8423431,21.76042 L48.7590097,21.76042 L48.7590097,43.5312467 Z M59.8527631,39.3125 C59.7485897,40.0069467 59.4100564,40.58854 58.8371364,41.0572933 C58.2642164,41.5260467 57.6479031,41.76042 56.9881764,41.76042 L53.1860964,41.76042 L53.1860964,21.76042 L56.9881764,21.76042 C57.6479031,21.6562467 58.2642164,21.84722 58.8371364,22.3333333 C59.4100564,22.8194467 59.7485897,23.44444 59.8527631,24.2083333 L59.8527631,39.3125 Z"></path>
        </g>
    </g>
</svg>