<?xml version="1.0" encoding="UTF-8"?>
<svg width="120px" height="120px" viewBox="0 0 120 120" version="1.1" xmlns="http://www.w3.org/2000/svg" xmlns:xlink="http://www.w3.org/1999/xlink">
    <!-- Generator: Sketch 48.2 (47327) - http://www.bohemiancoding.com/sketch -->
    <title>icon-dongle</title>
    <desc>Created with Sketch.</desc>
    <defs></defs>
    <g id="Icons-for-Github" stroke="none" stroke-width="1" fill="none" fill-rule="evenodd">
        <g id="icon-dongle" fill="#000000">
            <path d="M50,23 L50,10 L70,10 L70,23 L72,23 C76.418278,23 80,26.581722 80,31 L80,42.184597 C80,47.534067 81.195825,52.8158829 83.5,57.6436782 L84.2694691,59.255899 C86.0670751,63.0223117 87,67.1429294 87,71.3163275 L87,94 C87,103.388841 79.3888407,111 70,111 L50,111 C40.6111593,111 33,103.388841 33,94 L33,70.482834 C33,66.8470971 33.7080758,63.2461594 35.0846852,59.8811143 L36,57.6436782 C37.981032,52.8011555 39,47.6191679 39,42.3871019 L39,31 C39,26.581722 42.581722,23 47,23 L50,23 Z M48.6625187,61.6094383 C43.5351465,62.1606748 39.5670276,66.3537504 39.2990743,71.5037027 C39.0996914,75.3358018 39,79.1679009 39,83 C39,86.832098 39.0996914,90.664196 39.2990742,94.496294 C39.5670245,99.6462474 43.5351441,103.839324 48.662517,104.390562 C52.441678,104.796854 56.220839,105 60,105 C63.7791604,105 67.5583209,104.796854 71.3374813,104.390562 C76.4648535,103.839325 80.4329724,99.6462496 80.7009257,94.4962973 C80.9003086,90.6641982 81,86.8320991 81,83 C81,79.167902 80.9003086,75.335804 80.7009258,71.503706 C80.4329755,66.3537526 76.4648559,62.1606762 71.337483,61.6094385 C67.558322,61.2031462 63.779161,61 60,61 C56.2208396,61 52.4416791,61.2031461 48.6625187,61.6094383 Z M49.3671376,65.6540585 C52.9114251,65.2180195 56.4557125,65 60,65 C63.5442872,65 67.0885745,65.2180195 70.6328617,65.6540584 C74.0296901,66.071956 76.6263015,68.8847497 76.7717967,72.3040936 C76.9239322,75.8794967 77,79.4548999 77,83.030303 C77,86.6057052 76.9239323,90.1811074 76.7717968,93.7565096 C76.6263044,97.1758548 74.029692,99.9886497 70.6328624,100.406548 C67.0885749,100.842587 63.5442875,101.060606 60,101.060606 C56.4557128,101.060606 52.9114255,100.842587 49.3671383,100.406548 C45.9703099,99.9886501 43.3736985,97.1758563 43.2282033,93.7565125 C43.0760678,90.1811093 43,86.6057062 43,83.030303 C43,79.4549008 43.0760677,75.8794987 43.2282032,72.3040965 C43.3736956,68.8847512 45.970308,66.0719564 49.3671376,65.6540585 Z M54.3527568,87.6647389 C55.8822095,86.5740606 57.9299025,86.516126 59.5199432,87.5185458 L60.1119298,87.8917558 C62.5810345,89.4483696 65.7608074,89.3584055 68.1358276,87.6647389 L68.8239451,87.1740308 C69.0138996,87.0385711 69.0568321,86.776963 68.9199067,86.5892912 L67.9273786,85.2289204 C67.7898793,85.0412539 67.5242079,84.9990871 67.3339848,85.1347384 L66.6472432,85.6244653 C65.1177905,86.7151436 63.0700975,86.7730782 61.4800568,85.7706584 L60.8880702,85.3974485 C58.4189655,83.8408347 55.2391926,83.9307987 52.8641724,85.6244653 L52.1760549,86.1151734 C51.9861004,86.2506332 51.9431679,86.5122412 52.0800933,86.699913 L53.0726214,88.0602838 C53.2101207,88.2479504 53.4757921,88.2901171 53.6660152,88.1544658 L54.3527568,87.6647389 Z M54.3527568,81.3755347 C55.8822095,80.2848564 57.9299025,80.2269218 59.5199432,81.2293416 L60.1119298,81.6025515 C62.5810345,83.1591653 65.7608074,83.0692013 68.1358276,81.3755347 L68.8239451,80.8848266 C69.0138996,80.7493668 69.0568321,80.4877588 68.9199067,80.300087 L67.9273786,78.9397162 C67.7898793,78.7520496 67.5242079,78.7098829 67.3339848,78.8455342 L66.6472432,79.3352611 C65.1177905,80.4259394 63.0700975,80.483874 61.4800568,79.4814542 L60.8880702,79.1082442 C58.4189655,77.5516304 55.2391926,77.6415945 52.8641724,79.3352611 L52.1760549,79.8259692 C51.9861004,79.9614289 51.9431679,80.223037 52.0800933,80.4107088 L53.0726214,81.7710796 C53.2101207,81.9587461 53.4757921,82.0009129 53.6660152,81.8652616 L54.3527568,81.3755347 Z" id="icon-Dongle" transform="translate(60.000000, 60.500000) rotate(25.000000) translate(-60.000000, -60.500000) "></path>
        </g>
    </g>
</svg>