<?xml version="1.0" encoding="UTF-8"?>
<svg width="120px" height="120px" viewBox="0 0 120 120" version="1.1" xmlns="http://www.w3.org/2000/svg" xmlns:xlink="http://www.w3.org/1999/xlink">
    <!-- Generator: Sketch 48.2 (47327) - http://www.bohemiancoding.com/sketch -->
    <title>icon-power</title>
    <desc>Created with Sketch.</desc>
    <defs></defs>
    <g id="Icons-for-Github" stroke="none" stroke-width="1" fill="none" fill-rule="evenodd">
        <g id="icon-power" fill="#000000" fill-rule="nonzero">
            <path d="M92.57143,63 C92.57143,57.8929142 91.4454139,53.0951133 89.1888264,48.5819287 C86.9329366,44.0701585 83.7656375,40.2945677 79.6539843,37.224784 C78.8257219,36.5937275 77.942275,36.3612418 76.8868835,36.5006301 C75.8543114,36.6370112 75.0970472,37.0877645 74.4658579,37.9620937 C73.8385229,38.7854631 73.6135944,39.6530449 73.761148,40.6859002 C73.9101855,41.7291362 74.37142,42.5164966 75.196275,43.144987 C78.3573323,45.5319067 80.8122236,48.4648112 82.5433144,51.9269928 C84.2748562,55.3900765 85.14286,59.0892205 85.14286,63 C85.14286,66.3652971 84.4854857,69.587225 83.1731114,72.6494354 C81.8688343,75.6927632 80.0966195,78.3389476 77.8606436,80.5749236 C75.6246676,82.8108995 72.9784832,84.5831143 69.9351633,85.887388 C66.872963,87.1997689 63.6510346,87.85714 60.28571,87.85714 C56.920394,87.85714 53.6984657,87.1997684 50.6362746,85.8873914 C47.5929468,84.5831143 44.9467624,82.8108995 42.7107864,80.5749236 C40.4748105,78.3389476 38.7025957,75.6927632 37.398322,72.6494433 C36.0859416,69.5872443 35.42857,66.365316 35.42857,63 C35.42857,59.0892108 36.2965681,55.3900679 38.0281056,51.9269928 C39.7591931,48.4648179 42.2140915,45.5319114 45.3682663,43.1502121 C46.20001,42.5164966 46.6612445,41.7291362 46.81028,40.6859144 C46.9578283,39.6530496 46.7328976,38.7854593 46.0740803,37.9196074 C45.4730187,37.0858814 44.7216095,36.6359342 43.7044284,36.5003066 C42.6604544,36.3611132 41.762273,36.5962394 40.9018454,37.2365499 C36.8057875,40.2945693 33.6384879,44.0701602 31.3826044,48.5819272 C29.1260145,53.0951069 28,57.8929063 28,63 C28,67.3721059 28.8527405,71.537953 30.5608338,75.5141693 C32.2775966,79.5105649 34.5756856,82.9436876 37.4588533,85.8268562 C40.3420224,88.7100244 43.7751451,91.0081134 47.7715403,92.724876 C51.747757,94.4329695 55.9136041,95.28571 60.28571,95.28571 C64.657815,95.28571 68.8236628,94.4329699 72.7998893,92.7248762 C76.7962748,91.0081177 80.2293912,88.7100313 83.1125764,85.8268564 C85.9957461,82.9436867 88.2938332,79.5105645 90.0105908,75.5141679 C91.718688,71.5379534 92.57143,67.3721071 92.57143,63 Z M64,28.71428 C64,27.7020672 63.6486532,26.8699303 62.8893627,26.1106398 C62.1300629,25.3513468 61.2979224,25 60.28571,25 C59.2735068,25 58.4413665,25.3513473 57.6820736,26.1106336 C56.9227768,26.8699303 56.57143,27.7020672 56.57143,28.71428 L56.57143,57.28571 C56.57143,58.2979228 56.9227768,59.1300597 57.6820736,59.8893564 C58.4413698,60.6486526 59.2735065,61 60.28571,61 C61.2979228,61 62.1300597,60.6486532 62.8893564,59.8893564 C63.6486532,59.1300597 64,58.2979228 64,57.28571 L64,28.71428 Z" id="icon-Power"></path>
        </g>
    </g>
</svg>