<?xml version="1.0" encoding="UTF-8"?>
<svg width="26px" height="26px" viewBox="0 0 26 26" version="1.1" xmlns="http://www.w3.org/2000/svg" xmlns:xlink="http://www.w3.org/1999/xlink">
    <g id="Icons" stroke="none" stroke-width="1" fill="none" fill-rule="evenodd" transform="translate(-1000.000000, -433.000000)">
        <g id="Icon/Cross/White" transform="translate(973.000000, 406.000000)" fill="#F2F2F2">
            <path d="M42.6666667,37.3333333 L55,37.3333333 C55.5522847,37.3333333 56,37.7810486 56,38.3333333 L56,41.6666667 C56,42.2189514 55.5522847,42.6666667 55,42.6666667 L42.6666667,42.6666667 L42.6666667,55 C42.6666667,55.5522847 42.2189514,56 41.6666667,56 L38.3333333,56 C37.7810486,56 37.3333333,55.5522847 37.3333333,55 L37.3333333,42.6666667 L25,42.6666667 C24.4477153,42.6666667 24,42.2189514 24,41.6666667 L24,38.3333333 C24,37.7810486 24.4477153,37.3333333 25,37.3333333 L37.3333333,37.3333333 L37.3333333,25 C37.3333333,24.4477153 37.7810486,24 38.3333333,24 L41.6666667,24 C42.2189514,24 42.6666667,24.4477153 42.6666667,25 L42.6666667,37.3333333 Z" transform="translate(40.000000, 40.000000) rotate(45.000000) translate(-40.000000, -40.000000) "></path>
        </g>
    </g>
</svg>