<?xml version="1.0" encoding="UTF-8"?>
<svg width="47px" height="47px" viewBox="0 0 47 47" version="1.1" xmlns="http://www.w3.org/2000/svg" xmlns:xlink="http://www.w3.org/1999/xlink">
    <g id="Icons" stroke="none" stroke-width="1" fill="none" fill-rule="evenodd" transform="translate(-315.000000, -1041.000000)">
        <g id="Icon/Search/White" transform="translate(299.000000, 1025.000000)" fill="#FFFFFF">
            <path d="M61.4391852,57.6460933 L48.9662679,45.1632508 C50.127536,43.701638 51.0565351,42.7928497 51.7532908,40.8329626 C52.4500529,38.8730756 52.7984276,36.8301736 52.7984276,34.7041867 C52.7984276,32.2128092 52.3173397,29.8709428 51.3551447,27.6785235 C50.4261328,25.4861042 49.1404712,23.5760733 47.4981089,21.9483669 C45.8557466,20.3206669 43.939689,19.0251667 41.7498726,18.0618345 C39.5600562,17.131712 37.22097,16.6666667 34.7325503,16.6666667 C32.2441243,16.6666667 29.9050381,17.131712 27.7152217,18.0618345 C25.5254052,19.0251667 23.6093477,20.3206669 21.9669866,21.9483669 C20.3246262,23.5760733 19.0389589,25.4861042 18.1099464,27.6785235 C17.1477551,29.8709428 16.6666667,32.2128092 16.6666667,34.7041867 C16.6666667,37.228793 17.1477551,39.5872676 18.1099464,41.7796868 C19.0389589,43.9720997 20.3246262,45.8821307 21.9669866,47.5098371 C23.6093477,49.1375434 25.5254052,50.4330436 27.7152217,51.3963759 C29.9050381,52.326492 32.2441243,52.7915437 34.7325503,52.7915437 C36.8560006,52.7915437 38.8633068,52.4427549 40.7545073,51.745171 C42.6457077,51.0475807 43.5856547,50.1174774 45.1782456,48.9548354 L57.6511628,61.4376779 C58.6963647,62.4837115 60.3916459,62.4843857 61.4376794,61.4391839 C61.4382273,61.4386365 61.4387748,61.4380889 61.4393222,61.437541 L61.4393222,61.437541 C62.4856214,60.3902578 62.4855601,58.6933008 61.4391852,57.6460933 Z M22.0369442,34.7061573 C22.0369442,32.9624462 22.3577688,31.3105326 22.9994268,29.7503636 C23.6716401,28.2207957 24.5806437,26.8747874 25.7264591,25.7123095 C26.8722805,24.5498374 28.2243231,23.6474043 29.7826399,23.0049807 C31.3103919,22.3319678 32.9603502,21.9954672 34.7325501,21.9954672 C36.504744,21.9954672 38.1547023,22.3319678 39.6824602,23.0049807 C41.2407711,23.6474043 42.5928138,24.5498374 43.7386351,25.7123095 C44.8844506,26.8747874 45.7934565,28.2207957 46.4656704,29.7503636 C47.1073254,31.3105326 47.42815,32.9624462 47.42815,34.7061573 C47.42815,36.4804636 47.1073254,38.132383 46.4656704,39.661951 C45.8240095,41.1915247 44.9073712,42.5528277 43.7157203,43.745895 C42.5546225,44.9083729 41.2102122,45.8184534 39.6824602,46.4761717 C38.1547023,47.133884 36.504744,47.4627432 34.7325501,47.4627432 C32.9603502,47.4627432 31.3103919,47.1262367 29.7826399,46.4532238 C28.2243231,45.7802167 26.8722805,44.8701304 25.7264591,43.722953 C24.5806437,42.5757697 23.6716401,41.22212 22.9994268,39.661951 C22.3577688,38.132383 22.0369442,36.4804636 22.0369442,34.7061573 Z"></path>
        </g>
    </g>
</svg>