<?xml version="1.0" encoding="UTF-8"?>
<svg width="120px" height="120px" viewBox="0 0 120 120" version="1.1" xmlns="http://www.w3.org/2000/svg" xmlns:xlink="http://www.w3.org/1999/xlink">
    <!-- Generator: Sketch 48.2 (47327) - http://www.bohemiancoding.com/sketch -->
    <title>Icon/Window</title>
    <desc>Created with Sketch.</desc>
    <defs></defs>
    <g id="Icons-for-Github" stroke="none" stroke-width="1" fill="none" fill-rule="evenodd">
        <g id="Icon/Window" fill="#000000" fill-rule="nonzero">
            <path d="M54.7324356,42 L84,42 C85.6568542,42 87,43.3431458 87,45 L87,75.0010813 L101.999628,75.0010813 L101.999628,34 L40,34 L40,42 L44.2675644,42 C44.0973943,41.7058266 44,41.3642871 44,41 C44,39.8954305 44.8954305,39 46,39 C47.1045695,39 48,39.8954305 48,41 C48,41.3642871 47.9026057,41.7058266 47.7324356,42 L51.2675644,42 C51.0973943,41.7058266 51,41.3642871 51,41 C51,39.8954305 51.8954305,39 53,39 C54.1045695,39 55,39.8954305 55,41 C55,41.3642871 54.9026057,41.7058266 54.7324356,42 Z M36,42 L36,34 C36,31.790861 37.790861,30 40,30 L101.999628,30 C104.208767,30 105.999628,31.790861 105.999628,34 L105.999628,75.0010813 C105.999628,77.2102203 104.208767,79.0010813 101.999628,79.0010813 L87,79.0010813 L87,90 C87,91.6568542 85.6568542,93 84,93 L18,93 C16.3431458,93 15,91.6568542 15,90 L15,45 C15,43.3431458 16.3431458,42 18,42 L36,42 Z M26,54 C27.1045695,54 28,53.1045695 28,52 C28,50.8954305 27.1045695,50 26,50 C24.8954305,50 24,50.8954305 24,52 C24,53.1045695 24.8954305,54 26,54 Z M33,54 C34.1045695,54 35,53.1045695 35,52 C35,50.8954305 34.1045695,50 33,50 C31.8954305,50 31,50.8954305 31,52 C31,53.1045695 31.8954305,54 33,54 Z"></path>
        </g>
    </g>
</svg>