<?xml version="1.0" encoding="UTF-8"?>
<svg width="120px" height="120px" viewBox="0 0 120 120" version="1.1" xmlns="http://www.w3.org/2000/svg" xmlns:xlink="http://www.w3.org/1999/xlink">
    <!-- Generator: Sketch 48.2 (47327) - http://www.bohemiancoding.com/sketch -->
    <title>Icon/Emoji Neutral multi color</title>
    <desc>Created with Sketch.</desc>
    <defs></defs>
    <g id="Icons" stroke="none" stroke-width="1" fill="none" fill-rule="evenodd">
        <g id="Icon/Emoji-Neutral-multi-color">
            <circle id="Base-Circle" fill="#FFC233" cx="60" cy="60" r="36"></circle>
            <path d="M48.5,58 C46.0147186,58 44,55.5375661 44,52.5 C44,49.4624339 46.0147186,47 48.5,47 C50.9852814,47 53,49.4624339 53,52.5 C53,55.5375661 50.9852814,58 48.5,58 Z M72.5,58 C70.0147186,58 68,55.5375661 68,52.5 C68,49.4624339 70.0147186,47 72.5,47 C74.9852814,47 77,49.4624339 77,52.5 C77,55.5375661 74.9852814,58 72.5,58 Z M44.5,72 L75.5,72 C76.8807119,72 78,73.1192881 78,74.5 C78,75.8807119 76.8807119,77 75.5,77 L44.5,77 C43.1192881,77 42,75.8807119 42,74.5 C42,73.1192881 43.1192881,72 44.5,72 Z" id="Face-neutral" fill="#623F08"></path>
        </g>
    </g>
</svg>