<?xml version="1.0" encoding="UTF-8"?>
<svg width="55px" height="56px" viewBox="0 0 55 56" version="1.1" xmlns="http://www.w3.org/2000/svg" xmlns:xlink="http://www.w3.org/1999/xlink">
    <g id="Icons" stroke="none" stroke-width="1" fill="none" fill-rule="evenodd" transform="translate(-758.000000, -212.000000)">
        <g id="Icon/Airtames-small-Offline/White" transform="translate(745.000000, 200.000000)" fill="#FFFFFF">
            <path d="M51.4430425,23.2906275 L33.5269437,41.2067263 C31.716991,41.7537096 30.2987683,43.1825864 29.742351,44.991319 L26,48.73367 L26,45.8024767 C26,43.8106209 26.3846338,41.8378299 27.1324216,39.9942738 L27.6296296,38.7684837 C28.7057458,36.1154845 29.2592593,33.2765078 29.2592593,30.4100955 L29.2592593,24.1716172 C29.2592593,21.7510424 31.204886,19.7887789 33.6049383,19.7887789 L35.2345679,19.7887789 L35.2345679,12.6666667 L46.0987654,12.6666667 L46.0987654,19.7887789 L47.1851852,19.7887789 C49.2860388,19.7887789 51.0387051,21.292293 51.4430425,23.2906275 Z M52.2702261,35.6627706 C52.5691564,36.7260969 52.9573118,37.7651858 53.4320988,38.7684837 L53.850082,39.6517467 C54.8265593,41.7151939 55.3333333,43.972694 55.3333333,46.2591101 L55.3333333,58.6864686 C55.3333333,63.83019 51.1988765,68 46.0987654,68 L35.2345679,68 C31.1079181,68 27.6134727,65.2700654 26.4298394,61.5031572 L29.4711852,58.4618114 C29.4787269,58.6203317 29.486578,58.7788521 29.4947384,58.9373725 C29.6393466,61.746438 31.7808714,64.0335706 34.5480251,64.3342457 C36.5875723,64.5558597 38.6271195,64.6666667 40.6666667,64.6666667 C42.7062136,64.6666667 44.7457605,64.5558597 46.7853074,64.3342458 C49.5524606,64.0335713 51.6939851,61.7464392 51.8385948,58.9373743 C51.9461983,56.8471384 52,54.7569025 52,52.6666667 C52,50.5764314 51.9461983,48.4861961 51.8385949,46.3959608 C51.6963053,43.631934 49.62062,41.3732375 46.91792,41.015076 L52.2702261,35.6627706 Z M44.9383243,42.9946723 C45.4397303,43.0406833 45.9411362,43.0947956 46.4425422,43.1570089 C48.2877329,43.3859561 49.6982379,44.9269586 49.7772723,46.8002625 C49.8599138,48.7590642 49.9012346,50.7178659 49.9012346,52.6766677 C49.9012346,54.6354689 49.8599138,56.5942701 49.7772723,58.5530713 C49.6982394,60.4263759 48.2877339,61.967379 46.4425425,62.1963264 C44.5172506,62.4352124 42.5919586,62.5546555 40.6666667,62.5546555 C38.7413748,62.5546555 36.816083,62.4352125 34.8907912,62.1963264 C33.0456004,61.9673793 31.6350955,60.4263767 31.5560611,58.5530728 C31.526482,57.8519792 31.5021965,57.1508856 31.4832044,56.4497919 L36.5017519,51.4312448 L36.9036462,51.9867961 C36.9783371,52.0896101 37.1226525,52.1127113 37.2259836,52.0383941 L37.5990284,51.7700949 C38.4298422,51.1725616 39.5421693,51.1408219 40.4058951,51.6900023 L40.727468,51.8944672 C42.0687101,52.7472655 43.7959941,52.6979783 45.0861286,51.7700949 L45.4599208,51.5012581 C45.563106,51.4270459 45.5864273,51.2837226 45.5120481,51.1809058 L44.972897,50.4356201 C44.8982061,50.3328061 44.7538907,50.3097048 44.6505596,50.384022 L44.2775148,50.6523213 C43.446701,51.2498546 42.334374,51.2815943 41.4706481,50.7324139 L41.1490752,50.527949 C40.1358935,49.8837404 38.9024217,49.7542957 37.8035071,50.1294895 L44.9383243,42.9946723 Z M53.8721375,34.0608591 L63.1362235,24.7967732 C63.7815776,25.4360994 64.1801802,26.3159128 64.1801802,27.2871287 L64.1801802,32.2334521 C64.1801802,34.5992243 64.7188401,36.9350769 65.7567568,39.0701415 L66.1033644,39.7831369 C66.9130969,41.4488111 67.3333333,43.2711305 67.3333333,45.1167917 L67.3333333,55.1485149 C67.3333333,59.3006754 63.9048832,62.6666667 59.6756757,62.6666667 L56.6625882,62.6666667 C56.9293543,61.9598624 57.1267693,61.2200085 57.2467205,60.4550701 C58.3382583,60.4103746 59.4297961,60.330421 60.5213339,60.2152092 C62.9409433,59.9598194 64.8135005,58.0171529 64.9399478,55.6311621 C65.0340366,53.8557373 65.0810811,52.0803125 65.0810811,50.3048876 C65.0810811,48.5294633 65.0340367,46.754039 64.9399478,44.9786147 C64.8135019,42.5926234 62.9409445,40.6499565 60.5213347,40.3945662 C59.0770613,40.2421231 57.632788,40.1514079 56.1885146,40.1224205 C56.02735,39.7138666 55.8502155,39.3107344 55.6573222,38.91394 L55.2319401,38.0389002 C54.61413,36.7680233 54.1585331,35.4319084 53.8721375,34.0608591 Z M52.9185516,21.8151184 C52.4220452,20.7454574 51.6394052,19.8307913 50.6666667,19.165406 L50.6666667,18 L56.73367,18 L52.9185516,21.8151184 Z M14.9563661,59.7773039 C13.9394539,58.5012091 13.3333333,56.894356 13.3333333,55.1485149 L13.3333333,44.748184 C13.3333333,43.1403004 13.6522864,41.5478065 14.2723807,40.0596347 L14.6846847,39.0701415 C15.5770414,36.9285638 16.036036,34.6368597 16.036036,32.3230088 L16.036036,27.2871287 C16.036036,25.3331708 17.6494243,23.7491749 19.6396396,23.7491749 L20.990991,23.7491749 L20.990991,18 L30,18 L30,19.165406 C28.2797103,20.3421411 27.1539722,22.2985261 27.1539722,24.5130513 L27.1539722,30.6934496 C27.1539722,33.251274 26.646581,35.7846165 25.6601337,38.1520032 L25.1541243,39.3663812 C25.0508145,39.6143155 24.9534642,39.8643142 24.8621152,40.1161684 C23.2898544,40.1358147 21.7175935,40.2286139 20.1453327,40.3945661 C17.7257234,40.6499559 15.8531662,42.5926224 15.7267189,44.9786132 C15.63263,46.754038 15.5855856,48.5294628 15.5855856,50.3048876 C15.5855856,52.080312 15.63263,53.8557363 15.7267188,55.6311606 C15.7758551,56.5583447 16.0886646,57.4185841 16.5947865,58.1388835 L14.9563661,59.7773039 Z M23.8977771,50.835893 L23.8453371,50.8883329 C23.30183,50.9507586 22.7717394,51.1449612 22.3082477,51.4694635 L21.9915772,51.6911726 C21.9041604,51.7523752 21.884403,51.8705736 21.9474158,51.9553664 L22.301642,52.4320281 L18.2448189,56.4888511 C18.0261849,56.083802 17.8947459,55.6271423 17.8737909,55.1436405 C17.8037783,53.5282214 17.7687721,51.9128024 17.7687721,50.2973833 C17.7687721,48.6819647 17.8037783,47.0665461 17.8737908,45.4511275 C17.9407462,43.9062177 19.1357028,42.6353562 20.6989181,42.4465439 C21.8959378,42.3019623 23.0929574,42.2104338 24.289977,42.1719583 C24.0298317,43.3778876 23.8977771,44.6099804 23.8977771,45.8484449 L23.8977771,48.041169 C23.3359699,48.0968572 22.7866347,48.2929789 22.3082477,48.6279098 L21.9915772,48.8496188 C21.9041604,48.9108215 21.884403,49.0290198 21.9474158,49.1138126 L22.4041756,49.7284479 C22.4674525,49.8132384 22.5897141,49.8322899 22.6772544,49.7710007 L22.9932918,49.549735 C23.2674497,49.3577901 23.5777916,49.2366385 23.8977771,49.1870174 L23.8977771,50.835893 Z M37.5990284,55.2156655 C38.4298422,54.6181322 39.5421693,54.5863925 40.4058951,55.1355729 L40.727468,55.3400378 C42.0687101,56.1928361 43.7959941,56.1435489 45.0861286,55.2156655 L45.4599208,54.9468288 C45.563106,54.8726165 45.5864273,54.7292933 45.5120481,54.6264764 L44.972897,53.8811907 C44.8982061,53.7783767 44.7538907,53.7552755 44.6505596,53.8295927 L44.2775148,54.0978919 C43.446701,54.6954252 42.334374,54.7271649 41.4706481,54.1779845 L41.1490752,53.9735196 C39.8078331,53.1207213 38.0805491,53.1700085 36.7904146,54.0978919 L36.4166224,54.3667287 C36.3134373,54.4409409 36.2901159,54.5842642 36.3644951,54.687081 L36.9036462,55.4323667 C36.9783371,55.5351807 37.1226525,55.558282 37.2259836,55.4839648 L37.5990284,55.2156655 Z M56.831174,42.1805318 C57.875102,42.2260113 58.9190299,42.3117963 59.9629578,42.4378867 C61.5279202,42.62691 62.7242123,43.8991918 62.7912438,45.4458282 C62.8613346,47.0630533 62.89638,48.6802783 62.89638,50.2975034 C62.89638,51.914728 62.8613346,53.5319527 62.7912439,55.1491773 C62.7242137,56.6958143 61.527921,57.9680966 59.9629581,58.15712 C59.0839531,58.2632903 58.2049481,58.3408843 57.3259432,58.3899021 L57.3259432,52.9691231 C57.8517554,52.900454 58.3633854,52.7082158 58.8125421,52.3937498 L59.1295667,52.1717929 C59.2170812,52.1105218 59.2368607,51.9921913 59.1737774,51.9073037 L58.716507,51.2919812 C58.6531593,51.207096 58.5307611,51.1880231 58.4431229,51.2493809 L58.1267322,51.470894 C57.8822804,51.6420408 57.6090934,51.7569676 57.3259432,51.8151528 L57.3259432,50.1243925 C57.8517554,50.0557234 58.3633854,49.8634852 58.8125421,49.5490192 L59.1295667,49.3270623 C59.2170812,49.2657912 59.2368607,49.1474607 59.1737774,49.0625731 L58.716507,48.4472507 C58.6531593,48.3623654 58.5307611,48.3432925 58.4431229,48.4046503 L58.1267322,48.6261634 C57.8822804,48.7973103 57.6090934,48.912237 57.3259432,48.9704222 L57.3259432,46.3062796 C57.3259432,44.9124512 57.1588756,43.5279024 56.831174,42.1805318 Z M62.2524531,16.2524531 C63.0335017,15.4714045 64.2998316,15.4714045 65.0808802,16.2524531 C65.8619288,17.0335017 65.8619288,18.2998316 65.0808802,19.0808802 L18.4094519,65.7523086 C17.6284033,66.5333571 16.3620734,66.5333571 15.5810248,65.7523086 C14.7999762,64.97126 14.7999762,63.70493 15.5810248,62.9238814 L62.2524531,16.2524531 Z" id="Icon/Airtames-small/White"></path>
        </g>
    </g>
</svg>