<?xml version="1.0" encoding="UTF-8"?>
<svg width="62px" height="40px" viewBox="0 0 62 40" version="1.1" xmlns="http://www.w3.org/2000/svg" xmlns:xlink="http://www.w3.org/1999/xlink">
    <g id="Icons" stroke="none" stroke-width="1" fill="none" fill-rule="evenodd" transform="translate(-308.000000, -839.000000)">
        <g id="Icon/Screen/White" transform="translate(299.000000, 819.000000)" fill="#FFFFFF" fill-rule="nonzero">
            <path d="M64,51.3333333 L70.1811624,55.0420308 C70.4823678,55.222754 70.6666667,55.5482609 70.6666667,55.8995237 L70.6666667,57.3333333 C70.6666667,58.4379028 69.7712362,59.3333333 68.6666667,59.3333333 L11.3333333,59.3333333 C10.2287638,59.3333333 9.33333333,58.4379028 9.33333333,57.3333333 L9.33333333,55.8995237 C9.33333333,55.5482609 9.51763217,55.222754 9.81883758,55.0420308 L16,51.3333333 L16,22.6666667 C16,21.5620972 16.8954305,20.6666667 18,20.6666667 L62,20.6666667 C63.1045695,20.6666667 64,21.5620972 64,22.6666667 L64,51.3333333 Z M18.6666667,23.3333333 L18.6666667,49.3333333 L61.3333333,49.3333333 L61.3333333,23.3333333 L18.6666667,23.3333333 Z M37.3333333,56.6666667 L37.3333333,58 L42.6666667,58 L42.6666667,56.6666667 L37.3333333,56.6666667 Z"></path>
        </g>
    </g>
</svg>