<?xml version="1.0" encoding="UTF-8"?>
<svg width="120px" height="120px" viewBox="0 0 120 120" version="1.1" xmlns="http://www.w3.org/2000/svg" xmlns:xlink="http://www.w3.org/1999/xlink">
    <!-- Generator: Sketch 48.2 (47327) - http://www.bohemiancoding.com/sketch -->
    <title>Icon/Emoji Sad multi color</title>
    <desc>Created with Sketch.</desc>
    <defs></defs>
    <g id="Icons" stroke="none" stroke-width="1" fill="none" fill-rule="evenodd">
        <g id="Icon/Emoji-Sad-multi-color">
            <circle id="Base-Circle" fill="#FF6658" cx="60" cy="60" r="36"></circle>
            <path d="M48.5,59 C46.0147186,59 44,56.5375661 44,53.5 C44,50.4624339 46.0147186,48 48.5,48 C50.9852814,48 53,50.4624339 53,53.5 C53,56.5375661 50.9852814,59 48.5,59 Z M72.5,59 C70.0147186,59 68,56.5375661 68,53.5 C68,50.4624339 70.0147186,48 72.5,48 C74.9852814,48 77,50.4624339 77,53.5 C77,56.5375661 74.9852814,59 72.5,59 Z M46.1708527,79.3596374 C45.1438033,80.2824239 43.563149,80.1979021 42.6403626,79.1708527 C41.7175761,78.1438033 41.8020979,76.563149 42.8291473,75.6403626 C47.2050494,71.7086889 53.1343196,69.7708876 60.5,69.7708876 C67.8656804,69.7708876 73.7949506,71.7086889 78.1708527,75.6403626 C79.1979021,76.563149 79.2824239,78.1438033 78.3596374,79.1708527 C77.436851,80.1979021 75.8561967,80.2824239 74.8291473,79.3596374 C71.4451366,76.3191613 66.7077402,74.7708876 60.5,74.7708876 C54.2922598,74.7708876 49.5548634,76.3191613 46.1708527,79.3596374 Z" id="Face-sad" fill="#782200"></path>
        </g>
    </g>
</svg>