<?xml version="1.0" encoding="UTF-8"?>
<svg width="120px" height="120px" viewBox="0 0 120 120" version="1.1" xmlns="http://www.w3.org/2000/svg" xmlns:xlink="http://www.w3.org/1999/xlink">
    <!-- Generator: Sketch 48.2 (47327) - http://www.bohemiancoding.com/sketch -->
    <title>icon-information</title>
    <desc>Created with Sketch.</desc>
    <defs></defs>
    <g id="Icons-for-Github" stroke="none" stroke-width="1" fill="none" fill-rule="evenodd">
        <g id="icon-information" fill="#000000">
            <path d="M48.3,49.93402 L68.109091,49.93402 C68.8270611,49.93402 69.4090909,50.5160498 69.4090909,51.2340199 L69.4090909,84.7606412 C69.4090909,85.4786113 69.9911207,86.0606411 70.7090909,86.0606411 L74.7,86.0606411 C75.4179702,86.0606411 76,86.6426709 76,87.3606411 L76,90.7 C76,91.4179702 75.4179702,92 74.7,92 L48.3,92 C47.5820298,92 47,91.4179702 47,90.7 L47,87.3606411 C47,86.6426709 47.5820298,86.0606411 48.3,86.0606411 L52.2909091,86.0606411 C53.0088793,86.0606411 53.5909091,85.4786113 53.5909091,84.7606412 L53.5909091,57.6852023 C53.5909091,56.9672321 53.0088793,56.3852023 52.2909091,56.3852023 L48.3,56.3852023 C47.5820298,56.3852023 47,55.8031725 47,55.0852024 L47,51.2340199 C47,50.5160498 47.5820298,49.93402 48.3,49.93402 Z M54.890909,28 L68.109091,28 C68.8270611,28 69.4090909,28.5820298 69.4090909,29.3 L69.4090909,40.8926012 C69.4090909,41.6105714 68.8270611,42.1926012 68.109091,42.1926012 L54.890909,42.1926012 C54.1729389,42.1926012 53.5909091,41.6105714 53.5909091,40.8926012 L53.5909091,29.3 C53.5909091,28.5820298 54.1729389,28 54.890909,28 Z" id="icon-Information"></path>
        </g>
    </g>
</svg>