<?xml version="1.0" encoding="UTF-8"?>
<svg width="44px" height="48px" viewBox="0 0 44 48" version="1.1" xmlns="http://www.w3.org/2000/svg" xmlns:xlink="http://www.w3.org/1999/xlink">
    <g id="Icons" stroke="none" stroke-width="1" fill="none" fill-rule="evenodd" transform="translate(-1215.000000, -626.000000)">
        <g id="Icon/Power/White" transform="translate(1197.000000, 610.000000)" fill="#FFFFFF" fill-rule="nonzero">
            <path d="M61.7142867,42 C61.7142867,38.5952761 60.9636093,35.3967422 59.4592176,32.3879525 C57.955291,29.3801057 55.8437583,26.8630451 53.1026562,24.8165227 C52.5504812,24.3958183 51.9615166,24.2408279 51.2579223,24.3337534 C50.5695409,24.4246741 50.0646982,24.7251763 49.6439053,25.3080625 C49.2256819,25.8569754 49.0757296,26.4353633 49.1740986,27.1239335 C49.273457,27.8194242 49.5809467,28.3443311 50.13085,28.7633247 C52.2382216,30.3546045 53.8748157,32.3098741 55.0288763,34.6179952 C56.1832375,36.9267177 56.7619067,39.3928137 56.7619067,42 C56.7619067,44.2435314 56.3236572,46.3914834 55.4487409,48.432957 C54.5792229,50.4618421 53.3977464,52.2259651 51.9070957,53.7166157 C50.4164451,55.2072664 48.6523221,56.3887429 46.6234422,57.2582587 C44.5819753,58.1331793 42.4340231,58.5714267 40.1904733,58.5714267 C37.9469294,58.5714267 35.7989772,58.1331789 33.7575164,57.2582609 C31.7286312,56.3887429 29.9645083,55.2072664 28.4738576,53.7166157 C26.983207,52.2259651 25.8017305,50.4618421 24.9322146,48.4329622 C24.0572944,46.3914962 23.6190467,44.243544 23.6190467,42 C23.6190467,39.3928072 24.197712,36.926712 25.3520704,34.6179952 C26.5061287,32.3098786 28.1427276,30.3546076 30.2455109,28.7668081 C30.8000066,28.3443311 31.1074963,27.8194242 31.2068533,27.1239429 C31.3052189,26.4353664 31.1552651,25.8569729 30.7160535,25.2797383 C30.3153458,24.7239209 29.8144063,24.4239561 29.1362856,24.3335377 C28.440303,24.2407421 27.8415153,24.3974929 27.2678969,24.8243666 C24.5371917,26.8630462 22.4256586,29.3801068 20.9217363,32.3879515 C19.417343,35.3967379 18.6666667,38.5952709 18.6666667,42 C18.6666667,44.9147373 19.2351603,47.6919687 20.3738892,50.3427795 C21.5183978,53.0070433 23.0504571,55.2957917 24.9725689,57.2179041 C26.8946816,59.1400162 29.1834301,60.6720756 31.8476935,61.816584 C34.4985047,62.955313 37.2757361,63.5238067 40.1904733,63.5238067 C43.10521,63.5238067 45.8824419,62.9553132 48.5332595,61.8165841 C51.1975165,60.6720785 53.4862608,59.1400209 55.4083843,57.2179043 C57.3304974,55.2957912 58.8625555,53.007043 60.0070605,50.3427786 C61.145792,47.6919689 61.7142867,44.9147381 61.7142867,42 Z M42.6666667,19.1428533 C42.6666667,18.4680448 42.4324355,17.9132869 41.9262418,17.4070932 C41.4200419,16.9008978 40.8652816,16.6666667 40.1904733,16.6666667 C39.5156712,16.6666667 38.960911,16.9008982 38.4547157,17.407089 C37.9485179,17.9132869 37.7142867,18.4680448 37.7142867,19.1428533 L37.7142867,38.1904733 C37.7142867,38.8652819 37.9485179,39.4200398 38.4547157,39.9262376 C38.9609132,40.4324351 39.515671,40.6666667 40.1904733,40.6666667 C40.8652819,40.6666667 41.4200398,40.4324355 41.9262376,39.9262376 C42.4324355,39.4200398 42.6666667,38.8652819 42.6666667,38.1904733 L42.6666667,19.1428533 Z"></path>
        </g>
    </g>
</svg>