<?xml version="1.0" encoding="UTF-8"?>
<svg width="45px" height="44px" viewBox="0 0 45 44" version="1.1" xmlns="http://www.w3.org/2000/svg" xmlns:xlink="http://www.w3.org/1999/xlink">
    <g id="Icons" stroke="none" stroke-width="1" fill="none" fill-rule="evenodd" transform="translate(-542.000000, -1043.000000)">
        <g id="Icon/Settings/White" transform="translate(524.000000, 1025.000000)" fill="#FFFFFF">
            <path d="M56.8541678,42.5208333 L61.7500012,46.0625 C62.1666678,46.4791667 62.2361145,46.9652733 61.9583345,47.5208333 L57.4791678,54.9166667 C57.2013878,55.4722253 56.7847278,55.6458347 56.2291678,55.4375 L50.6041678,53.25 C48.8680478,54.43056 47.6180612,55.15972 46.8541678,55.4375 L46.0208345,61.1666667 C45.8819478,61.722225 45.5000012,62 44.8750012,62 L36.0208345,62 C35.3958345,62 35.0138878,61.722225 34.8750012,61.1666667 L34.0416678,55.4375 C32.9999945,55.0208333 31.7500078,54.2916733 30.2916678,53.25 L24.6666678,55.4375 C24.1111098,55.7152793 23.6944472,55.54167 23.4166678,54.9166667 L18.9375012,47.5208333 C18.5902772,46.8958333 18.659721,46.4097267 19.1458345,46.0625 L23.8333345,42.5208333 C23.8333345,42.3125 23.8159738,41.96528 23.7812512,41.4791667 C23.7465285,40.9930533 23.7291678,40.6111133 23.7291678,40.3333333 C23.7291678,40.0555533 23.7465285,39.6736133 23.7812512,39.1875 C23.8159738,38.7013867 23.8333345,38.3541667 23.8333345,38.1458333 L19.0416678,34.6041667 C18.6249991,34.1875 18.5555554,33.7013933 18.8333345,33.1458333 L23.3125012,25.75 C23.5902805,25.19444 24.0069432,25.0208333 24.5625012,25.2291667 L30.1875012,27.4166667 C31.9236212,26.2361067 33.1736078,25.5069467 33.9375012,25.2291667 L34.7708345,19.5 C34.9097212,18.94444 35.2916678,18.6666667 35.9166678,18.6666667 L44.7708345,18.6666667 C45.3958345,18.6666667 45.7777812,18.94444 45.9166678,19.5 L46.6458345,25.2291667 C47.6875078,25.6458333 48.9374945,26.3749933 50.3958345,27.4166667 L55.9166678,25.2291667 C56.4722278,24.9513867 56.9236078,25.125 57.2708345,25.75 L61.7500012,33.1458333 C62.0972278,33.7708333 62.0277812,34.25694 61.5416678,34.6041667 L56.8541678,38.1458333 C56.8541678,38.3541667 56.8715278,38.7013867 56.9062545,39.1875 C56.9409745,39.6736133 56.9583345,40.0555533 56.9583345,40.3333333 C56.9583345,41.3750067 56.9236145,42.1041667 56.8541678,42.5208333 Z M40.2916678,47.9375 C42.4444545,47.9375 44.2847145,47.20834 45.8125012,45.75 C47.3402878,44.29166 48.1041678,42.48612 48.1041678,40.3333333 C48.1041678,38.1805467 47.3402878,36.3750067 45.8125012,34.9166667 C44.2847145,33.4583267 42.4444545,32.7291667 40.2916678,32.7291667 C38.1388812,32.7291667 36.3159812,33.4583267 34.8229212,34.9166667 C33.3298545,36.3750067 32.5833345,38.1805467 32.5833345,40.3333333 C32.5833345,42.48612 33.3298545,44.29166 34.8229212,45.75 C36.3159812,47.20834 38.1388812,47.9375 40.2916678,47.9375 Z"></path>
        </g>
    </g>
</svg>