<?xml version="1.0" encoding="UTF-8"?>
<svg width="120px" height="120px" viewBox="0 0 120 120" version="1.1" xmlns="http://www.w3.org/2000/svg" xmlns:xlink="http://www.w3.org/1999/xlink">
    <!-- Generator: Sketch 48.2 (47327) - http://www.bohemiancoding.com/sketch -->
    <title>icon-lock</title>
    <desc>Created with Sketch.</desc>
    <defs></defs>
    <g id="Icons-for-Github" stroke="none" stroke-width="1" fill="none" fill-rule="evenodd">
        <g id="icon-lock" fill="#000000">
            <path d="M83.71875,50 L80.35938,50 L80.35938,40 C80.35938,37.23957 79.83855,34.66148 78.79688,32.26563 C77.7552,29.8177 76.32293,27.68231 74.5,25.85938 C72.67707,24.03645 70.54168,22.60418 68.09375,21.5625 C65.6979,20.52083 63.11981,20 60.35938,20 C57.59894,20 55.02085,20.52083 52.625,21.5625 C50.17707,22.60418 48.04168,24.03645 46.21875,25.85938 C44.39582,27.68231 42.96355,29.8177 41.92188,32.26563 C40.8802,34.66148 40.35938,37.23957 40.35938,40 L40.35938,50 L37,50 C34.187486,50 31.817718,50.96354 29.890625,52.89063 C27.963532,54.81772 27,57.18749 27,60 L27,89.35938 C27,92.171894 27.963532,94.541662 29.890625,96.468755 C31.817718,98.395848 34.187486,99.35938 37,99.35938 L83.71875,99.35938 C86.53126,99.35938 88.90103,98.395848 90.82812,96.468755 C92.75522,94.541662 93.71875,92.171894 93.71875,89.35938 L93.71875,60 C93.71875,57.18749 92.75522,54.81772 90.82812,52.89063 C88.90103,50.96354 86.53126,50 83.71875,50 Z M48.4160156,40.5819378 C48.4160156,37.1482536 49.5768133,34.1928751 51.8984439,31.7157175 C54.2200745,29.2385599 56.9899012,28 60.2080122,28 C63.4261145,28 66.1959412,29.2385599 68.5175718,31.7157175 C70.8392024,34.1928751 72,37.1482536 72,40.5819378 L72,50 L48.4160156,50 L48.4160156,40.5819378 Z M63,85 L57,85 C55.8954305,85 55,84.1045695 55,83 L55,67 C55,65.8954305 55.8954305,65 57,65 L63,65 C64.1045695,65 65,65.8954305 65,67 L65,83 C65,84.1045695 64.1045695,85 63,85 Z" id="icon-Lock"></path>
        </g>
    </g>
</svg>