<?xml version="1.0" encoding="UTF-8"?>
<svg width="54px" height="51px" viewBox="0 0 54 51" version="1.1" xmlns="http://www.w3.org/2000/svg" xmlns:xlink="http://www.w3.org/1999/xlink">
    <g id="Icons" stroke="none" stroke-width="1" fill="none" fill-rule="evenodd" transform="translate(-1211.000000, -1245.000000)">
        <g id="Icon/Warning/White" transform="translate(1197.000000, 1231.000000)" fill="#FFFFFF">
            <path d="M44.5063684,55.58928 L44.5063684,49.93452 C44.5063684,49.65674 44.4121217,49.4236067 44.2236284,49.2351133 C44.035135,49.04662 43.8119284,48.95238 43.5539884,48.95238 L37.8397017,48.95238 C37.5817617,48.95238 37.358555,49.04662 37.1700617,49.2351133 C36.9815684,49.4236067 36.8873217,49.65674 36.8873217,49.93452 L36.8873217,55.58928 C36.8873217,55.86706 36.9815684,56.1001933 37.1700617,56.2886867 C37.358555,56.47718 37.5817617,56.5714267 37.8397017,56.5714267 L43.5539884,56.5714267 C43.8119284,56.5714267 44.035135,56.47718 44.2236284,56.2886867 C44.4121217,56.1001933 44.5063684,55.86706 44.5063684,55.58928 Z M44.4468417,44.4583333 L44.9825617,30.7976133 C44.9825617,30.55952 44.883355,30.3710267 44.6849417,30.23214 C44.4270017,30.0138867 44.1889084,29.90476 43.970655,29.90476 L37.423035,29.90476 C37.2047817,29.90476 36.9666884,30.0138867 36.7087484,30.23214 C36.510335,30.3710267 36.4111284,30.57936 36.4111284,30.85714 L36.9170817,44.4583333 C36.9170817,44.6567467 37.0162884,44.8204333 37.2147017,44.9494 C37.413115,45.0783733 37.6512084,45.1428533 37.9289884,45.1428533 L43.4349417,45.1428533 C43.7127217,45.1428533 43.9458484,45.0783733 44.1343417,44.9494 C44.322835,44.8204333 44.4270017,44.6567467 44.4468417,44.4583333 Z M44.030175,16.6607133 L66.8873217,58.5654733 C67.5817684,59.8154793 67.5619284,61.0654673 66.827795,62.3154733 C66.490495,62.8908733 66.0291884,63.347218 65.4438684,63.6845209 C64.8585484,64.0218242 64.228595,64.1904733 63.5539884,64.1904733 L17.8397017,64.1904733 C17.165095,64.1904733 16.535141,64.0218242 15.949821,63.6845209 C15.3645004,63.347218 14.9031954,62.8908733 14.5658922,62.3154733 C13.8317617,61.0654673 13.8119204,59.8154793 14.5063684,58.5654733 L37.3635084,16.6607133 C37.700815,16.0456267 38.1670817,15.55952 38.7623217,15.20238 C39.3575617,14.8452333 40.002395,14.6666667 40.6968417,14.6666667 C41.391295,14.6666667 42.0361284,14.8452333 42.6313684,15.20238 C43.2266084,15.55952 43.692875,16.0456267 44.030175,16.6607133 Z" id="Page-1"></path>
        </g>
    </g>
</svg>