<?xml version="1.0" encoding="UTF-8"?>
<svg width="20px" height="43px" viewBox="0 0 20 43" version="1.1" xmlns="http://www.w3.org/2000/svg" xmlns:xlink="http://www.w3.org/1999/xlink">
    <g id="Icons" stroke="none" stroke-width="1" fill="none" fill-rule="evenodd" transform="translate(-1003.000000, -629.000000)">
        <g id="Icon/Info/White" transform="translate(973.000000, 610.000000)" fill="#FFFFFF">
            <path d="M49.7142867,55.5238073 L49.7142867,59.3333313 C49.7142867,59.8492073 49.5257933,60.2956313 49.1488067,60.6726171 C48.7718267,61.0496031 48.3254,61.2380933 47.8095267,61.2380933 L32.5714287,61.2380933 C32.0555527,61.2380933 31.6091287,61.0496031 31.2321429,60.6726171 C30.8551569,60.2956313 30.6666667,59.8492073 30.6666667,59.3333313 L30.6666667,55.5238073 C30.6666667,55.007932 30.8551569,54.5615067 31.2321429,54.18452 C31.6091287,53.8075333 32.0555527,53.6190467 32.5714287,53.6190467 L34.4761907,53.6190467 L34.4761907,42.1904733 L32.5714287,42.1904733 C32.0555527,42.1904733 31.6091287,42.0019867 31.2321429,41.625 C30.8551569,41.2480133 30.6666667,40.8015867 30.6666667,40.2857133 L30.6666667,36.4761867 C30.6666667,35.9603133 30.8551569,35.5138867 31.2321429,35.1369 C31.6091287,34.75992 32.0555527,34.5714267 32.5714287,34.5714267 L44,34.5714267 C44.5158733,34.5714267 44.9623,34.75992 45.3392867,35.1369 C45.7162733,35.5138867 45.90476,35.9603133 45.90476,36.4761867 L45.90476,53.6190467 L47.8095267,53.6190467 C48.3254,53.6190467 48.7718267,53.8075333 49.1488067,54.18452 C49.5257933,54.5615067 49.7142867,55.007932 49.7142867,55.5238073 Z M45.90476,21.2380933 L45.90476,26.95238 C45.90476,27.4682533 45.7162733,27.91468 45.3392867,28.2916667 C44.9623,28.6686533 44.5158733,28.85714 44,28.85714 L36.3809527,28.85714 C35.8650767,28.85714 35.4186527,28.6686533 35.0416667,28.2916667 C34.6646807,27.91468 34.4761907,27.4682533 34.4761907,26.95238 L34.4761907,21.2380933 C34.4761907,20.72222 34.6646807,20.2757933 35.0416667,19.8988067 C35.4186527,19.52182 35.8650767,19.3333333 36.3809527,19.3333333 L44,19.3333333 C44.5158733,19.3333333 44.9623,19.52182 45.3392867,19.8988067 C45.7162733,20.2757933 45.90476,20.72222 45.90476,21.2380933 Z"></path>
        </g>
    </g>
</svg>