<?xml version="1.0" encoding="UTF-8"?>
<svg width="48px" height="48px" viewBox="0 0 48 48" version="1.1" xmlns="http://www.w3.org/2000/svg" xmlns:xlink="http://www.w3.org/1999/xlink">
    <g id="Icons" stroke="none" stroke-width="1" fill="none" fill-rule="evenodd" transform="translate(-315.000000, -1657.000000)">
        <g id="Icon/Emoji-Happy/Green-Multi-Color" transform="translate(299.000000, 1641.000000)">
            <circle id="Combined-Shape" fill="#3EB85D" cx="40" cy="40" r="24"></circle>
            <path d="M26.8433855,48.7221841 C26.8433855,48.7221841 26.8433855,48.7221841 26.8433855,48.7221841 L26.8433855,48.7221841 C26.4414058,48.0056855 26.6963737,47.0989797 27.4128722,46.6969999 C27.8002186,46.4796857 28.2644066,46.4468188 28.6785089,46.6073865 C31.1857551,47.5795978 34.9884678,48.0656908 40.0866369,48.0656908 C45.1848061,48.0656908 48.9875188,47.5795978 51.4947748,46.6074119 L51.494765,46.6073865 C52.2607557,46.3103745 53.1224897,46.6905567 53.4195018,47.4565474 C53.5800695,47.8706497 53.5472027,48.3348378 53.3298884,48.7221841 C53.3298884,48.7221841 53.3298884,48.7221841 53.3298884,48.7221841 C50.2440093,54.222531 45.3725817,56.7323574 40.0866369,56.7323574 C34.8006922,56.7323574 29.9292646,54.222531 26.8433855,48.7221841 Z" id="Oval-2" fill="#174E25"></path>
            <ellipse id="Oval-2" fill="#174E25" cx="32.3333333" cy="35.3333333" rx="3" ry="4"></ellipse>
            <ellipse id="Oval-2" fill="#174E25" cx="48.3333333" cy="35.3333333" rx="3" ry="4"></ellipse>
        </g>
    </g>
</svg>