<?xml version="1.0" encoding="UTF-8"?>
<svg width="120px" height="120px" viewBox="0 0 120 120" version="1.1" xmlns="http://www.w3.org/2000/svg" xmlns:xlink="http://www.w3.org/1999/xlink">
    <!-- Generator: Sketch 48.2 (47327) - http://www.bohemiancoding.com/sketch -->
    <title>Icon/Warning</title>
    <desc>Created with Sketch.</desc>
    <defs>
        <path d="M66.7595526,83.38392 L66.7595526,74.90178 C66.7595526,74.48511 66.6181826,74.13541 66.3354426,73.85267 C66.0527026,73.56993 65.7178926,73.42857 65.3309826,73.42857 L56.7595526,73.42857 C56.3726426,73.42857 56.0378326,73.56993 55.7550926,73.85267 C55.4723526,74.13541 55.3309826,74.48511 55.3309826,74.90178 L55.3309826,83.38392 C55.3309826,83.80059 55.4723526,84.15029 55.7550926,84.43303 C56.0378326,84.71577 56.3726426,84.85714 56.7595526,84.85714 L65.3309826,84.85714 C65.7178926,84.85714 66.0527026,84.71577 66.3354426,84.43303 C66.6181826,84.15029 66.7595526,83.80059 66.7595526,83.38392 Z M66.6702626,66.6875 L67.4738426,46.19642 C67.4738426,45.83928 67.3250326,45.55654 67.0274126,45.34821 C66.6405026,45.02083 66.2833626,44.85714 65.9559826,44.85714 L56.1345526,44.85714 C55.8071726,44.85714 55.4500326,45.02083 55.0631226,45.34821 C54.7655026,45.55654 54.6166926,45.86904 54.6166926,46.28571 L55.3756226,66.6875 C55.3756226,66.98512 55.5244326,67.23065 55.8220526,67.4241 C56.1196726,67.61756 56.4768126,67.71428 56.8934826,67.71428 L65.1524126,67.71428 C65.5690826,67.71428 65.9187726,67.61756 66.2015126,67.4241 C66.4842526,67.23065 66.6405026,66.98512 66.6702626,66.6875 Z M66.0452626,24.99107 L100.330983,87.84821 C101.372653,89.723219 101.342893,91.598201 100.241693,93.47321 C99.7357426,94.33631 99.0437826,95.020827 98.1658026,95.5267814 C97.2878226,96.0327363 96.3428926,96.28571 95.3309826,96.28571 L26.7595526,96.28571 C25.7476426,96.28571 24.8027116,96.0327363 23.9247316,95.5267814 C23.0467506,95.020827 22.3547932,94.33631 21.8488383,93.47321 C20.7476426,91.598201 20.7178806,89.723219 21.7595526,87.84821 L56.0452626,24.99107 C56.5512226,24.06844 57.2506226,23.33928 58.1434826,22.80357 C59.0363426,22.26785 60.0035926,22 61.0452626,22 C62.0869426,22 63.0541926,22.26785 63.9470526,22.80357 C64.8399126,23.33928 65.5393126,24.06844 66.0452626,24.99107 Z" id="path-1"></path>
    </defs>
    <g id="Icons" stroke="none" stroke-width="1" fill="none" fill-rule="evenodd">
        <g id="Icon/Warning">
            <mask id="mask-2" fill="white">
                <use xlink:href="#path-1"></use>
            </mask>
            <use fill="#FFFFFF" xlink:href="#path-1"></use>
            <g id="Color-alias/Icons/Icon-Light" mask="url(#mask-2)" fill="#FFFFFF">
                <g id="Color/White">
                    <rect id="Sample" x="0" y="0" width="120" height="120"></rect>
                </g>
            </g>
        </g>
    </g>
</svg>