<?xml version="1.0" encoding="UTF-8"?>
<svg width="120px" height="120px" viewBox="0 0 120 120" version="1.1" xmlns="http://www.w3.org/2000/svg" xmlns:xlink="http://www.w3.org/1999/xlink">
    <!-- Generator: Sketch 48.2 (47327) - http://www.bohemiancoding.com/sketch -->
    <title>Icon/Pause</title>
    <desc>Created with Sketch.</desc>
    <defs>
        <path d="M85,37.0833312 L85,82.9166666 C85,83.480906 84.7938354,83.9691822 84.3815063,84.3815104 C83.9691844,84.7938388 83.4809052,85 82.9166688,85 L71.2499973,85 C70.6857608,85 70.1974817,84.7938388 69.7851525,84.3815104 C69.3728306,83.9691822 69.1666661,83.480906 69.1666661,82.9166666 L69.1666661,37.0833312 C69.1666661,36.5190948 69.3728306,36.0308156 69.7851525,35.6184937 C70.1974817,35.2061646 70.6857608,35 71.2499973,35 L82.9166688,35 C83.4809052,35 83.9691844,35.2061646 84.3815063,35.6184937 C84.7938354,36.0308156 85,36.5190948 85,37.0833312 Z M50.8333339,37.0833312 L50.8333339,82.9166666 C50.8333339,83.480906 50.6271694,83.9691822 50.2148402,84.3815104 C49.8025183,84.7938388 49.3142392,85 48.7500027,85 L37.0833334,85 C36.519094,85 36.0308178,84.7938388 35.6184896,84.3815104 C35.2061612,83.9691822 35,83.480906 35,82.9166666 L35,37.0833312 C35,36.5190948 35.2061612,36.0308156 35.6184896,35.6184937 C36.0308178,35.2061646 36.519094,35 37.0833334,35 L48.7500027,35 C49.3142392,35 49.8025183,35.2061646 50.2148402,35.6184937 C50.6271694,36.0308156 50.8333339,36.5190948 50.8333339,37.0833312 Z" id="path-1"></path>
    </defs>
    <g id="Icons" stroke="none" stroke-width="1" fill="none" fill-rule="evenodd">
        <g id="Icon/Pause">
            <mask id="mask-2" fill="white">
                <use xlink:href="#path-1"></use>
            </mask>
            <use fill="#FFFFFF" xlink:href="#path-1"></use>
            <g id="Color-alias/Icons/Icon-Light" mask="url(#mask-2)" fill="#FFFFFF">
                <g id="Color/White">
                    <rect id="Sample" x="0" y="0" width="120" height="120"></rect>
                </g>
            </g>
        </g>
    </g>
</svg>