<?xml version="1.0" encoding="UTF-8"?>
<svg width="120px" height="120px" viewBox="0 0 120 120" version="1.1" xmlns="http://www.w3.org/2000/svg" xmlns:xlink="http://www.w3.org/1999/xlink">
    <!-- Generator: Sketch 48.2 (47327) - http://www.bohemiancoding.com/sketch -->
    <title>Icon/Info</title>
    <desc>Created with Sketch.</desc>
    <defs>
        <path d="M74.57143,83.285711 L74.57143,88.999997 C74.57143,89.773811 74.28869,90.443447 73.72321,91.0089257 C73.15774,91.5744047 72.4881,91.85714 71.71429,91.85714 L48.857143,91.85714 C48.083329,91.85714 47.413693,91.5744047 46.8482143,91.0089257 C46.2827353,90.443447 46,89.773811 46,88.999997 L46,83.285711 C46,82.511898 46.2827353,81.84226 46.8482143,81.27678 C47.413693,80.7113 48.083329,80.42857 48.857143,80.42857 L51.714286,80.42857 L51.714286,63.28571 L48.857143,63.28571 C48.083329,63.28571 47.413693,63.00298 46.8482143,62.4375 C46.2827353,61.87202 46,61.20238 46,60.42857 L46,54.71428 C46,53.94047 46.2827353,53.27083 46.8482143,52.70535 C47.413693,52.13988 48.083329,51.85714 48.857143,51.85714 L66,51.85714 C66.77381,51.85714 67.44345,52.13988 68.00893,52.70535 C68.57441,53.27083 68.85714,53.94047 68.85714,54.71428 L68.85714,80.42857 L71.71429,80.42857 C72.4881,80.42857 73.15774,80.7113 73.72321,81.27678 C74.28869,81.84226 74.57143,82.511898 74.57143,83.285711 Z M68.85714,31.85714 L68.85714,40.42857 C68.85714,41.20238 68.57441,41.87202 68.00893,42.4375 C67.44345,43.00298 66.77381,43.28571 66,43.28571 L54.571429,43.28571 C53.797615,43.28571 53.127979,43.00298 52.5625,42.4375 C51.997021,41.87202 51.714286,41.20238 51.714286,40.42857 L51.714286,31.85714 C51.714286,31.08333 51.997021,30.41369 52.5625,29.84821 C53.127979,29.28273 53.797615,29 54.571429,29 L66,29 C66.77381,29 67.44345,29.28273 68.00893,29.84821 C68.57441,30.41369 68.85714,31.08333 68.85714,31.85714 Z" id="path-1"></path>
    </defs>
    <g id="Icons" stroke="none" stroke-width="1" fill="none" fill-rule="evenodd">
        <g id="Icon/Info">
            <mask id="mask-2" fill="white">
                <use xlink:href="#path-1"></use>
            </mask>
            <use fill="#FFFFFF" xlink:href="#path-1"></use>
            <g id="Color-alias/Icons/Icon-Light" mask="url(#mask-2)" fill="#FFFFFF">
                <g id="Color/White">
                    <rect id="Sample" x="0" y="0" width="120" height="120"></rect>
                </g>
            </g>
        </g>
    </g>
</svg>