<?xml version="1.0" encoding="UTF-8"?>
<svg width="120px" height="120px" viewBox="0 0 120 120" version="1.1" xmlns="http://www.w3.org/2000/svg" xmlns:xlink="http://www.w3.org/1999/xlink">
    <!-- Generator: Sketch 48.2 (47327) - http://www.bohemiancoding.com/sketch -->
    <title>Icon/Thumbs down</title>
    <desc>Created with Sketch.</desc>
    <defs></defs>
    <g id="Icons-for-Github" stroke="none" stroke-width="1" fill="none" fill-rule="evenodd">
        <g id="Icon/Thumbs-down" fill="#000000">
            <path d="M96.4197646,35.6875 C96.1072646,32.8229 94.9093546,30.4922 92.8260146,28.69531 C90.7426746,26.89843 88.2947746,26 85.4822646,26 C85.4822646,26 85.4562246,26 85.4041446,26 C85.3520546,26 85.2478946,26 85.0916446,26 L38.7635146,26 C36.2635046,26 34.1020646,26.80728 32.2791396,28.42187 C30.4562136,30.03647 29.2843506,32.01561 28.7635146,34.35937 L24.0760146,64.35937 C23.763513,67.01564 24.4145482,69.47655 26.0291396,71.74219 C27.6437306,74.00782 29.7791266,75.32291 32.4353896,75.6875 C32.7999746,75.6875 33.0864306,75.6875 33.2947646,75.6875 C33.5030986,75.6875 33.7635146,75.6875 34.0760146,75.6875 L49.7791446,75.6875 L49.7791446,85.6875 C49.7791446,89.333352 51.0812146,92.45832 53.6853846,95.0625 C56.2895646,97.66668 59.4405746,98.96875 63.1385146,98.96875 C63.7635146,98.96875 64.3754946,98.8125016 64.9744546,98.5 C65.5734146,98.1874984 65.9510146,97.692712 66.1072646,97.015625 L78.4510146,68.96875 L85.0916446,68.96875 C87.9562346,68.96875 90.4301746,68.07032 92.5135146,66.27344 C94.5968546,64.47655 95.7947646,62.17189 96.1072646,59.35937 C96.1072646,59.35937 96.1072646,59.29427 96.1072646,59.16406 C96.1072646,59.03385 96.1072646,58.96875 96.1072646,58.96875 L96.1072646,36 C96.2635146,36 96.3546646,35.94792 96.3807046,35.84375 C96.4067446,35.73958 96.4197646,35.6875 96.4197646,35.6875 Z M73.1385146,65.29687 L61.1072646,92.328125 C59.7530946,91.807289 58.6333146,91.000005 57.7478846,89.90625 C56.8624646,88.81249 56.4197646,87.51042 56.4197646,86 L56.4197646,72.64063 C56.4197646,71.65104 56.1202846,70.85677 55.5213246,70.25781 C54.9223646,69.65885 54.1281046,69.35937 53.1385146,69.35937 L34.0760146,69.35937 C34.0760146,69.35937 34.0109146,69.35937 33.8807046,69.35937 C33.7504946,69.35937 33.6072646,69.35937 33.4510146,69.35937 C32.6176776,69.15104 31.9275796,68.69532 31.3807026,67.99219 C30.8338246,67.28906 30.6385136,66.52084 30.7947646,65.6875 L35.4822646,35.6875 C35.6385146,34.85416 36.0161146,34.13802 36.6150746,33.53906 C37.2140346,32.9401 37.9301746,32.64063 38.7635146,32.64063 L73.1385146,32.64063 L73.1385146,65.29687 Z M89.7791446,58.96875 C89.6228846,60.01042 89.1150846,60.88281 88.2557046,61.58594 C87.3963246,62.28907 86.4718546,62.64063 85.4822646,62.64063 L79.7791446,62.64063 L79.7791446,32.64063 L85.4822646,32.64063 C86.4718546,32.48437 87.3963246,32.77083 88.2557046,33.5 C89.1150846,34.22917 89.6228846,35.16666 89.7791446,36.3125 L89.7791446,58.96875 Z"></path>
        </g>
    </g>
</svg>