<?xml version="1.0" encoding="UTF-8"?>
<svg width="120px" height="120px" viewBox="0 0 120 120" version="1.1" xmlns="http://www.w3.org/2000/svg" xmlns:xlink="http://www.w3.org/1999/xlink">
    <!-- Generator: Sketch 48.2 (47327) - http://www.bohemiancoding.com/sketch -->
    <title>Icon/TV</title>
    <desc>Created with Sketch.</desc>
    <defs>
        <path d="M55,89 L55,83 L17,83 C15.8954305,83 15,82.1045695 15,81 L15,30 C15,28.8954305 15.8954305,28 17,28 L103,28 C104.104569,28 105,28.8954305 105,30 L105,81 C105,82.1045695 104.104569,83 103,83 L65,83 L65,89 L78,89 C79.1045695,89 80,89.8954305 80,91 L80,93 L40,93 L40,91 C40,89.8954305 40.8954305,89 42,89 L55,89 Z M19,32 L19,77 L101,77 L101,32 L19,32 Z M58,80 C58,80.5522847 58.4477153,81 59,81 L61,81 C61.5522847,81 62,80.5522847 62,80 C62,79.4477153 61.5522847,79 61,79 L59,79 C58.4477153,79 58,79.4477153 58,80 Z" id="path-1"></path>
    </defs>
    <g id="Icons" stroke="none" stroke-width="1" fill="none" fill-rule="evenodd">
        <g id="Icon/TV">
            <mask id="mask-2" fill="white">
                <use xlink:href="#path-1"></use>
            </mask>
            <use fill="#FFFFFF" fill-rule="nonzero" xlink:href="#path-1"></use>
            <g id="Color-alias/Icons/Icon-Light" mask="url(#mask-2)" fill="#FFFFFF">
                <g id="Color/White">
                    <rect id="Sample" x="0" y="0" width="120" height="120"></rect>
                </g>
            </g>
        </g>
    </g>
</svg>