<?xml version="1.0" encoding="UTF-8"?>
<svg width="36px" height="36px" viewBox="0 0 36 36" version="1.1" xmlns="http://www.w3.org/2000/svg" xmlns:xlink="http://www.w3.org/1999/xlink">
    <g id="Icons" stroke="none" stroke-width="1" fill="none" fill-rule="evenodd" transform="translate(-767.000000, -632.000000)">
        <g id="Icon/Spinner/White" transform="translate(745.000000, 610.000000)" fill="#FFFFFF" fill-rule="nonzero">
            <path d="M22.6666667,35.8133336 L22.6666667,35.9000147 C22.6666667,35.9279897 22.6708799,35.9378868 22.698956,35.9657354 C22.7280741,35.9946177 22.7409247,36 22.7729129,36 L27.5796779,36 C27.6413196,36 27.6371674,36.0031591 27.690364,35.8556294 C28.388504,34.2068417 28.8168604,33.2688735 29.0176012,32.9615572 C30.2046496,31.0439706 31.7857659,29.5346531 33.7534234,28.4409348 C35.7210859,27.3475236 37.845385,26.7995883 40.1158682,26.7995883 C43.5196245,26.7995883 46.4905579,27.9564008 48.997032,30.2576317 L49.5116618,30.7301209 L49.0156042,31.2220728 L45.6822327,34.527854 C45.5012312,34.7077379 45.4203086,34.8979056 45.4203086,35.1333627 C45.4203086,35.3687097 45.5011529,35.5586156 45.6815446,35.7378945 C45.8639375,35.9186348 46.0583208,36 46.2997642,36 L57.1211374,36 C57.3624376,36 57.556435,35.9187465 57.7383054,35.7383495 C57.9192812,35.5586655 58,35.3689625 58,35.1333627 L58,24.3996471 C58,24.1632884 57.9196588,23.9741979 57.7389931,23.7953423 C57.5566038,23.6144308 57.362261,23.5330099 57.1211374,23.5330099 C56.8801677,23.5330099 56.6861124,23.6143436 56.5019424,23.7966644 L52.9058534,27.3366803 L52.4386391,26.8992448 C50.7762358,25.3427979 48.874254,24.1376299 46.7292996,23.2820563 C44.5859639,22.4270142 42.3824648,22 40.1161647,22 C35.837953,22 32.1213405,23.2787034 28.9400951,25.8416244 C25.7739928,28.3920636 23.6862266,31.7088719 22.6666667,35.8133336 Z M57.3021648,44.0370007 C57.271399,44.0068013 57.2564898,44.0005881 57.222919,44.0005881 L52.5634115,44.0005881 C52.4993814,44.0005881 52.5026972,43.9980781 52.4492989,44.1458326 C51.7510322,45.7883233 51.3182326,46.7315684 51.115996,47.0402906 C49.9228472,48.9577034 48.3344257,50.4670669 46.3591547,51.5598087 C44.3834449,52.6529293 42.2502902,53.2005293 39.9698742,53.2005293 C38.3165722,53.2005293 36.7207306,52.8972605 35.1872195,52.291388 C33.655454,51.6862051 32.2831889,50.8276617 31.0745162,49.7181867 L30.5586148,49.2446263 L31.0569706,48.7526351 L34.3817398,45.4703277 C34.5632626,45.2912808 34.6442957,45.1017331 34.6442957,44.8669019 C34.6442957,44.6319054 34.5633562,44.4426154 34.3812801,44.2630223 C34.1978476,44.0817408 34.001876,44 33.7579918,44 L22.8866018,44 C22.6424391,44 22.4464632,44.0817258 22.2625559,44.2634761 C22.0809395,44.4426154 22,44.6319054 22,44.8669019 L22,55.6004117 C22,55.8352429 22.0810332,56.0247906 22.2623261,56.2036109 C22.4466978,56.3852918 22.6431932,56.4673136 22.8866018,56.4673136 C23.1299776,56.4673136 23.3263522,56.3853254 23.5100972,56.2040867 L27.097762,52.6615868 L27.5657639,53.1020285 C29.2358701,54.6737838 31.1341505,55.8821825 33.264321,56.7295146 C35.3938799,57.5768871 37.5953,58 39.8730742,58 C44.1557212,58 47.8740623,56.7212904 51.0541026,54.1585177 C54.2385133,51.5925065 56.3264447,48.250412 57.3279025,44.1111141 C57.3317334,44.0703321 57.3254399,44.0600312 57.3021648,44.0370007 Z"></path>
        </g>
    </g>
</svg>