<?xml version="1.0" encoding="UTF-8"?>
<svg width="120px" height="120px" viewBox="0 0 120 120" version="1.1" xmlns="http://www.w3.org/2000/svg" xmlns:xlink="http://www.w3.org/1999/xlink">
    <!-- Generator: Sketch 48.2 (47327) - http://www.bohemiancoding.com/sketch -->
    <title>icon-team</title>
    <desc>Created with Sketch.</desc>
    <defs></defs>
    <g id="Icons-for-Github" stroke="none" stroke-width="1" fill="none" fill-rule="evenodd">
        <g id="icon-team" fill="#000000">
            <path d="M34.182338,62.4772073 C31.1377382,61.5574535 28.1322355,51.078778 28.7751102,42.7716879 C28.6562835,42.0544325 27.5086993,41.4120297 27.4920105,40.7208283 C27.2987942,32.7183986 34.5159949,26 43.1464981,26 C52.5353389,26 57.629502,32.2149732 58.9233446,39.5153231 C60.909235,50.7204696 61.2681201,57.3432348 60,59.3836188 L54.9181568,59.3836188 C55.1257087,62.8003747 55.4426931,65.2813833 55.8691099,66.8266448 C60,68.2427499 67.9182069,68.8434982 70.3697251,71.7009519 C72.7770434,74.5068869 73.907128,80.360098 73.7107933,91.6249325 C73.6917814,92.7157495 72.8020792,93.5900803 71.7110964,93.5900803 L19.0003767,93.5900798 C18.8712043,93.5900798 18.7423356,93.5775657 18.6155766,93.5527129 C17.5316457,93.3401937 16.825227,92.2892132 17.0377436,91.2052818 C18.9231834,81.5888027 20.9669377,76.7918206 24.484081,74.4263366 C28.7335846,71.5682976 34.2014995,69.4919912 41.1668051,67.7590802 C41.5098074,66.3018182 42.5262707,64.9814141 42.6608848,63.5095041 C39.7785793,63.5095041 36.824961,63.2755265 34.182338,62.4772073 Z M93.1744637,49.3974276 C93.1765155,49.5183737 93.1775442,49.639843 93.1775442,49.7618233 C93.1775442,57.8868182 90.7581311,68.5131207 87.1516156,69.349013 C85.3492344,69.766756 83.6389483,69.8120499 81.8787664,69.4919912 C82.0051442,70.2321147 82.1642423,70.9712373 82.3359985,71.7009519 C87.7401835,72.0022538 93.1920223,73.8262351 96.8847038,76.3097788 C99.9017553,78.3389219 102.227942,83.4381421 103.863265,91.6074395 C104.080065,92.6905185 103.377816,93.7442846 102.294739,93.961094 C102.165485,93.9869679 102.033989,94 101.902171,94 L76.360744,94.0000019 C76.7411793,93.3096049 76.963364,92.5192055 76.9780391,91.6772115 C77.1894881,79.5451791 75.8483014,72.101197 72.3013515,68.8434982 C71.9065942,68.4809331 71.3691548,68.1171649 70.7248676,67.7590802 C70.9790728,65.5004447 71.035226,62.7282037 71.0424891,59.3836188 C70.7592411,58.193041 70.5378384,56.8852953 70.3697251,55.4595415 C68.6690747,56.3298983 67.9182069,56.3138893 67.9182069,46.2145839 C67.9182069,37.0365179 74.5139106,35 81.8547076,35 C89.1955047,35 95.0995536,40.4775216 93.9099492,47.5450399 C93.7952617,48.2264056 93.5419045,48.8417348 93.1744637,49.3974276 Z" id="icon-Team"></path>
        </g>
    </g>
</svg>