<svg xmlns="http://www.w3.org/2000/svg" width="120" height="120" viewBox="0 0 120 120"> 
 <path fill="#FFF" fill-rule="evenodd" d="M94.709873,55.25 L108.095238,55.25 L108.095238,57.625 L120,57.625 L120,62.375 L108.095238,62.375 L108.095238,64.75 L94.709873,64.75 C92.4031632,83.49498 76.6232077,98 57.5,98 C36.7893219,98 20,80.9868205 20,60 C20,39.0131795 36.7893219,22 57.5,22 C76.6232077,22 92.4031632,36.50502 94.709873,55.25 Z M80.2748691,65.3717277 C83.256773,65.3717277 85.6740838,62.9221862 85.6740838,59.9005236 C85.6740838,56.8788609 83.256773,54.4293194 80.2748691,54.4293194 C77.2929652,54.4293194 74.8756545,56.8788609 74.8756545,59.9005236 C74.8756545,62.9221862 77.2929652,65.3717277 80.2748691,65.3717277 Z"/>
</svg>
