<?xml version="1.0" encoding="UTF-8"?>
<svg width="48px" height="68px" viewBox="0 0 48 68" version="1.1" xmlns="http://www.w3.org/2000/svg" xmlns:xlink="http://www.w3.org/1999/xlink">
    <g id="Icons" stroke="none" stroke-width="1" fill="none" fill-rule="evenodd" transform="translate(-312.000000, -207.000000)">
        <g id="Icon/Airtame/White" transform="translate(299.000000, 200.000000)" fill="#FFFFFF">
            <path d="M33.3333333,15.3333333 L33.3333333,6.66666667 L46.6666667,6.66666667 L46.6666667,15.3333333 L48,15.3333333 C50.9455187,15.3333333 53.3333333,17.721148 53.3333333,20.6666667 L53.3333333,28.1230647 C53.3333333,31.689378 54.13055,35.2105886 55.6666667,38.4291188 L56.179646,39.5039327 C57.3780501,42.0148745 58,44.7619529 58,47.5442183 L58,62.6666667 C58,68.9258938 52.9258938,74 46.6666667,74 L33.3333333,74 C27.0741062,74 22,68.9258938 22,62.6666667 L22,46.988556 C22,44.5647314 22.4720506,42.1641063 23.3897902,39.9207428 L24,38.4291188 C25.320688,35.2007703 26,31.7461119 26,28.258068 L26,20.6666667 C26,17.721148 28.3878147,15.3333333 31.3333333,15.3333333 L33.3333333,15.3333333 Z M32.4416791,41.0729589 C29.023431,41.4404499 26.3780184,44.2358336 26.1993829,47.6691351 C26.066461,50.2238679 26,52.7786006 26,55.3333333 C26,57.8880653 26.0664609,60.4427974 26.1993828,62.9975294 C26.3780163,66.4308316 29.0234294,69.2262159 32.441678,69.5937077 C34.9611187,69.8645692 37.4805593,70 40,70 C42.5194403,70 45.0388806,69.8645693 47.5583209,69.5937078 C50.976569,69.2262168 53.6219816,66.430833 53.8006171,62.9975315 C53.933539,60.4427988 54,57.8880661 54,55.3333333 C54,52.7786013 53.9335391,50.2238693 53.8006172,47.6691373 C53.6219837,44.2358351 50.9765706,41.4404508 47.558322,41.072959 C45.0388813,40.8020974 42.5194407,40.6666667 40,40.6666667 C37.4805597,40.6666667 34.9611194,40.8020974 32.4416791,41.0729589 Z M32.9114251,43.7693723 C35.2742834,43.4786797 37.6371417,43.3333333 40,43.3333333 C42.3628582,43.3333333 44.7257163,43.4786797 47.0885745,43.7693723 C49.3531267,44.0479706 51.084201,45.9231665 51.1811978,48.2027291 C51.2826215,50.5863312 51.3333333,52.9699333 51.3333333,55.3535354 C51.3333333,57.7371368 51.2826215,60.1207383 51.1811979,62.5043397 C51.0842029,64.7839032 49.353128,66.6590998 47.0885749,66.9376984 C44.7257166,67.228391 42.3628583,67.3737374 40,67.3737374 C37.6371418,67.3737374 35.2742837,67.2283911 32.9114255,66.9376984 C30.6468733,66.6591001 28.915799,64.7839042 28.8188022,62.5043416 C28.7173785,60.1207395 28.6666667,57.7371375 28.6666667,55.3535354 C28.6666667,52.9699339 28.7173785,50.5863324 28.8188021,48.202731 C28.9157971,45.9231675 30.646872,44.0479709 32.9114251,43.7693723 Z M36.2351712,58.4431593 C37.2548063,57.7160404 38.619935,57.6774174 39.6799621,58.3456972 L40.0746199,58.5945038 C41.7206897,59.6322464 43.8405383,59.5722704 45.4238851,58.4431593 L45.8826301,58.1160205 C46.0092664,58.025714 46.0378881,57.8513087 45.9466045,57.7261942 L45.2849191,56.8192803 C45.1932529,56.6941692 45.0161386,56.6660581 44.8893232,56.7564923 L44.4314955,57.0829769 C43.4118603,57.8100958 42.0467317,57.8487188 40.9867045,57.1804389 L40.5920468,56.9316323 C38.945977,55.8938898 36.8261284,55.9538658 35.2427816,57.0829769 L34.7840366,57.4101156 C34.6574003,57.5004221 34.6287786,57.6748275 34.7200622,57.799942 L35.3817476,58.7068559 C35.4734138,58.8319669 35.6505281,58.8600781 35.7773435,58.7696439 L36.2351712,58.4431593 Z M36.2351712,54.2503565 C37.2548063,53.5232376 38.619935,53.4846145 39.6799621,54.1528944 L40.0746199,54.401701 C41.7206897,55.4394436 43.8405383,55.3794676 45.4238851,54.2503565 L45.8826301,53.9232177 C46.0092664,53.8329112 46.0378881,53.6585059 45.9466045,53.5333913 L45.2849191,52.6264775 C45.1932529,52.5013664 45.0161386,52.4732553 44.8893232,52.5636895 L44.4314955,52.8901741 C43.4118603,53.6172929 42.0467317,53.655916 40.9867045,52.9876361 L40.5920468,52.7388295 C38.945977,51.701087 36.8261284,51.761063 35.2427816,52.8901741 L34.7840366,53.2173128 C34.6574003,53.3076193 34.6287786,53.4820247 34.7200622,53.6071392 L35.3817476,54.514053 C35.4734138,54.6391641 35.6505281,54.6672752 35.7773435,54.576841 L36.2351712,54.2503565 Z" id="Dongle" transform="translate(40.000000, 40.333333) rotate(25.000000) translate(-40.000000, -40.333333) "></path>
        </g>
    </g>
</svg>