<?xml version="1.0" encoding="UTF-8"?>
<svg width="61px" height="42px" viewBox="0 0 61 42" version="1.1" xmlns="http://www.w3.org/2000/svg" xmlns:xlink="http://www.w3.org/1999/xlink">
    <g id="Icons" stroke="none" stroke-width="1" fill="none" fill-rule="evenodd" transform="translate(-755.000000, -839.000000)">
        <g id="Icon/Window/White" transform="translate(745.000000, 819.000000)" fill="#FFFFFF" fill-rule="nonzero">
            <path d="M36.4882904,28 L56,28 C57.1045695,28 58,28.8954305 58,30 L58,50.0007208 L67.9997518,50.0007208 L67.9997518,22.6666667 L26.6666667,22.6666667 L26.6666667,28 L29.5117096,28 C29.3982629,27.8038844 29.3333333,27.5761914 29.3333333,27.3333333 C29.3333333,26.5969537 29.930287,26 30.6666667,26 C31.4030463,26 32,26.5969537 32,27.3333333 C32,27.5761914 31.9350705,27.8038844 31.8216237,28 L34.1783763,28 C34.0649295,27.8038844 34,27.5761914 34,27.3333333 C34,26.5969537 34.5969537,26 35.3333333,26 C36.069713,26 36.6666667,26.5969537 36.6666667,27.3333333 C36.6666667,27.5761914 36.6017371,27.8038844 36.4882904,28 Z M24,28 L24,22.6666667 C24,21.1939073 25.1939073,20 26.6666667,20 L67.9997518,20 C69.4725111,20 70.6664185,21.1939073 70.6664185,22.6666667 L70.6664185,50.0007208 C70.6664185,51.4734802 69.4725111,52.6673875 67.9997518,52.6673875 L58,52.6673875 L58,60 C58,61.1045695 57.1045695,62 56,62 L12,62 C10.8954305,62 10,61.1045695 10,60 L10,30 C10,28.8954305 10.8954305,28 12,28 L24,28 Z M17.3333333,36 C18.069713,36 18.6666667,35.4030463 18.6666667,34.6666667 C18.6666667,33.930287 18.069713,33.3333333 17.3333333,33.3333333 C16.5969537,33.3333333 16,33.930287 16,34.6666667 C16,35.4030463 16.5969537,36 17.3333333,36 Z M22,36 C22.7363797,36 23.3333333,35.4030463 23.3333333,34.6666667 C23.3333333,33.930287 22.7363797,33.3333333 22,33.3333333 C21.2636203,33.3333333 20.6666667,33.930287 20.6666667,34.6666667 C20.6666667,35.4030463 21.2636203,36 22,36 Z"></path>
        </g>
    </g>
</svg>