<?xml version="1.0" encoding="UTF-8"?>
<svg width="120px" height="120px" viewBox="0 0 120 120" version="1.1" xmlns="http://www.w3.org/2000/svg" xmlns:xlink="http://www.w3.org/1999/xlink">
    <!-- Generator: Sketch 48.2 (47327) - http://www.bohemiancoding.com/sketch -->
    <title>Icon/Signal 2 bars multi color</title>
    <desc>Created with Sketch.</desc>
    <defs></defs>
    <g id="Icons-for-Github" stroke="none" stroke-width="1" fill="none" fill-rule="evenodd">
        <g id="Icon/Signal-2-bars-multi-color">
            <path d="M84.9935441,82.6207386 C85.0408867,83.2599464 84.8278482,83.8162855 84.3544221,84.2897727 C83.9283386,84.7632599 83.3839068,85 82.7211103,85 L77.643641,85 C77.0281871,85 76.5015084,84.7928525 76.0635893,84.3785511 C75.6256702,83.9642498 75.3948784,83.4611772 75.3712071,82.8693182 C75.0871515,77.7793306 73.8917686,72.943915 71.7850225,68.3629261 C69.6782765,63.7819373 66.9383641,59.8047044 63.5652033,56.431108 C60.1920425,53.0575115 56.2153231,50.3172454 51.6349257,48.2102273 C47.0545284,46.1032092 42.2197371,44.8958349 37.1304067,44.5880682 C36.5386241,44.5643938 36.0356164,44.3335723 35.6213686,43.8955966 C35.2071208,43.4576209 35,42.9427113 35,42.3508523 L35,37.2727273 C35,36.6098452 35.2367095,36.065343 35.7101356,35.6392045 C36.136219,35.2130661 36.6569799,35 37.2724338,35 L37.3789542,35 C43.5808358,35.3077667 49.5163263,36.728207 55.1856036,39.2613636 C60.8548809,41.7945202 65.8908753,45.2745991 70.2937378,49.7017045 C74.7202717,54.1051357 78.1999012,59.1417804 80.7327307,64.8117898 C83.2655602,70.4817992 84.6858172,76.4180561 84.9935441,82.6207386 Z" id="Icon/Bars/Base" fill="#475066"></path>
            <path d="M48.6346029,78.1818182 C48.6346029,80.075767 47.9718164,81.6855994 46.6462233,83.0113636 C45.3206303,84.3371278 43.7110058,85 41.8173015,85 C39.9235971,85 38.3139726,84.3371278 36.9883796,83.0113636 C35.6627866,81.6855994 35,80.075767 35,78.1818182 C35,76.2878693 35.6627866,74.6780369 36.9883796,73.3522727 C38.3139726,72.0265085 39.9235971,71.3636364 41.8173015,71.3636364 C43.7110058,71.3636364 45.3206303,72.0265085 46.6462233,73.3522727 C47.9718164,74.6780369 48.6346029,76.2878693 48.6346029,78.1818182 Z M66.8140735,82.5497159 C66.8614161,83.212598 66.6602131,83.7807741 66.2104583,84.2542614 C65.7843748,84.7514229 65.2281075,85 64.5416397,85 L59.7482246,85 C59.156442,85 58.6475166,84.8046895 58.2214331,84.4140625 C57.7953497,84.0234355 57.5586402,83.5321999 57.5112976,82.9403409 C56.9905289,77.5189123 54.8068838,72.8847257 50.9602969,69.037642 C47.11371,65.1905584 42.4801218,63.0066314 37.0593932,62.4857955 C36.4676106,62.4384467 35.9764384,62.2017067 35.5858618,61.7755682 C35.1952853,61.3494297 35,60.8404386 35,60.2485795 L35,55.4545455 C35,54.767989 35.248545,54.2116499 35.7456423,53.7855114 C36.1480545,53.3830472 36.6569799,53.1818182 37.2724338,53.1818182 L37.4499677,53.1818182 C41.2373764,53.4895849 44.8590315,54.4424636 48.3150419,56.040483 C51.7710523,57.6385023 54.8364402,59.7869183 57.5112976,62.4857955 C60.2098262,65.1609982 62.3579648,68.226782 63.9557779,71.6832386 C65.5535909,75.1396953 66.5063466,78.7618182 66.8140735,82.5497159 Z" id="Icon/Bars/Base" fill="#FFFFFF"></path>
        </g>
    </g>
</svg>