<?xml version="1.0" encoding="UTF-8"?>
<svg width="60px" height="44px" viewBox="0 0 60 44" version="1.1" xmlns="http://www.w3.org/2000/svg" xmlns:xlink="http://www.w3.org/1999/xlink">
    <g id="Icons" stroke="none" stroke-width="1" fill="none" fill-rule="evenodd" transform="translate(-534.000000, -837.000000)">
        <g id="Icon/TV/White" transform="translate(524.000000, 819.000000)" fill="#FFFFFF" fill-rule="nonzero">
            <path d="M36.6666667,59.3333333 L36.6666667,55.3333333 L11.3333333,55.3333333 C10.5969537,55.3333333 10,54.7363797 10,54 L10,20 C10,19.2636203 10.5969537,18.6666667 11.3333333,18.6666667 L68.6666667,18.6666667 C69.4030463,18.6666667 70,19.2636203 70,20 L70,54 C70,54.7363797 69.4030463,55.3333333 68.6666667,55.3333333 L43.3333333,55.3333333 L43.3333333,59.3333333 L52,59.3333333 C52.7363797,59.3333333 53.3333333,59.930287 53.3333333,60.6666667 L53.3333333,62 L26.6666667,62 L26.6666667,60.6666667 C26.6666667,59.930287 27.2636203,59.3333333 28,59.3333333 L36.6666667,59.3333333 Z M12.6666667,21.3333333 L12.6666667,51.3333333 L67.3333333,51.3333333 L67.3333333,21.3333333 L12.6666667,21.3333333 Z M38.6666667,53.3333333 C38.6666667,53.7015232 38.9651435,54 39.3333333,54 L40.6666667,54 C41.0348565,54 41.3333333,53.7015232 41.3333333,53.3333333 C41.3333333,52.9651435 41.0348565,52.6666667 40.6666667,52.6666667 L39.3333333,52.6666667 C38.9651435,52.6666667 38.6666667,52.9651435 38.6666667,53.3333333 Z"></path>
        </g>
    </g>
</svg>