<?xml version="1.0" encoding="UTF-8"?>
<svg width="120px" height="120px" viewBox="0 0 120 120" version="1.1" xmlns="http://www.w3.org/2000/svg" xmlns:xlink="http://www.w3.org/1999/xlink">
    <!-- Generator: Sketch 48.2 (47327) - http://www.bohemiancoding.com/sketch -->
    <title>Icon/Sound on</title>
    <desc>Created with Sketch.</desc>
    <defs>
        <path d="M57.28571,35.45535 L57.28571,84.026783 C57.28571,84.800596 57.00298,85.470232 56.4375,86.035711 C55.87202,86.60119 55.20238,86.883926 54.42857,86.883926 C53.65476,86.883926 52.98512,86.60119 52.41964,86.035711 L37.55357,71.16964 L25.857143,71.16964 C25.083329,71.16964 24.413693,70.8869 23.8482143,70.32143 C23.2827353,69.75595 23,69.08631 23,68.3125 L23,51.16964 C23,50.39583 23.2827353,49.72619 23.8482143,49.16071 C24.413693,48.59523 25.083329,48.3125 25.857143,48.3125 L37.55357,48.3125 L52.41964,33.44643 C52.98512,32.88095 53.65476,32.59821 54.42857,32.59821 C55.20238,32.59821 55.87202,32.88095 56.4375,33.44643 C57.00298,34.0119 57.28571,34.68154 57.28571,35.45535 Z M74.42857,59.74107 C74.42857,62.00298 73.79614,64.10862 72.53125,66.05803 C71.26636,68.00745 69.59227,69.3988 67.50893,70.23214 C67.21131,70.38095 66.83929,70.45535 66.39286,70.45535 C65.61904,70.45535 64.94941,70.18006 64.38393,69.62946 C63.81845,69.07886 63.53571,68.40179 63.53571,67.59821 C63.53571,66.97321 63.71428,66.44494 64.07143,66.01339 C64.42857,65.58184 64.86012,65.20982 65.36607,64.89732 C65.87203,64.58482 66.37797,64.24256 66.88393,63.87053 C67.38988,63.49851 67.82143,62.9628 68.17857,62.26339 C68.53572,61.56398 68.71429,60.72322 68.71429,59.74107 C68.71429,58.75892 68.53572,57.91816 68.17857,57.21875 C67.82143,56.51934 67.38988,55.98363 66.88393,55.6116 C66.37797,55.23958 65.87203,54.89732 65.36607,54.58482 C64.86012,54.27232 64.42857,53.9003 64.07143,53.46875 C63.71428,53.0372 63.53571,52.50893 63.53571,51.88393 C63.53571,51.08035 63.81845,50.40327 64.38393,49.85268 C64.94941,49.30208 65.61904,49.02678 66.39286,49.02678 C66.83929,49.02678 67.21131,49.10119 67.50893,49.25 C69.59227,50.05357 71.26636,51.43749 72.53125,53.40178 C73.79614,55.36608 74.42857,57.47915 74.42857,59.74107 Z M85.85714,59.74107 C85.85714,64.29466 84.59227,68.49849 82.0625,72.35268 C79.53273,76.20686 76.18454,79.01189 72.01786,80.76785 C71.63095,80.91666 71.25893,80.99107 70.90179,80.99107 C70.09821,80.99107 69.41369,80.70833 68.84821,80.14285 C68.28274,79.57738 68,78.90774 68,78.13393 C68,76.97321 68.58035,76.09524 69.74107,75.5 C71.40775,74.6369 72.53869,73.98214 73.13393,73.53571 C75.33632,71.92856 77.05505,69.91221 78.29018,67.4866 C79.5253,65.061 80.14286,62.47918 80.14286,59.74107 C80.14286,57.00296 79.5253,54.42114 78.29018,51.99553 C77.05505,49.56993 75.33632,47.55358 73.13393,45.94643 C72.53869,45.49999 71.40775,44.84524 69.74107,43.98214 C68.58035,43.3869 68,42.50893 68,41.34821 C68,40.5744 68.28274,39.90476 68.84821,39.33928 C69.41369,38.7738 70.08333,38.49107 70.85714,38.49107 C71.24405,38.49107 71.63095,38.56547 72.01786,38.71428 C76.18454,40.47024 79.53273,43.27528 82.0625,47.12946 C84.59227,50.98365 85.85714,55.18747 85.85714,59.74107 Z M97.28571,59.74107 C97.28571,66.58634 95.39585,72.87348 91.61607,78.60268 C87.83629,84.331871 82.80658,88.550579 76.52679,91.2589257 C76.13988,91.407736 75.75298,91.48214 75.36607,91.48214 C74.59226,91.48214 73.92262,91.1994047 73.35714,90.6339257 C72.79166,90.068447 72.50893,89.398811 72.50893,88.624997 C72.50893,87.553563 73.08928,86.675596 74.25,85.991069 C74.45833,85.87202 74.79315,85.715772 75.25446,85.522319 C75.71578,85.328865 76.05059,85.172617 76.25893,85.053569 C77.62798,84.309517 78.84821,83.550596 79.91964,82.776783 C83.58038,80.06844 86.43749,76.69049 88.49107,72.64285 C90.54465,68.59521 91.57143,64.29466 91.57143,59.74107 C91.57143,55.18747 90.54465,50.88692 88.49107,46.83928 C86.43749,42.79164 83.58038,39.4137 79.91964,36.70535 C78.84821,35.93154 77.62798,35.17262 76.25893,34.42857 C76.05059,34.30952 75.71578,34.15327 75.25446,33.95982 C74.79315,33.76637 74.45833,33.61012 74.25,33.49107 C73.08928,32.80654 72.50893,31.92857 72.50893,30.85714 C72.50893,30.08333 72.79166,29.41369 73.35714,28.84821 C73.92262,28.28273 74.59226,28 75.36607,28 C75.75298,28 76.13988,28.0744 76.52679,28.22321 C82.80658,30.93156 87.83629,35.15027 91.61607,40.87946 C95.39585,46.60866 97.28571,52.8958 97.28571,59.74107 Z" id="path-1"></path>
    </defs>
    <g id="Icons" stroke="none" stroke-width="1" fill="none" fill-rule="evenodd">
        <g id="Icon/Sound-on">
            <mask id="mask-2" fill="white">
                <use xlink:href="#path-1"></use>
            </mask>
            <use id="Icon/Speaker-on" fill="#FFFFFF" xlink:href="#path-1"></use>
            <g id="Color-alias/Icons/Icon-Light" mask="url(#mask-2)" fill="#FFFFFF">
                <g id="Color/White">
                    <rect id="Sample" x="0" y="0" width="120" height="120"></rect>
                </g>
            </g>
        </g>
    </g>
</svg>