<?xml version="1.0" encoding="UTF-8"?>
<svg width="34px" height="34px" viewBox="0 0 34 34" version="1.1" xmlns="http://www.w3.org/2000/svg" xmlns:xlink="http://www.w3.org/1999/xlink">
    <g id="Icons" stroke="none" stroke-width="1" fill="none" fill-rule="evenodd" transform="translate(-768.000000, -1254.000000)">
        <g id="Icon/Stop/White" transform="translate(745.000000, 1231.000000)" fill="#FFFFFF">
            <path d="M56.6666667,24.7222208 L56.6666667,55.2777777 C56.6666667,55.6539373 56.5292236,55.9794548 56.2543375,56.2543403 C55.9794563,56.5292259 55.6539368,56.6666667 55.2777792,56.6666667 L24.7222223,56.6666667 C24.3460627,56.6666667 24.0205452,56.5292259 23.7456597,56.2543403 C23.4707741,55.9794548 23.3333333,55.6539373 23.3333333,55.2777777 L23.3333333,24.7222208 C23.3333333,24.3460632 23.4707741,24.0205437 23.7456597,23.7456625 C24.0205452,23.4707764 24.3460627,23.3333333 24.7222223,23.3333333 L55.2777792,23.3333333 C55.6539368,23.3333333 55.9794563,23.4707764 56.2543375,23.7456625 C56.5292236,24.0205437 56.6666667,24.3460632 56.6666667,24.7222208 Z"></path>
        </g>
    </g>
</svg>