<?xml version="1.0" encoding="UTF-8"?>
<svg width="44px" height="40px" viewBox="0 0 44 40" version="1.1" xmlns="http://www.w3.org/2000/svg" xmlns:xlink="http://www.w3.org/1999/xlink">
    <g id="Icons" stroke="none" stroke-width="1" fill="none" fill-rule="evenodd" transform="translate(-1215.000000, -220.000000)">
        <g id="Icon/Ethernet/White" transform="translate(1197.000000, 200.000000)" fill="#FFFFFF">
            <path d="M51.41732,22.0843492 L51.4556492,22.0467899 L52.1104845,22.6961663 L48.6765493,26.0983549 L48.6697378,26.0918395 L48.631739,26.1294871 L47.9457995,25.4733565 L51.4108389,22.0779221 L51.41732,22.0843492 Z M23.3597105,49.0743888 L24.4552826,47.4167853 L27.1789469,50.1055112 L28.2089377,49.049533 L25.3811448,46.1870313 L26.4181309,44.560802 L29.5757248,47.6521634 L30.655776,46.666813 L27.2754243,43.3095588 L28.3587545,41.666926 L32.0609647,45.2857752 L33.0599136,44.2446245 L29.2172137,40.4079468 L30.2941316,38.7929634 L34.4775627,42.8261955 L35.5053675,41.8157028 L31.1676016,37.5175091 L35.0457883,31.7783945 L36.5826496,30.60265 L41.726648,35.6426215 L37.7944042,39.5884166 L41.2197345,43.0026007 L45.2250967,39.1121152 L50.3795505,44.1836902 L49.2759275,45.6841261 L43.4076694,49.5150739 L39.0049398,45.2469987 L37.9723286,46.2811423 L42.1141844,50.3883795 L40.5272601,51.4695493 L36.5721942,47.6625891 L35.5383542,48.6686034 L39.1904131,52.285043 L37.614812,53.346712 L34.1432231,50.062044 L33.1210574,51.0435529 L36.2741028,54.1892133 L34.6808585,55.2721088 L31.7390929,52.444673 L30.7266705,53.424715 L33.3868468,56.1231525 L31.7721849,57.1560882 L29.2974818,54.8340323 C29.2974818,54.8340323 25.1950779,59.3254253 20.4973345,59.8451025 C18.7169307,60.0420556 17.0152401,57.6504463 18.7917299,55.445269 C23.5581733,54.4119643 24.4215298,52.6027562 25.773834,51.4695493 C24.7610946,50.3883795 23.3597105,49.0743888 23.3597105,49.0743888 Z M38.1626678,31.1297687 L49.388042,20.0255344 L50.7663779,21.3545894 L46.8178433,25.242661 L48.17244,26.6454444 L42.3282097,32.4136736 L43.3226758,34.1607481 L42.3094592,35.1722301 L38.1626678,31.1297687 Z M39.7152311,39.1255408 L44.5374979,34.3211399 L43.5184669,32.5992671 L48.8753836,27.3383978 L53.7298143,32.0554026 L48.4299431,37.3586277 L46.6437311,36.3712204 L41.805787,41.1149711 L39.7152311,39.1255408 Z M45.7472469,38.599963 L46.7912556,37.5354113 L48.5440343,38.5871 L54.4092681,32.787937 L55.8238377,34.1680663 L59.8131472,30.269787 L61.1745731,31.6109327 L49.9108388,42.6488894 L45.7472469,38.599963 Z M49.3550136,26.8586379 L52.820053,23.4632035 L53.4748883,24.1125798 L50.040953,27.5147685 L49.3550136,26.8586379 Z M50.7642276,28.2439193 L54.2292671,24.8484848 L54.8841024,25.4978612 L51.4501671,28.9000499 L50.7642276,28.2439193 Z M52.1734417,29.4560405 L55.6384812,26.0606061 L56.2933165,26.7099824 L52.8593812,30.1121711 L52.1734417,29.4560405 Z M53.5826558,30.8413219 L57.0476953,27.4458874 L57.7025305,28.0952638 L54.2685953,31.4974525 L53.5826558,30.8413219 Z M54.9918699,32.2266033 L58.4569094,28.8311688 L59.1117446,29.4805452 L55.6778094,32.8827339 L54.9918699,32.2266033 Z"></path>
        </g>
    </g>
</svg>